{"glyphs":{"0":{"ha":920,"x_min":74,"x_max":846,"o":"m 460 77 q 575 99 526 77 q 656 164 624 122 q 705 267 689 206 q 722 401 722 327 q 716 475 722 437 q 700 550 711 513 q 669 618 688 586 q 620 674 649 650 q 551 712 591 698 q 460 726 511 726 q 341 701 391 726 q 260 633 292 677 q 215 531 229 590 q 200 401 200 471 q 205 325 200 363 q 221 250 210 286 q 253 182 233 214 q 301 127 272 151 q 369 90 330 104 q 460 77 408 77 m 457 820 q 585 802 528 820 q 684 754 641 785 q 758 684 727 724 q 808 599 789 644 q 837 506 827 554 q 846 414 846 458 q 837 308 846 361 q 810 207 829 256 q 761 117 791 159 q 687 45 730 76 q 587 -3 644 14 q 457 -20 530 -20 q 296 11 368 -20 q 176 97 225 41 q 100 231 126 153 q 74 402 74 309 q 83 506 74 454 q 112 603 92 557 q 162 689 132 650 q 235 758 193 729 q 333 804 278 787 q 457 820 388 820 z "},"1":{"ha":505,"x_min":43,"x_max":347,"o":"m 220 717 l 79 649 l 43 734 q 101 761 73 748 q 159 788 130 774 l 218 815 l 347 815 l 347 0 l 220 0 l 220 717 z "},"2":{"ha":749,"x_min":83,"x_max":636,"o":"m 526 574 q 479 681 526 644 q 339 718 432 718 q 298 715 321 718 q 252 705 276 711 q 204 691 229 699 q 159 673 180 682 l 123 751 q 159 772 138 762 q 208 792 180 783 q 273 807 237 801 q 354 812 309 812 q 453 803 410 812 q 528 775 496 793 q 580 735 559 758 q 613 685 601 711 q 631 630 626 659 q 636 573 636 601 q 626 500 636 536 q 592 428 616 465 q 526 348 567 390 q 421 255 484 306 l 232 103 l 636 103 l 636 0 l 83 0 l 83 99 l 360 326 q 444 400 412 368 q 495 462 477 433 q 520 517 513 490 q 526 574 526 543 z "},"3":{"ha":770,"x_min":72,"x_max":664,"o":"m 526 572 q 478 685 526 650 q 330 721 430 721 q 268 714 302 721 q 204 698 234 707 q 152 681 174 689 q 128 673 131 673 l 97 764 q 121 774 100 765 q 176 792 143 783 q 251 810 210 802 q 334 818 292 818 q 397 814 363 818 q 465 801 431 810 q 530 774 499 791 q 585 732 562 758 q 623 670 609 706 q 637 587 637 635 q 627 515 637 547 q 601 458 617 483 q 563 417 584 434 q 520 390 542 401 q 478 374 498 379 q 441 370 457 370 q 485 358 461 366 q 534 337 509 351 q 582 305 559 324 q 624 259 606 286 q 653 195 642 231 q 664 113 664 159 q 636 2 664 48 q 563 -75 608 -45 q 460 -120 517 -105 q 347 -134 404 -134 q 247 -125 296 -134 q 161 -103 199 -115 q 99 -81 123 -92 q 72 -69 75 -71 l 109 21 q 182 -9 142 3 q 259 -31 216 -21 q 349 -40 302 -40 q 494 2 447 -40 q 542 126 542 44 q 486 259 542 211 q 314 319 430 307 l 314 416 q 391 424 353 416 q 459 449 429 431 q 507 497 489 467 q 526 572 526 527 z "},"4":{"ha":813,"x_min":53,"x_max":753,"o":"m 512 139 l 512 631 l 178 139 l 512 139 m 627 793 l 627 140 l 753 140 l 753 46 l 627 46 l 627 -176 l 512 -176 l 512 46 l 72 46 l 53 139 l 517 819 l 627 793 z "},"5":{"ha":747,"x_min":92,"x_max":683,"o":"m 126 21 q 234 -22 176 -6 q 351 -38 291 -38 q 566 165 566 -38 q 516 322 566 271 q 365 372 466 372 q 270 356 316 372 q 182 311 223 339 l 116 364 l 116 793 l 623 793 l 623 690 l 214 690 l 214 422 q 223 429 214 421 q 252 447 233 437 q 303 465 272 457 q 377 473 334 473 q 501 453 445 473 q 598 393 557 432 q 661 296 638 353 q 683 165 683 239 q 660 38 683 94 q 594 -59 637 -19 q 489 -119 551 -98 q 350 -140 427 -140 q 218 -124 283 -140 q 92 -78 152 -109 l 126 21 z "},"6":{"ha":842,"x_min":84,"x_max":766,"o":"m 766 227 q 744 98 766 159 q 679 -7 722 38 q 573 -79 636 -53 q 427 -106 509 -106 q 278 -78 342 -106 q 171 1 214 -50 q 106 125 128 52 q 84 288 84 198 q 103 451 84 376 q 154 589 121 526 q 233 701 187 651 q 332 789 278 751 q 446 853 386 827 q 569 895 507 880 l 598 796 q 485 760 545 785 q 373 694 426 735 q 278 596 319 654 q 219 461 237 538 q 266 491 241 477 q 319 515 291 505 q 380 532 348 526 q 450 538 412 538 q 581 515 523 538 q 681 451 640 492 q 744 352 722 410 q 766 227 766 295 m 205 272 q 208 209 205 241 q 221 144 212 176 q 246 85 230 113 q 287 36 262 57 q 346 3 311 15 q 427 -9 380 -9 q 529 12 487 -9 q 597 68 571 34 q 635 144 623 102 q 646 227 646 186 q 631 324 646 283 q 588 392 615 365 q 526 432 562 419 q 450 446 490 446 q 371 435 410 446 q 299 411 332 425 q 242 381 267 397 q 209 355 218 366 q 205 272 205 329 z "},"7":{"ha":768,"x_min":98,"x_max":704,"o":"m 704 751 l 316 -119 l 202 -68 l 558 728 l 98 728 l 98 833 l 665 833 l 704 751 z "},"8":{"ha":856,"x_min":107,"x_max":749,"o":"m 628 654 q 612 731 628 700 q 568 780 595 762 q 505 806 541 798 q 432 813 470 813 q 360 806 396 813 q 294 782 323 800 q 246 733 264 764 q 228 655 228 703 q 244 581 228 615 q 289 522 261 547 q 354 483 317 497 q 432 469 391 469 q 507 483 471 469 q 570 522 543 496 q 612 580 597 547 q 628 654 628 614 m 628 172 q 613 258 628 218 q 573 327 599 298 q 511 373 547 357 q 432 390 475 390 q 351 374 388 390 q 286 329 313 357 q 243 260 259 300 q 228 173 228 220 q 238 96 228 130 q 272 40 248 63 q 335 6 296 18 q 432 -6 374 -6 q 529 6 491 -6 q 589 41 567 18 q 620 97 611 64 q 628 172 628 130 m 749 655 q 733 569 749 606 q 693 505 718 532 q 636 460 668 478 q 571 430 604 441 q 704 335 659 404 q 749 157 749 267 q 725 45 749 93 q 660 -36 702 -3 q 560 -84 618 -68 q 432 -100 502 -100 q 306 -85 365 -100 q 202 -37 247 -69 q 133 43 158 -5 q 107 158 107 92 q 152 337 107 269 q 285 431 197 405 q 221 460 252 442 q 164 505 189 478 q 123 570 138 532 q 107 656 107 607 q 132 762 107 716 q 200 840 157 808 q 303 888 244 871 q 432 905 363 905 q 558 888 500 905 q 659 840 616 871 q 725 761 701 808 q 749 655 749 715 z "},"9":{"ha":845,"x_min":79,"x_max":761,"o":"m 395 248 q 263 270 322 248 q 164 334 205 293 q 101 433 123 376 q 79 558 79 490 q 101 687 79 626 q 166 793 123 747 q 272 865 209 838 q 418 891 336 891 q 567 863 503 891 q 674 784 631 836 q 739 660 717 733 q 761 497 761 587 q 743 336 761 410 q 692 199 724 261 q 614 86 659 136 q 515 -3 569 35 q 400 -68 461 -41 q 276 -109 340 -94 l 247 -11 q 319 9 281 -4 q 395 43 357 23 q 470 91 433 64 q 536 154 506 119 q 589 232 567 189 q 623 326 612 275 q 529 270 587 292 q 395 248 470 248 m 199 558 q 214 461 199 503 q 257 393 230 420 q 319 353 283 366 q 395 340 355 340 q 473 350 435 340 q 545 374 512 359 q 603 404 578 388 q 636 431 627 419 q 640 513 640 456 q 637 577 640 544 q 624 641 633 610 q 599 700 615 672 q 558 749 583 728 q 499 783 534 770 q 418 795 465 795 q 316 773 358 795 q 249 718 275 751 q 211 642 222 684 q 199 558 199 600 z "},"\u0000":{"ha":1389,"x_min":0,"x_max":0,"o":""},"\r":{"ha":467,"x_min":0,"x_max":0,"o":""}," ":{"ha":347,"x_min":0,"x_max":0,"o":""},"!":{"ha":536,"x_min":216,"x_max":361,"o":"m 216 82 l 216 137 l 301 137 l 328 137 q 344 135 338 137 q 353 128 350 134 q 357 112 356 123 q 358 82 358 101 q 359 56 358 68 q 361 35 361 44 q 359 20 361 26 q 350 9 357 14 q 332 2 344 5 q 301 0 320 0 l 216 0 l 216 82 m 340 271 l 216 271 l 216 1071 l 340 1071 l 340 271 z "},"\"":{"ha":430,"x_min":24,"x_max":408,"o":"m 408 1071 l 408 1023 l 368 718 l 294 718 l 254 1023 l 254 1071 l 408 1071 m 179 1071 l 179 1023 l 138 718 l 65 718 l 24 1023 l 24 1071 l 179 1071 z "},"#":{"ha":837,"x_min":156,"x_max":728,"o":"m 496 464 l 514 614 l 391 614 l 372 464 l 496 464 m 364 380 l 342 200 l 246 200 l 269 380 l 156 380 l 156 464 l 275 464 l 294 614 l 175 614 l 175 699 l 303 699 l 324 888 l 418 888 l 397 699 l 526 699 l 545 886 l 641 886 l 620 699 l 728 699 l 728 614 l 612 614 l 593 464 l 713 464 l 713 380 l 585 380 l 564 200 l 469 200 l 490 380 l 364 380 z "},"$":{"ha":772,"x_min":86,"x_max":698,"o":"m 436 91 q 498 102 470 92 q 545 129 526 112 q 575 171 565 146 q 586 223 586 195 q 579 268 586 249 q 555 303 572 288 q 510 334 538 319 q 436 366 481 349 l 436 91 m 366 745 q 283 736 315 745 q 232 710 251 726 q 207 674 214 694 q 199 632 199 654 q 206 595 199 612 q 231 563 212 578 q 281 533 249 548 q 366 501 314 518 l 366 745 m 366 943 l 436 943 l 436 838 q 515 831 475 838 q 587 816 555 824 q 661 794 625 806 l 634 708 q 570 726 603 718 q 506 740 541 734 q 436 745 471 745 l 436 481 q 565 425 514 452 q 645 368 616 397 q 686 305 675 338 q 698 231 698 271 q 677 124 698 168 q 620 52 656 80 q 537 8 585 23 q 436 -12 489 -7 l 436 -121 l 366 -121 l 366 -14 q 329 -11 349 -14 q 288 -5 309 -9 q 245 4 267 -1 q 205 14 224 9 q 113 43 159 26 l 146 140 q 227 114 186 125 q 298 96 261 104 q 366 87 336 87 l 366 385 q 233 430 287 406 q 147 484 180 454 q 100 550 114 514 q 86 630 86 586 q 106 732 86 693 q 163 793 127 771 q 252 826 200 816 q 366 841 303 836 l 366 943 z "},"%":{"ha":1169,"x_min":33,"x_max":1181,"o":"m 936 92 q 1047 146 1012 92 q 1083 307 1083 199 q 1049 473 1083 415 q 936 530 1015 530 q 868 516 896 530 q 824 473 841 501 q 799 402 806 444 q 791 307 791 361 q 825 146 791 199 q 936 92 860 92 m 937 7 q 826 33 872 7 q 750 101 779 59 q 707 197 721 143 q 694 306 694 250 q 709 435 694 378 q 755 531 724 492 q 831 591 785 570 q 937 612 876 612 q 1047 591 1001 612 q 1123 531 1093 570 q 1166 435 1152 492 q 1181 306 1181 378 q 1167 200 1181 254 q 1125 104 1154 147 q 1049 35 1096 62 q 937 7 1003 7 m 275 494 q 386 548 351 494 q 422 709 422 602 q 388 875 422 817 q 275 932 353 932 q 207 918 235 932 q 162 875 180 903 q 137 805 145 846 q 130 709 130 763 q 164 548 130 602 q 275 494 199 494 m 276 410 q 164 435 211 410 q 89 503 118 461 q 46 599 60 545 q 33 708 33 652 q 48 838 33 781 q 94 933 63 895 q 170 993 124 972 q 276 1014 215 1014 q 386 993 340 1014 q 461 933 432 972 q 505 838 491 895 q 519 708 519 781 q 506 603 519 656 q 464 507 493 549 q 388 437 435 464 q 276 410 342 410 m 770 1015 l 858 970 l 396 -15 l 308 25 l 770 1015 z "},"&":{"ha":1083,"x_min":90,"x_max":1056,"o":"m 213 283 q 228 192 213 232 q 276 124 243 152 q 357 82 308 97 q 474 68 406 68 q 594 74 544 68 q 679 94 644 81 q 738 127 714 107 q 779 174 762 147 l 380 492 q 254 424 294 474 q 213 283 213 373 m 474 -26 q 90 269 90 -26 q 146 454 90 383 q 316 557 203 525 q 270 592 294 572 q 226 638 246 612 q 192 693 205 663 q 179 755 179 722 q 197 846 179 805 q 250 918 215 888 q 335 964 284 947 q 450 980 385 980 q 568 963 517 980 q 653 916 618 945 q 704 845 687 886 q 722 756 722 804 q 705 673 722 707 q 658 612 689 638 q 581 567 627 587 q 478 530 536 548 l 814 265 q 819 308 817 284 q 823 356 821 331 q 824 408 824 382 q 825 456 825 433 q 824 489 825 474 q 824 516 824 505 q 823 540 823 529 l 935 540 q 933 522 935 540 q 931 477 932 505 q 928 415 930 450 q 923 346 926 380 q 918 281 921 312 q 911 231 914 251 l 903 188 l 1056 64 l 998 -5 l 854 115 q 723 7 816 41 q 474 -26 630 -26 m 613 759 q 602 814 613 790 q 569 855 590 838 q 517 880 547 871 q 450 888 487 888 q 292 758 292 888 q 324 671 292 713 q 413 592 357 629 q 443 601 424 595 q 484 616 462 607 q 529 639 507 626 q 571 670 552 652 q 601 710 589 688 q 613 759 613 732 z "},"'":{"ha":430,"x_min":139,"x_max":294,"o":"m 294 1071 l 294 1023 l 253 718 l 180 718 l 139 1023 l 139 1071 l 294 1071 z "},"(":{"ha":586,"x_min":184,"x_max":515,"o":"m 184 472 q 197 634 184 559 q 231 771 210 709 q 279 884 252 833 q 335 974 307 935 q 391 1039 363 1013 q 439 1082 418 1066 l 515 1013 q 452 942 487 988 q 385 828 416 896 q 332 671 353 760 q 310 471 310 581 q 330 270 310 360 q 379 113 350 180 q 443 0 409 45 q 504 -66 476 -45 l 448 -139 q 404 -105 431 -128 q 349 -45 378 -81 q 290 40 319 -9 q 237 155 260 90 q 199 298 214 219 q 184 472 184 377 z "},")":{"ha":586,"x_min":83,"x_max":415,"o":"m 415 481 q 402 310 415 388 q 367 168 389 232 q 317 55 345 104 q 260 -33 289 5 q 202 -97 231 -71 q 151 -139 174 -123 l 83 -67 q 147 4 112 -43 q 214 119 182 51 q 267 275 245 187 q 288 471 288 363 q 269 668 288 579 q 220 826 250 758 q 157 941 191 894 q 95 1011 123 987 l 151 1084 q 183 1059 160 1078 q 236 1006 207 1040 q 297 924 265 972 q 355 810 328 875 q 398 663 381 745 q 415 481 415 581 z "},"*":{"ha":633,"x_min":17,"x_max":553,"o":"m 379 1063 l 449 1023 l 342 839 l 553 839 l 553 777 l 343 777 l 458 591 l 389 553 l 285 739 l 180 553 l 111 591 l 227 777 l 17 777 l 17 839 l 228 839 l 121 1023 l 191 1063 l 285 876 l 379 1063 z "},"+":{"ha":705,"x_min":113,"x_max":633,"o":"m 420 351 l 420 118 l 325 118 l 325 351 l 113 351 l 113 441 l 325 441 l 325 675 l 420 675 l 420 441 l 633 441 l 633 351 l 420 351 z "},",":{"ha":364,"x_min":91,"x_max":268,"o":"m 91 199 l 268 199 l 268 30 q 228 -99 268 -48 q 113 -172 189 -150 l 92 -108 q 134 -89 117 -99 q 161 -67 151 -79 q 176 -38 172 -54 q 180 0 180 -22 l 91 0 l 91 199 z "},"-":{"ha":640,"x_min":91,"x_max":549,"o":"m 91 345 l 91 451 l 549 451 l 549 345 l 91 345 z "},".":{"ha":404,"x_min":129,"x_max":306,"o":"m 129 199 l 306 199 l 306 0 l 129 0 l 129 199 z "},"/":{"ha":707,"x_min":131,"x_max":669,"o":"m 555 1174 l 669 1132 l 246 -121 l 131 -79 l 555 1174 z "},":":{"ha":404,"x_min":122,"x_max":305,"o":"m 122 191 l 305 191 l 305 0 l 122 0 l 122 191 m 122 586 l 305 586 l 305 395 l 122 395 l 122 586 z "},";":{"ha":389,"x_min":115,"x_max":293,"o":"m 115 586 l 293 586 l 293 395 l 115 395 l 115 586 m 116 199 l 293 199 l 293 30 q 253 -99 293 -48 q 138 -172 214 -150 l 117 -108 q 159 -89 142 -99 q 186 -67 176 -79 q 201 -38 197 -54 q 205 0 205 -22 l 116 0 l 116 199 z "},"<":{"ha":848,"x_min":165,"x_max":678,"o":"m 228 508 l 609 859 l 678 784 l 304 450 l 678 115 l 609 41 l 165 450 l 228 508 z "},"=":{"ha":640,"x_min":121,"x_max":519,"o":"m 121 190 l 121 279 l 519 279 l 519 190 l 121 190 m 121 345 l 121 433 l 519 433 l 519 345 l 121 345 z "},">":{"ha":875,"x_min":219,"x_max":732,"o":"m 288 41 l 219 115 l 593 450 l 219 784 l 288 859 l 732 450 l 288 41 z "},"?":{"ha":814,"x_min":96,"x_max":700,"o":"m 345 148 l 345 0 l 209 0 l 209 148 l 345 148 m 570 810 q 520 926 570 890 q 371 962 470 962 q 280 952 322 962 q 205 932 237 943 q 137 903 168 920 l 96 1002 q 177 1036 133 1021 q 265 1060 215 1049 q 372 1071 315 1071 q 502 1056 442 1071 q 606 1008 562 1040 q 675 928 650 977 q 700 812 700 879 q 683 709 700 754 q 639 630 667 665 q 574 568 611 595 q 497 522 538 542 q 416 486 457 501 q 338 458 375 471 l 338 201 l 216 201 l 216 527 q 373 586 306 557 q 483 648 439 615 q 549 720 527 681 q 570 810 570 760 z "},"@":{"ha":1307,"x_min":94,"x_max":1220,"o":"m 660 -105 q 404 -65 511 -105 q 228 43 296 -25 q 126 201 159 111 q 94 392 94 292 q 116 570 94 488 q 179 717 139 651 q 274 834 219 783 q 393 919 329 884 q 528 970 457 953 q 671 987 599 987 q 814 975 745 987 q 945 936 884 962 q 1056 871 1006 910 q 1143 780 1107 832 q 1200 660 1179 727 q 1220 513 1220 593 q 1206 384 1220 440 q 1167 286 1192 328 q 1113 215 1143 243 q 1048 168 1082 186 q 982 143 1015 151 q 921 135 949 135 q 884 141 897 135 q 864 159 871 148 q 855 184 857 170 q 853 214 853 198 l 853 372 q 824 290 845 332 q 769 214 804 248 q 685 157 734 179 q 571 135 636 135 q 467 154 513 135 q 389 207 420 172 q 341 290 357 241 q 324 400 324 339 q 337 488 324 444 q 375 573 351 532 q 433 649 399 614 q 511 709 468 684 q 603 750 553 735 q 709 765 653 765 q 739 763 720 765 q 781 759 759 762 q 826 754 804 757 q 865 749 849 751 q 897 738 885 745 q 915 720 908 730 q 927 696 922 709 q 939 669 932 684 l 939 215 q 1013 232 981 215 q 1067 284 1045 248 q 1100 377 1088 321 q 1112 514 1112 434 q 1094 647 1112 589 q 1045 746 1076 704 q 972 816 1014 788 q 881 862 930 844 q 780 886 833 879 q 675 893 728 893 q 486 859 573 893 q 336 761 399 825 q 237 603 273 696 q 201 392 201 510 q 231 223 201 298 q 320 97 261 149 q 465 17 378 45 q 667 -11 552 -11 q 775 -3 727 -11 q 860 16 823 5 q 924 41 897 28 q 967 66 950 55 q 990 84 983 77 q 997 91 998 92 l 1059 28 q 990 -27 1031 -2 q 898 -69 949 -52 q 787 -96 847 -86 q 660 -105 726 -105 m 720 684 q 610 662 663 684 q 517 602 557 641 q 453 509 477 564 q 429 389 429 454 q 582 224 429 224 q 688 249 640 224 q 769 329 735 275 q 821 467 802 383 q 839 669 839 551 q 828 672 840 669 q 799 676 817 674 q 760 681 781 679 q 720 684 739 684 z "},"A":{"ha":989,"x_min":43,"x_max":946,"o":"m 596 1071 l 946 0 l 811 0 l 728 260 l 261 260 l 178 0 l 43 0 l 393 1071 l 596 1071 m 279 329 l 709 329 l 494 987 l 279 329 z "},"B":{"ha":926,"x_min":104,"x_max":863,"o":"m 349 1071 q 441 1069 391 1071 q 543 1060 492 1067 q 641 1037 593 1053 q 726 995 689 1021 q 785 927 763 968 q 808 828 808 886 q 792 712 808 756 q 747 642 777 668 q 677 604 718 616 q 587 585 637 592 q 647 575 616 581 q 709 557 679 570 q 768 524 740 545 q 817 471 796 503 q 851 393 838 439 q 863 286 863 348 q 848 175 863 221 q 804 97 833 129 q 733 46 775 66 q 639 17 692 27 q 523 3 586 7 q 389 0 460 0 l 104 0 l 104 1071 l 349 1071 m 389 97 q 556 109 489 97 q 665 147 624 121 q 723 213 705 173 q 740 310 740 254 q 721 416 740 373 q 661 485 701 459 q 559 522 621 511 q 414 533 498 533 l 235 533 l 235 97 l 389 97 m 235 621 l 411 621 q 550 631 495 621 q 638 666 606 642 q 683 729 670 690 q 696 822 696 767 q 677 891 696 863 q 617 939 659 920 q 511 965 576 957 q 351 974 445 974 l 235 974 l 235 621 z "},"C":{"ha":863,"x_min":70,"x_max":823,"o":"m 206 521 q 225 333 206 416 q 282 193 243 250 q 381 104 321 135 q 525 74 441 74 q 625 85 578 74 q 708 111 672 97 q 785 148 750 127 l 823 54 q 734 13 782 31 q 640 -15 694 -3 q 524 -28 586 -28 q 322 10 408 -28 q 181 119 237 48 q 97 291 125 190 q 70 520 70 393 q 79 648 70 582 q 111 778 89 714 q 167 899 132 842 q 253 999 202 956 q 373 1067 304 1042 q 530 1092 441 1092 q 639 1083 589 1092 q 726 1065 689 1075 q 804 1038 768 1053 l 773 939 q 705 964 743 953 q 630 981 673 973 q 534 989 587 989 q 385 954 448 989 q 283 856 323 918 q 225 708 243 793 q 206 521 206 622 z "},"D":{"ha":1010,"x_min":106,"x_max":939,"o":"m 803 535 q 729 863 803 751 q 503 974 656 974 l 235 974 l 235 98 l 488 98 q 723 208 644 98 q 803 535 803 319 m 939 540 q 931 398 939 467 q 902 270 922 330 q 848 160 882 210 q 763 75 814 111 q 643 20 712 39 q 484 0 574 0 l 106 0 l 106 1071 l 471 1071 q 675 1040 588 1071 q 822 945 763 1009 q 910 780 880 880 q 939 540 939 679 z "},"E":{"ha":808,"x_min":104,"x_max":770,"o":"m 104 0 l 104 1071 l 762 1071 l 762 974 l 235 974 l 235 604 l 695 604 l 695 526 l 235 526 l 235 97 l 770 97 l 770 0 l 104 0 z "},"F":{"ha":762,"x_min":104,"x_max":728,"o":"m 235 0 l 104 0 l 104 1071 l 728 1071 l 728 974 l 235 974 l 235 596 l 687 596 l 687 518 l 235 518 l 235 0 z "},"G":{"ha":996,"x_min":70,"x_max":910,"o":"m 791 464 l 512 464 l 512 550 l 910 550 l 910 0 l 850 0 l 814 144 q 784 79 806 110 q 724 24 762 47 q 631 -14 686 0 q 505 -28 576 -28 q 315 14 397 -28 q 179 131 234 56 q 97 309 125 205 q 70 533 70 412 q 101 781 70 675 q 191 955 132 886 q 335 1058 250 1024 q 527 1092 420 1092 q 607 1087 566 1092 q 687 1071 648 1082 q 765 1043 727 1060 q 836 1001 802 1025 l 791 909 q 745 940 772 926 q 682 965 717 954 q 605 982 646 976 q 519 989 564 989 q 384 962 442 989 q 286 880 326 935 q 226 739 246 824 q 206 537 206 654 q 222 340 206 426 q 275 195 239 254 q 372 106 312 136 q 518 75 431 75 q 626 85 576 75 q 713 119 676 96 q 770 179 749 142 q 791 271 791 216 l 791 464 z "},"H":{"ha":1036,"x_min":104,"x_max":931,"o":"m 800 518 l 235 518 l 235 0 l 104 0 l 104 1071 l 235 1071 l 235 596 l 800 596 l 800 1071 l 931 1071 l 931 0 l 800 0 l 800 518 z "},"I":{"ha":530,"x_min":66,"x_max":469,"o":"m 205 76 l 205 991 l 66 991 l 66 1071 l 469 1071 l 469 991 l 329 991 l 329 76 l 469 76 l 469 0 l 66 0 l 66 76 l 205 76 z "},"J":{"ha":489,"x_min":33,"x_max":385,"o":"m 33 24 q 152 60 109 37 q 219 119 196 83 q 248 205 241 155 q 254 325 254 256 l 254 1071 l 385 1071 l 385 349 q 374 194 385 265 q 330 70 363 123 q 234 -18 297 16 q 68 -61 172 -52 l 33 24 z "},"K":{"ha":942,"x_min":104,"x_max":905,"o":"m 235 0 l 104 0 l 104 1071 l 235 1071 l 235 579 l 387 579 l 719 1071 l 859 1071 l 491 541 l 905 0 l 758 0 l 381 507 l 235 507 l 235 0 z "},"L":{"ha":800,"x_min":104,"x_max":741,"o":"m 104 0 l 104 1071 l 235 1071 l 235 97 l 741 97 l 741 0 l 104 0 z "},"M":{"ha":1300,"x_min":104,"x_max":1196,"o":"m 235 989 l 235 0 l 104 0 l 104 1071 l 328 1071 l 650 141 l 972 1071 l 1196 1071 l 1196 0 l 1064 0 l 1064 989 l 716 0 l 583 0 l 235 989 z "},"N":{"ha":1083,"x_min":104,"x_max":979,"o":"m 810 0 l 235 952 l 235 0 l 104 0 l 104 1071 l 281 1071 l 847 125 l 847 1071 l 979 1071 l 979 0 l 810 0 z "},"O":{"ha":1028,"x_min":69,"x_max":960,"o":"m 960 547 q 951 400 960 472 q 924 265 943 329 q 872 147 905 201 q 789 54 839 93 q 672 -7 740 15 q 514 -29 604 -29 q 355 -6 424 -29 q 238 57 287 16 q 156 153 189 98 q 104 275 123 209 q 77 413 85 340 q 69 562 69 486 q 98 783 69 685 q 183 949 127 881 q 322 1054 239 1018 q 514 1090 406 1090 q 707 1054 623 1090 q 846 947 790 1017 q 931 777 903 878 q 960 547 960 675 m 205 526 q 284 187 205 298 q 514 76 363 76 q 642 100 585 76 q 739 178 699 124 q 801 317 779 231 q 823 526 823 403 q 802 736 823 648 q 743 880 782 824 q 647 963 704 937 q 519 989 591 989 q 386 964 444 989 q 288 883 328 939 q 227 739 248 827 q 205 526 205 651 z "},"P":{"ha":902,"x_min":104,"x_max":848,"o":"m 848 754 q 821 613 848 673 q 736 513 795 553 q 582 453 677 473 q 351 433 487 433 l 235 433 l 235 0 l 104 0 l 104 1071 l 373 1071 q 485 1066 428 1071 q 594 1049 541 1061 q 693 1014 647 1036 q 773 957 739 992 q 828 872 808 922 q 848 754 848 822 m 338 532 q 512 544 441 532 q 628 581 584 555 q 692 645 672 606 q 712 738 712 684 q 686 866 712 819 q 614 937 660 913 q 505 967 568 961 q 369 974 442 974 l 235 974 l 235 532 l 338 532 z "},"Q":{"ha":1040,"x_min":70,"x_max":970,"o":"m 970 524 q 949 320 970 414 q 884 157 928 227 q 773 41 840 86 q 612 -20 705 -5 l 869 -199 l 788 -288 l 454 -24 q 316 14 375 -15 q 214 85 257 42 q 144 181 172 127 q 99 295 116 235 q 76 416 83 354 q 70 538 70 479 q 80 677 70 609 q 112 807 90 745 q 168 921 134 869 q 252 1011 203 973 q 365 1070 300 1049 q 509 1092 429 1092 q 706 1057 621 1092 q 851 951 792 1022 q 940 773 909 880 q 970 524 970 667 m 520 989 q 372 955 432 989 q 275 860 312 921 q 222 716 238 800 q 206 532 206 632 q 222 346 206 430 q 275 202 238 262 q 372 109 312 142 q 520 75 432 75 q 636 96 587 75 q 721 152 686 117 q 778 233 755 186 q 812 329 800 279 q 829 432 825 380 q 834 531 834 484 q 820 708 834 625 q 769 854 805 791 q 672 952 733 916 q 520 989 612 989 z "},"R":{"ha":934,"x_min":104,"x_max":845,"o":"m 439 585 q 567 602 515 585 q 650 647 619 618 q 695 714 682 676 q 708 796 708 753 q 693 872 708 841 q 654 922 679 903 q 596 952 629 942 q 526 968 563 963 q 451 973 490 972 q 378 974 413 974 l 235 974 l 235 585 l 439 585 m 565 541 q 692 511 640 532 q 779 456 745 490 q 828 376 812 422 q 844 269 844 329 l 844 0 l 712 0 l 712 279 q 700 371 712 334 q 665 432 688 408 q 611 469 643 456 q 540 489 579 482 q 454 496 500 495 q 357 497 408 497 l 235 497 l 235 0 l 104 0 l 104 1071 l 420 1071 q 597 1056 518 1071 q 731 1010 676 1042 q 815 928 786 979 q 845 807 845 878 q 824 689 845 739 q 765 606 803 639 q 676 557 728 573 q 565 541 625 541 z "},"S":{"ha":857,"x_min":53,"x_max":795,"o":"m 795 283 q 775 170 795 225 q 711 70 756 114 q 592 -1 666 26 q 410 -28 518 -28 q 294 -16 350 -28 q 195 10 239 -4 q 100 49 144 27 l 113 151 q 199 113 153 130 q 288 87 237 98 q 391 75 338 75 q 494 84 445 75 q 579 115 543 92 q 637 176 616 137 q 659 277 659 216 q 647 347 659 316 q 613 403 635 378 q 559 447 591 428 q 488 479 528 465 l 296 547 q 206 586 250 564 q 128 641 162 609 q 74 715 94 673 q 53 812 53 758 q 79 941 53 888 q 151 1027 104 994 q 261 1076 197 1061 q 403 1092 326 1092 q 498 1085 452 1092 q 584 1065 543 1078 q 661 1038 625 1053 q 726 1006 696 1023 l 705 907 q 648 936 680 922 q 579 962 616 951 q 503 981 543 974 q 423 989 463 989 q 316 979 360 989 q 243 949 271 970 q 202 897 215 929 q 189 821 189 865 q 319 669 189 714 l 532 595 q 632 549 585 576 q 716 484 680 522 q 774 396 753 446 q 795 283 795 347 z "},"T":{"ha":846,"x_min":45,"x_max":796,"o":"m 487 974 l 487 0 l 355 0 l 355 974 l 45 974 l 45 1071 l 796 1071 l 796 974 l 487 974 z "},"U":{"ha":1040,"x_min":91,"x_max":943,"o":"m 517 75 q 659 98 602 75 q 750 170 716 121 q 797 296 783 218 q 811 482 811 373 l 811 1071 l 943 1071 l 943 485 q 919 269 943 364 q 846 108 896 174 q 715 7 795 42 q 523 -28 635 -28 q 320 7 402 -28 q 186 108 237 42 q 113 269 136 174 q 91 485 91 364 l 91 1071 l 222 1071 l 222 482 q 239 296 222 373 q 292 170 256 218 q 384 98 328 121 q 517 75 439 75 z "},"V":{"ha":922,"x_min":43,"x_max":880,"o":"m 462 122 l 756 1071 l 880 1071 l 545 0 l 379 0 l 43 1071 l 168 1071 l 462 122 z "},"W":{"ha":1330,"x_min":37,"x_max":1287,"o":"m 755 1071 l 954 92 l 1160 1071 l 1287 1071 l 1053 -4 l 838 -4 l 665 991 l 463 0 l 272 0 l 37 1071 l 163 1071 l 370 92 l 569 1071 l 755 1071 z "},"X":{"ha":897,"x_min":37,"x_max":859,"o":"m 725 1071 l 858 1071 l 522 529 l 859 0 l 711 0 l 448 425 l 185 0 l 37 0 l 374 529 l 39 1071 l 172 1071 l 448 626 l 725 1071 z "},"Y":{"ha":894,"x_min":33,"x_max":859,"o":"m 729 1071 l 859 1071 l 510 329 l 510 0 l 381 0 l 381 329 l 33 1071 l 166 1071 l 449 459 l 729 1071 z "},"Z":{"ha":844,"x_min":76,"x_max":776,"o":"m 774 962 l 210 97 l 776 97 l 776 0 l 76 0 l 76 122 l 638 974 l 76 974 l 76 1071 l 774 1071 l 774 962 z "},"[":{"ha":715,"x_min":182,"x_max":633,"o":"m 633 1071 l 633 974 l 313 974 l 313 97 l 633 97 l 633 0 l 182 0 l 182 1071 l 633 1071 z "},"\\":{"ha":699,"x_min":79,"x_max":609,"o":"m 609 -77 l 500 -117 l 79 1139 l 186 1174 l 609 -77 z "},"]":{"ha":755,"x_min":109,"x_max":559,"o":"m 559 1071 l 559 0 l 109 0 l 109 97 l 429 97 l 429 974 l 109 974 l 109 1071 l 559 1071 z "},"^":{"ha":968,"x_min":254,"x_max":715,"o":"m 517 686 l 715 346 l 628 293 l 484 549 l 340 293 l 254 346 l 452 686 l 517 686 z "},"_":{"ha":858,"x_min":86,"x_max":724,"o":"m 86 -75 l 86 22 l 724 22 l 724 -75 l 86 -75 z "},"`":{"ha":528,"x_min":60,"x_max":328,"o":"m 60 437 l 224 498 l 328 79 l 282 61 l 60 437 z "},"a":{"ha":814,"x_min":68,"x_max":723,"o":"m 414 714 q 350 709 383 714 q 283 693 316 703 q 219 667 250 682 q 163 632 189 652 l 117 722 q 189 759 156 743 q 257 785 222 774 q 329 802 291 796 q 414 807 366 807 q 577 785 516 807 q 671 715 639 762 q 713 596 703 669 q 723 423 723 524 l 723 0 l 628 0 l 609 121 q 490 18 559 50 q 334 -14 420 -14 q 224 2 273 -14 q 140 48 175 18 q 87 125 106 79 q 68 233 68 172 q 91 338 68 292 q 151 418 113 385 q 239 468 189 450 q 345 485 290 485 q 447 479 401 485 q 525 468 492 474 q 576 456 558 461 l 594 451 q 591 571 594 521 q 572 653 589 621 q 518 699 555 684 q 414 714 481 714 m 366 79 q 483 106 428 79 q 594 184 538 132 l 594 386 q 538 393 566 390 q 488 398 515 395 q 437 400 460 400 q 345 395 388 400 q 269 373 301 390 q 217 324 236 356 q 198 239 198 292 q 210 161 198 192 q 244 112 222 130 q 297 86 267 94 q 366 79 328 79 z "},"b":{"ha":850,"x_min":98,"x_max":782,"o":"m 467 79 q 613 161 563 79 q 663 416 663 243 q 649 550 663 494 q 611 643 636 606 q 549 697 585 680 q 467 714 513 714 q 348 688 408 714 q 227 612 288 663 l 227 185 q 467 79 340 79 m 460 -14 q 392 -4 426 -14 q 327 23 359 5 q 266 65 295 41 q 212 121 237 90 l 193 0 l 98 0 l 98 1071 l 227 1095 l 227 699 q 283 746 253 726 q 344 780 314 766 q 402 800 374 793 q 450 807 429 807 q 696 711 611 807 q 782 416 782 614 q 755 206 782 289 q 685 75 729 123 q 582 6 640 26 q 460 -14 524 -14 z "},"c":{"ha":726,"x_min":68,"x_max":678,"o":"m 413 -14 q 272 13 336 -14 q 164 92 209 40 q 94 219 119 144 q 68 393 68 295 q 91 552 68 477 q 158 684 114 627 q 267 774 202 741 q 415 807 332 807 q 557 785 490 807 q 678 724 623 763 l 640 634 q 598 666 623 651 q 546 691 574 680 q 489 708 518 702 q 433 714 459 714 q 310 681 357 707 q 239 612 264 655 q 205 513 214 570 q 197 388 197 456 q 213 253 197 311 q 256 157 228 195 q 324 99 284 118 q 413 79 363 79 q 485 85 454 79 q 543 102 517 91 q 593 130 570 113 q 640 166 616 146 l 678 75 q 627 43 654 59 q 567 15 600 27 q 495 -6 534 2 q 413 -14 457 -14 z "},"d":{"ha":854,"x_min":68,"x_max":758,"o":"m 192 396 q 207 244 192 305 q 250 147 222 184 q 314 95 277 111 q 394 79 351 79 q 454 86 423 79 q 516 106 486 93 q 576 139 547 119 q 629 186 605 159 l 629 612 q 572 652 601 633 q 514 685 544 671 q 454 706 485 699 q 390 714 423 714 q 294 689 332 714 q 234 621 256 665 q 201 520 211 578 q 192 396 192 462 m 372 807 q 515 781 450 807 q 629 697 580 755 l 629 1071 l 758 1095 l 758 0 l 663 0 l 644 121 q 593 68 621 93 q 532 25 565 43 q 464 -3 500 7 q 391 -14 429 -14 q 253 16 313 -14 q 152 100 193 45 q 90 234 111 155 q 68 412 68 313 q 90 563 68 492 q 151 689 111 635 q 247 775 191 743 q 372 807 303 807 z "},"e":{"ha":776,"x_min":68,"x_max":718,"o":"m 682 68 q 620 34 654 49 q 550 8 585 18 q 481 -8 514 -3 q 424 -14 448 -14 q 268 16 334 -14 q 157 100 201 46 q 91 228 113 154 q 68 392 68 302 q 90 548 68 473 q 153 680 111 623 q 258 772 195 738 q 403 807 320 807 q 539 784 480 807 q 637 716 597 760 q 698 608 677 672 q 718 464 718 545 q 717 422 718 442 q 713 385 715 402 l 197 385 q 214 241 197 300 q 260 147 230 183 q 335 95 291 111 q 435 79 379 79 q 494 84 467 79 q 546 99 522 90 q 592 124 570 109 q 640 159 615 139 l 682 68 m 604 486 q 591 583 604 541 q 553 654 577 625 q 495 699 528 684 q 421 714 461 714 q 328 694 368 714 q 260 641 288 675 q 217 561 233 607 q 197 463 202 515 l 604 463 l 604 486 z "},"f":{"ha":568,"x_min":26,"x_max":552,"o":"m 387 1028 q 327 1011 347 1028 q 297 963 306 994 q 288 888 288 932 q 287 793 287 845 l 523 793 l 523 722 l 287 722 l 287 0 l 158 0 l 158 722 l 26 722 l 26 793 l 158 793 q 171 947 158 884 q 210 1049 183 1010 q 276 1107 236 1089 q 372 1125 317 1125 q 465 1111 420 1125 q 552 1071 511 1096 l 509 986 q 451 1015 481 1002 q 387 1028 420 1028 z "},"g":{"ha":852,"x_min":92,"x_max":805,"o":"m 389 -188 q 513 -184 458 -188 q 606 -167 568 -181 q 663 -124 644 -153 q 683 -45 683 -95 q 664 26 683 0 q 611 66 646 52 q 526 83 576 79 q 414 87 476 87 q 349 86 383 87 q 278 86 315 86 q 250 62 264 75 q 224 32 235 48 q 206 -3 213 16 q 199 -43 199 -22 q 208 -111 199 -83 q 240 -156 218 -138 q 298 -180 262 -173 q 389 -188 334 -188 m 427 399 q 494 418 464 408 q 544 447 524 428 q 576 499 565 467 q 587 583 587 531 q 576 647 587 621 q 544 688 566 673 q 489 711 522 704 q 412 718 456 718 q 343 711 376 718 q 286 689 310 705 q 247 645 261 673 q 232 573 232 616 q 242 512 232 541 q 270 458 253 483 q 307 416 286 434 q 349 387 328 397 l 427 399 m 644 695 q 684 644 669 669 q 699 583 699 618 q 685 485 699 529 q 642 409 671 441 q 567 354 613 376 q 456 320 522 332 l 219 277 l 232 176 l 429 176 q 593 165 524 176 q 707 127 663 154 q 772 58 751 101 q 793 -47 793 16 q 763 -169 793 -121 q 678 -242 732 -216 q 548 -279 623 -269 q 381 -290 472 -290 q 265 -277 318 -290 q 173 -237 212 -264 q 113 -168 134 -210 q 92 -64 92 -125 q 103 -5 92 -31 q 133 42 115 22 q 175 75 151 62 q 222 96 198 89 q 179 112 197 102 q 151 142 162 123 q 132 192 139 161 q 121 269 125 222 q 121 279 121 271 q 137 321 121 305 q 174 346 153 337 q 219 360 196 355 q 256 368 242 364 q 207 394 231 375 q 164 441 183 413 q 134 504 146 469 q 123 579 123 539 q 142 674 123 632 q 199 746 162 716 q 291 791 237 775 q 415 807 346 807 q 517 795 470 807 q 598 755 564 784 q 641 776 624 768 q 676 788 658 784 q 719 794 694 793 q 785 795 744 795 l 805 795 l 805 695 l 644 695 z "},"h":{"ha":861,"x_min":98,"x_max":767,"o":"m 227 671 q 297 739 264 712 q 360 780 330 765 q 423 801 391 795 q 492 807 455 807 q 598 793 554 807 q 673 754 642 779 q 722 694 703 729 q 750 616 741 659 q 764 524 760 573 q 767 422 767 475 l 767 0 l 638 0 l 638 422 q 632 553 638 498 q 609 644 626 608 q 562 697 592 680 q 481 714 531 714 q 399 702 439 714 q 325 673 359 690 q 266 636 291 656 q 227 602 240 617 l 227 0 l 98 0 l 98 1071 l 227 1096 l 227 671 z "},"i":{"ha":358,"x_min":106,"x_max":256,"o":"m 118 0 l 118 793 l 241 793 l 241 0 l 118 0 m 106 991 q 112 1022 106 1008 q 128 1046 118 1036 q 152 1063 138 1057 q 181 1069 165 1069 q 211 1063 197 1069 q 235 1046 224 1057 q 250 1021 245 1035 q 256 991 256 1006 q 250 961 256 975 q 234 937 244 947 q 210 920 224 926 q 181 913 197 913 q 151 920 165 913 q 127 937 138 926 q 112 962 117 948 q 106 991 106 976 z "},"j":{"ha":370,"x_min":13,"x_max":279,"o":"m 130 991 q 136 1022 130 1008 q 152 1046 142 1036 q 176 1063 162 1057 q 205 1069 189 1069 q 235 1063 221 1069 q 258 1046 248 1057 q 274 1021 269 1035 q 279 991 279 1006 q 274 961 279 975 q 258 937 268 947 q 234 920 248 926 q 205 913 220 913 q 175 920 189 913 q 151 937 161 926 q 136 962 141 948 q 130 991 130 976 m 13 -175 q 83 -113 58 -146 q 122 -38 109 -79 q 137 53 134 3 q 140 161 140 102 l 140 231 l 140 793 l 269 793 l 269 104 q 254 -25 269 35 q 210 -132 239 -85 q 139 -209 180 -178 q 45 -253 98 -240 l 13 -175 z "},"k":{"ha":831,"x_min":98,"x_max":781,"o":"m 227 0 l 98 0 l 98 1071 l 227 1095 l 227 425 l 606 793 l 758 793 l 383 439 l 781 0 l 631 0 l 305 376 l 227 311 l 227 0 z "},"l":{"ha":345,"x_min":107,"x_max":236,"o":"m 236 0 l 107 0 l 107 1071 l 236 1095 l 236 0 z "},"m":{"ha":1316,"x_min":98,"x_max":1222,"o":"m 227 0 l 98 0 l 98 793 l 193 793 l 212 653 q 261 717 233 688 q 324 765 290 745 q 397 796 358 785 q 479 807 436 807 q 558 795 523 807 q 621 763 593 783 q 666 715 648 743 q 696 656 685 688 q 751 718 719 690 q 820 765 783 745 q 898 796 857 785 q 981 807 939 807 q 1085 785 1040 807 q 1161 725 1131 764 q 1207 634 1192 687 q 1222 519 1222 582 l 1222 0 l 1093 0 l 1093 521 q 1083 620 1093 582 q 1054 679 1072 658 q 1012 707 1036 699 q 962 714 988 714 q 839 680 899 714 q 716 582 779 646 l 716 0 l 587 0 l 587 521 q 581 604 587 568 q 561 664 575 640 q 521 702 546 689 q 457 714 496 714 q 347 681 404 714 q 227 583 290 647 l 227 0 z "},"n":{"ha":859,"x_min":98,"x_max":765,"o":"m 209 666 q 263 716 229 691 q 337 762 297 741 q 421 794 378 782 q 505 807 465 807 q 626 786 576 807 q 706 724 675 764 q 751 625 737 684 q 765 493 765 567 l 765 0 l 636 0 l 636 493 q 628 586 636 545 q 602 655 620 627 q 554 699 583 684 q 482 714 525 714 q 411 701 450 714 q 336 670 372 688 q 271 631 300 652 q 227 597 241 611 l 227 0 l 98 0 l 98 793 l 193 793 l 209 666 z "},"o":{"ha":857,"x_min":69,"x_max":788,"o":"m 429 64 q 514 78 478 64 q 577 116 551 92 q 620 172 603 140 q 647 240 637 204 q 661 313 657 275 q 665 385 665 350 q 661 456 665 419 q 647 529 657 493 q 620 596 637 564 q 577 652 603 628 q 514 690 551 676 q 429 704 477 704 q 345 690 381 704 q 282 651 309 675 q 239 595 256 627 q 212 528 222 564 q 197 456 201 493 q 193 385 193 418 q 197 313 193 350 q 212 240 201 276 q 239 173 222 205 q 282 117 256 141 q 345 79 309 93 q 429 64 381 64 m 788 387 q 781 290 788 339 q 758 195 774 241 q 715 109 742 149 q 649 39 688 68 q 554 -8 609 9 q 429 -26 500 -26 q 303 -8 357 -26 q 209 39 248 9 q 142 109 169 68 q 99 195 115 149 q 76 290 83 241 q 69 387 69 338 q 76 484 69 435 q 99 579 83 533 q 142 665 115 625 q 209 734 169 705 q 303 781 248 764 q 429 798 357 798 q 554 781 500 798 q 649 734 609 764 q 715 665 688 705 q 758 579 742 625 q 781 484 774 533 q 788 387 788 435 z "},"p":{"ha":857,"x_min":98,"x_max":788,"o":"m 474 714 q 408 706 442 714 q 341 683 374 697 q 278 648 308 668 q 227 604 249 627 l 227 193 q 273 150 245 170 q 332 113 300 129 q 397 89 363 98 q 460 79 430 79 q 559 104 519 79 q 622 171 598 129 q 655 267 645 212 q 665 380 665 321 q 650 532 665 469 q 610 635 635 595 q 550 695 585 676 q 474 714 515 714 m 465 -14 q 397 -4 431 -14 q 332 23 363 6 q 274 63 301 40 q 227 111 247 85 l 227 -315 l 98 -330 l 98 793 l 193 793 l 216 659 q 267 716 239 689 q 328 763 296 743 q 393 795 359 783 q 462 807 427 807 q 593 785 533 807 q 696 714 653 763 q 764 587 739 665 q 788 398 788 509 q 780 301 788 350 q 756 206 772 252 q 714 120 740 160 q 652 51 688 80 q 570 4 616 21 q 465 -14 524 -14 z "},"q":{"ha":854,"x_min":68,"x_max":758,"o":"m 405 79 q 466 90 433 79 q 530 116 499 100 q 588 149 562 132 q 629 182 614 167 l 629 604 q 573 649 605 629 q 507 684 541 669 q 440 706 473 698 q 381 714 407 714 q 286 688 323 714 q 228 617 249 661 q 200 515 208 573 q 192 396 192 458 q 204 254 192 313 q 243 155 217 194 q 309 98 269 117 q 405 79 349 79 m 387 807 q 462 794 425 807 q 532 761 499 782 q 593 714 566 741 q 641 659 621 687 l 664 793 l 758 793 l 758 -325 l 629 -340 l 629 111 q 584 64 610 87 q 527 24 558 41 q 460 -3 496 7 q 385 -14 425 -14 q 245 19 304 -14 q 146 109 186 52 q 88 241 107 165 q 68 402 68 317 q 84 560 68 486 q 137 688 100 633 q 235 775 174 743 q 387 807 296 807 z "},"r":{"ha":545,"x_min":98,"x_max":501,"o":"m 215 663 q 262 718 238 691 q 312 764 286 744 q 368 795 338 783 q 433 807 397 807 q 501 799 471 807 l 501 696 q 494 697 500 696 q 478 698 488 698 q 456 699 469 699 q 432 699 444 699 q 376 689 404 699 q 322 664 348 680 q 272 630 296 649 q 227 590 248 610 l 227 0 l 98 0 l 98 793 l 195 793 l 215 663 z "},"s":{"ha":673,"x_min":63,"x_max":627,"o":"m 229 396 q 164 426 195 408 q 111 469 134 444 q 76 526 89 494 q 63 597 63 557 q 85 690 63 650 q 144 755 107 730 q 227 794 180 781 q 324 807 274 807 q 411 798 369 807 q 489 777 454 789 q 551 749 525 764 q 591 724 578 734 l 549 638 q 453 692 508 670 q 333 714 397 714 q 263 705 293 714 q 212 681 233 696 q 182 646 192 665 q 172 604 172 626 q 201 542 172 566 q 283 500 231 518 l 397 460 q 491 420 449 441 q 564 370 534 398 q 611 304 594 341 q 627 220 627 268 q 613 136 627 178 q 565 60 598 94 q 479 6 532 27 q 349 -14 427 -14 q 251 -5 296 -14 q 171 18 206 5 q 110 46 136 31 q 70 71 84 60 l 113 157 q 153 131 127 144 q 209 106 178 117 q 273 87 240 94 q 337 79 307 79 q 390 85 359 79 q 447 104 420 90 q 492 144 473 119 q 511 208 511 169 q 501 255 511 235 q 474 292 492 276 q 433 320 457 308 q 381 342 410 332 l 229 396 z "},"t":{"ha":580,"x_min":23,"x_max":541,"o":"m 329 -14 q 233 6 269 -14 q 178 65 197 26 q 153 162 159 104 q 147 296 147 220 l 147 722 l 23 722 l 23 793 l 149 793 l 166 1038 l 276 1069 l 276 793 l 502 793 l 502 722 l 276 722 l 276 200 q 280 140 276 163 q 292 103 283 117 q 316 84 301 90 q 352 79 330 79 q 409 93 376 79 q 496 138 441 107 l 541 54 q 430 2 481 18 q 329 -14 378 -14 z "},"u":{"ha":842,"x_min":91,"x_max":746,"o":"m 220 300 q 230 199 220 241 q 261 131 241 157 q 310 92 281 104 q 377 79 339 79 q 439 85 409 79 q 498 103 469 90 q 556 136 527 116 q 617 186 585 156 l 617 793 l 746 793 l 746 0 l 650 0 l 632 119 q 588 75 613 98 q 530 32 562 52 q 460 -1 498 12 q 376 -14 421 -14 q 255 4 308 -14 q 165 60 202 22 q 110 157 129 98 q 91 300 91 216 l 91 793 l 220 793 l 220 300 z "},"v":{"ha":769,"x_min":31,"x_max":739,"o":"m 321 0 l 31 793 l 158 793 l 386 135 l 610 793 l 739 793 l 447 0 l 321 0 z "},"w":{"ha":1115,"x_min":31,"x_max":1084,"o":"m 558 675 l 387 0 l 248 0 l 31 793 l 155 793 l 314 84 l 489 793 l 626 793 l 795 83 l 958 793 l 1084 793 l 867 0 l 728 0 l 558 675 z "},"x":{"ha":764,"x_min":43,"x_max":720,"o":"m 190 0 l 46 0 l 323 396 l 43 793 l 190 793 l 381 476 l 578 793 l 720 793 l 445 396 l 715 0 l 576 0 l 385 323 l 190 0 z "},"y":{"ha":762,"x_min":31,"x_max":731,"o":"m 31 793 l 154 793 l 395 169 l 599 793 l 731 793 l 435 -25 q 393 -118 416 -77 q 346 -188 370 -158 q 297 -239 321 -218 q 250 -273 273 -260 q 140 -311 196 -306 l 106 -227 q 180 -201 146 -217 q 243 -157 215 -185 q 295 -87 272 -130 q 336 16 319 -45 l 31 793 z "},"z":{"ha":694,"x_min":70,"x_max":614,"o":"m 90 702 l 90 793 l 614 793 l 614 681 l 189 92 l 614 92 l 614 0 l 70 0 l 70 113 l 503 702 l 90 702 z "},"{":{"ha":558,"x_min":64,"x_max":503,"o":"m 342 743 q 332 627 340 676 q 304 542 323 577 q 254 485 285 507 q 178 451 223 463 q 253 417 222 439 q 303 360 284 395 q 332 276 323 326 q 342 159 340 227 q 356 56 342 94 q 391 1 369 19 q 441 -22 412 -18 q 503 -27 471 -27 l 503 -142 q 292 -62 359 -142 q 226 178 226 18 q 214 274 226 235 q 181 339 202 314 q 130 376 159 364 q 64 387 100 387 l 64 515 q 131 526 101 515 q 182 563 161 538 q 214 628 203 588 q 226 724 226 667 q 292 964 226 884 q 503 1044 359 1044 l 503 929 q 441 924 471 929 q 391 901 412 920 q 356 846 369 883 q 342 743 342 808 z "},"|":{"ha":424,"x_min":152,"x_max":273,"o":"m 152 1150 l 273 1150 l 273 -75 l 152 -75 l 152 1150 z "},"}":{"ha":561,"x_min":85,"x_max":524,"o":"m 246 743 q 232 846 245 808 q 197 901 219 883 q 146 924 176 920 q 85 929 117 929 l 85 1044 q 296 964 229 1044 q 362 724 362 884 q 374 628 362 667 q 406 563 385 588 q 457 526 427 538 q 524 515 487 515 l 524 387 q 458 376 488 387 q 407 339 429 364 q 374 274 386 314 q 362 178 362 235 q 296 -62 362 18 q 85 -142 229 -142 l 85 -27 q 146 -22 117 -27 q 197 1 176 -18 q 232 56 219 19 q 246 159 245 94 q 256 276 247 227 q 284 360 265 326 q 335 417 304 395 q 410 451 366 439 q 334 485 365 463 q 284 542 303 507 q 256 627 264 577 q 246 743 247 676 z "},"~":{"ha":610,"x_min":63,"x_max":578,"o":"m 445 264 q 440 264 442 264 q 393 271 416 264 q 342 288 368 277 q 294 310 314 300 q 259 328 274 320 q 233 340 244 336 q 214 345 222 345 q 179 329 189 345 q 169 267 169 312 l 63 267 q 74 351 63 317 q 103 406 84 385 q 147 435 121 426 q 203 444 173 444 q 261 430 231 444 q 321 401 291 417 q 379 372 351 385 q 434 359 408 359 q 456 367 448 359 q 468 386 464 374 q 472 411 471 397 q 473 434 473 424 l 578 434 q 570 366 578 397 q 545 312 562 334 q 503 277 528 290 q 445 264 477 264 z "}," ":{"ha":347,"x_min":0,"x_max":0,"o":""},"¡":{"ha":536,"x_min":216,"x_max":361,"o":"m 340 0 l 233 0 l 233 800 l 340 800 l 340 0 m 216 989 q 218 1033 216 1017 q 224 1058 219 1050 q 237 1069 229 1067 q 261 1072 246 1072 q 313 1070 293 1072 q 343 1065 332 1069 q 357 1054 353 1061 q 361 1036 361 1047 q 359 1015 361 1027 q 358 989 358 1003 q 357 959 358 970 q 353 942 356 948 q 344 935 350 937 q 328 933 338 933 q 315 933 322 933 q 301 934 309 934 l 216 934 l 216 989 z "},"¢":{"ha":772,"x_min":96,"x_max":706,"o":"m 225 393 q 237 271 225 326 q 273 178 249 217 q 333 115 296 138 q 418 87 369 92 l 418 703 q 331 672 368 696 q 272 607 295 647 q 237 512 248 566 q 225 393 225 458 m 418 -15 q 281 21 340 -9 q 180 105 221 52 q 118 231 139 157 q 96 393 96 304 q 118 557 96 484 q 180 683 139 630 q 281 768 222 736 q 418 806 341 800 l 418 901 l 488 901 l 488 804 q 543 798 513 804 q 601 782 572 792 q 657 758 630 771 q 706 730 684 745 l 667 640 q 581 686 626 669 q 488 704 536 703 l 488 88 q 581 102 536 90 q 667 139 625 115 l 699 46 q 655 26 680 36 q 602 7 630 16 q 544 -7 573 -2 q 488 -13 514 -13 l 488 -108 l 418 -108 l 418 -15 z "},"£":{"ha":765,"x_min":103,"x_max":705,"o":"m 140 93 q 175 145 157 113 q 205 218 192 177 q 228 307 219 258 q 237 409 237 355 l 103 409 l 103 479 l 218 479 q 162 564 182 517 q 142 673 142 612 q 166 779 142 736 q 232 848 190 822 q 333 885 275 874 q 458 897 391 897 q 586 878 524 897 q 705 827 647 860 l 671 738 q 557 783 613 765 q 447 800 500 800 q 309 766 353 800 q 265 663 265 731 q 270 607 265 631 q 285 563 275 583 q 310 522 295 542 q 344 479 324 502 l 634 479 l 634 409 l 344 409 q 338 317 344 362 q 321 231 332 271 q 295 156 310 190 q 263 97 280 121 l 681 97 l 681 0 l 140 0 l 140 93 z "},"¤":{"ha":926,"x_min":91,"x_max":834,"o":"m 218 503 q 172 658 172 574 q 222 819 172 744 l 91 951 l 175 1035 l 307 904 q 469 956 382 956 q 624 909 553 956 l 750 1035 l 834 951 l 707 824 q 749 673 749 758 q 697 513 749 589 l 834 376 l 750 292 l 612 429 q 454 378 538 378 q 303 420 369 378 l 175 292 l 91 376 l 218 503 m 465 859 q 390 842 426 859 q 328 799 355 826 q 285 735 301 771 q 269 661 269 700 q 283 588 269 623 q 324 529 298 554 q 384 489 350 503 q 456 474 418 474 q 530 490 494 474 q 592 534 565 507 q 636 596 620 561 q 652 671 652 632 q 637 744 652 709 q 597 803 623 778 q 537 844 572 829 q 465 859 503 859 z "},"¥":{"ha":866,"x_min":28,"x_max":861,"o":"m 729 1071 l 861 1071 l 534 467 l 713 467 l 713 396 l 512 396 l 512 331 l 713 331 l 713 264 l 512 264 l 512 0 l 383 0 l 383 264 l 178 264 l 178 331 l 383 331 l 383 396 l 178 396 l 178 467 l 355 467 l 28 1071 l 159 1071 l 444 534 l 729 1071 z "},"¦":{"ha":434,"x_min":169,"x_max":296,"o":"m 169 1071 l 296 1071 l 296 603 l 169 603 l 169 1071 m 169 468 l 296 468 l 296 0 l 169 0 l 169 468 z "},"§":{"ha":808,"x_min":153,"x_max":688,"o":"m 418 407 q 475 411 446 407 q 527 425 504 414 q 564 456 550 436 q 578 509 578 477 q 565 563 578 542 q 529 595 551 583 q 477 610 507 606 q 416 614 448 614 q 351 609 380 614 q 301 591 322 604 q 269 559 280 578 q 257 511 257 539 q 297 432 257 458 q 418 407 338 407 m 614 892 q 521 946 570 927 q 415 966 473 966 q 296 940 333 966 q 258 862 258 915 q 272 822 258 838 q 313 792 286 806 q 379 766 340 779 q 469 734 418 753 q 557 696 517 717 q 626 650 597 676 q 671 590 655 624 q 687 513 687 557 q 671 439 687 468 q 631 393 656 410 q 576 367 606 375 q 518 354 547 358 q 600 315 567 336 q 652 267 632 294 q 680 206 671 240 q 688 130 688 172 q 669 54 688 90 q 614 -9 649 18 q 530 -52 578 -36 q 423 -67 481 -67 q 334 -58 377 -67 q 256 -36 291 -49 q 195 -10 220 -24 q 159 14 170 4 l 201 107 q 249 72 221 86 q 303 49 276 58 q 355 37 331 41 q 395 34 380 34 q 528 61 482 34 q 574 151 574 88 q 565 200 574 180 q 539 233 555 220 q 500 256 523 247 q 451 275 477 265 l 342 311 q 270 339 304 324 q 209 377 235 355 q 168 431 183 399 q 153 509 153 463 q 161 569 153 541 q 190 619 170 597 q 243 655 210 641 q 326 675 277 669 q 240 713 273 694 q 187 757 207 733 q 160 810 168 781 q 153 879 153 840 q 177 963 153 928 q 238 1020 201 998 q 322 1054 276 1043 q 413 1064 369 1064 q 479 1056 443 1064 q 550 1037 515 1048 q 612 1011 584 1025 q 654 985 640 997 l 614 892 z "},"¨":{"ha":646,"x_min":82,"x_max":566,"o":"m 82 146 q 87 176 82 161 q 103 200 93 190 q 127 218 113 211 q 158 224 141 224 q 189 217 175 224 q 213 200 203 211 q 229 176 223 190 q 234 146 234 161 q 229 116 234 130 q 213 91 223 102 q 189 74 203 80 q 158 68 175 68 q 127 74 141 68 q 103 91 113 80 q 87 116 93 102 q 82 146 82 130 m 414 146 q 419 176 414 161 q 435 200 425 190 q 459 218 445 211 q 490 224 473 224 q 520 217 507 224 q 545 200 534 211 q 560 176 555 190 q 566 146 566 161 q 560 116 566 130 q 545 91 555 102 q 520 74 534 80 q 490 68 507 68 q 459 74 473 68 q 435 91 445 80 q 419 116 425 102 q 414 146 414 130 z "},"©":{"ha":1425,"x_min":111,"x_max":1298,"o":"m 705 68 q 906 107 815 68 q 1062 213 997 146 q 1162 369 1126 279 q 1198 562 1198 459 q 1177 706 1198 639 q 1122 828 1157 772 q 1039 926 1087 883 q 937 999 991 969 q 823 1044 882 1028 q 705 1059 764 1059 q 585 1044 645 1059 q 471 998 526 1028 q 369 925 416 968 q 287 827 321 882 q 232 705 252 772 q 212 562 212 639 q 247 369 212 459 q 348 213 283 279 q 503 107 412 146 q 705 68 594 68 m 486 564 q 500 443 486 491 q 544 366 515 395 q 617 326 573 338 q 720 315 661 315 q 920 366 817 315 l 920 281 q 730 228 816 228 q 555 256 624 228 q 447 332 486 285 q 391 439 407 378 q 376 564 376 499 q 382 648 376 606 q 405 726 389 689 q 447 795 420 764 q 512 850 473 827 q 605 886 551 873 q 730 899 659 899 q 920 846 816 899 l 920 761 q 720 812 817 812 q 617 801 661 812 q 544 761 573 789 q 500 684 515 732 q 486 564 486 636 m 705 -16 q 556 3 629 -16 q 417 56 483 21 q 295 141 351 90 q 198 256 239 191 q 134 397 157 320 q 111 563 111 474 q 135 729 111 652 q 201 871 159 806 q 300 986 243 935 q 422 1072 357 1037 q 560 1126 488 1107 q 705 1144 632 1144 q 849 1125 777 1144 q 988 1072 922 1107 q 1111 985 1054 1036 q 1209 870 1167 935 q 1274 728 1251 806 q 1298 563 1298 651 q 1276 399 1298 476 q 1213 259 1253 323 q 1117 143 1173 195 q 996 57 1061 92 q 856 3 930 22 q 705 -16 782 -16 z "},"ª":{"ha":804,"x_min":140,"x_max":651,"o":"m 554 562 q 543 545 553 562 q 510 507 533 528 q 449 470 487 487 q 355 453 411 453 q 265 466 304 453 q 197 505 225 479 q 155 567 170 530 q 140 651 140 604 q 157 738 140 700 q 207 801 175 775 q 284 840 239 827 q 383 853 329 853 q 440 850 412 853 q 491 842 469 846 q 527 832 513 837 q 542 826 541 828 l 542 865 q 537 935 542 905 q 519 985 533 965 q 480 1016 505 1006 q 412 1026 454 1026 q 336 1019 372 1026 q 274 1002 300 1011 q 231 986 247 994 q 214 979 215 979 l 178 1053 q 197 1062 179 1053 q 245 1082 214 1071 q 317 1102 275 1093 q 406 1111 358 1111 q 522 1096 475 1111 q 598 1048 569 1081 q 639 963 627 1015 q 651 838 651 911 l 651 465 l 572 465 l 554 562 m 542 774 q 477 782 507 779 q 422 785 448 785 q 249 659 249 785 q 256 598 249 623 q 278 558 262 574 q 318 536 293 543 q 380 530 343 530 q 448 542 418 530 q 498 570 477 555 q 531 598 519 585 q 542 612 542 611 l 542 774 m 183 390 l 647 390 l 647 302 l 183 302 l 183 390 z "},"«":{"ha":1040,"x_min":102,"x_max":926,"o":"m 630 391 l 926 208 l 926 67 l 514 326 l 514 452 l 926 711 l 926 571 l 630 391 m 218 391 l 514 208 l 514 67 l 102 326 l 102 452 l 514 711 l 514 571 l 218 391 z "},"¬":{"ha":1169,"x_min":64,"x_max":982,"o":"m 64 690 l 64 793 l 982 793 l 982 229 l 863 229 l 863 690 l 64 690 z "},"­":{"ha":586,"x_min":104,"x_max":422,"o":"m 104 345 l 104 433 l 422 433 l 422 345 l 104 345 z "},"®":{"ha":905,"x_min":69,"x_max":869,"o":"m 69 751 q 100 900 69 830 q 184 1022 130 970 q 310 1105 237 1074 q 469 1135 383 1135 q 626 1105 553 1135 q 752 1024 699 1076 q 838 902 806 972 q 869 751 869 831 q 838 601 869 671 q 753 479 807 531 q 626 397 699 427 q 469 368 553 368 q 310 398 383 368 q 183 480 237 428 q 99 602 130 532 q 69 751 69 672 m 468 435 q 596 459 538 435 q 697 527 655 484 q 763 627 739 570 q 786 750 786 684 q 762 875 786 817 q 696 975 739 932 q 596 1042 654 1018 q 468 1066 537 1066 q 340 1042 398 1066 q 240 975 282 1017 q 175 874 199 932 q 152 749 152 817 q 175 625 152 683 q 240 525 198 568 q 339 459 281 483 q 468 435 397 435 m 553 844 q 548 869 553 859 q 528 886 543 880 q 486 896 513 893 q 418 899 460 899 l 418 780 q 447 780 433 780 q 475 779 461 780 q 534 792 515 779 q 553 844 553 805 m 553 541 l 442 724 l 418 724 l 418 547 l 347 547 l 347 955 l 440 955 q 508 950 475 955 q 567 934 541 946 q 608 900 593 922 q 624 844 624 878 q 618 800 624 819 q 600 767 613 781 q 566 746 587 753 q 511 736 544 738 l 616 574 l 553 541 z "},"¯":{"ha":680,"x_min":66,"x_max":529,"o":"m 66 146 l 529 146 l 529 66 l 66 66 l 66 146 z "},"°":{"ha":529,"x_min":97,"x_max":422,"o":"m 97 610 q 109 675 97 645 q 143 726 121 705 q 196 760 165 748 q 262 772 227 772 q 327 760 298 772 q 378 726 357 748 q 411 674 399 704 q 422 610 422 644 q 411 545 422 575 q 378 494 399 515 q 328 460 357 472 q 262 448 298 448 q 195 460 226 448 q 143 494 165 473 q 109 546 121 516 q 97 610 97 575 m 261 711 q 221 703 239 711 q 191 681 203 694 q 170 649 178 667 q 163 610 163 630 q 171 570 163 589 q 192 538 178 552 q 223 516 205 524 q 261 509 241 509 q 300 516 282 509 q 330 538 317 524 q 350 570 343 552 q 357 610 357 589 q 350 649 357 631 q 330 682 343 668 q 300 703 317 695 q 261 711 282 711 z "},"±":{"ha":775,"x_min":140,"x_max":661,"o":"m 163 -38 l 163 56 l 638 56 l 638 -38 l 163 -38 m 448 391 l 448 158 l 352 158 l 352 391 l 140 391 l 140 481 l 352 481 l 352 715 l 448 715 l 448 481 l 661 481 l 661 391 l 448 391 z "},"²":{"ha":764,"x_min":172,"x_max":623,"o":"m 172 546 l 355 709 q 431 779 401 749 q 477 831 460 808 q 500 874 494 854 q 507 918 507 895 q 474 991 507 966 q 384 1017 441 1017 q 316 1012 351 1017 q 252 1000 281 1006 q 183 982 217 992 l 183 1076 q 240 1093 208 1086 q 306 1105 268 1100 q 391 1111 344 1111 q 503 1092 458 1111 q 575 1044 548 1073 q 612 982 602 1016 q 623 920 623 949 q 615 859 623 888 q 588 801 607 830 q 537 739 569 771 q 458 666 506 706 l 329 556 l 604 556 l 604 453 l 172 453 l 172 546 z "},"³":{"ha":819,"x_min":203,"x_max":690,"o":"m 238 505 q 276 488 255 497 q 320 472 296 479 q 372 460 345 465 q 428 456 399 456 q 488 465 460 456 q 535 489 515 473 q 566 528 555 505 q 577 578 577 551 q 534 680 577 642 q 399 727 492 717 l 399 819 q 460 826 431 819 q 513 847 490 833 q 550 885 536 862 q 564 938 564 907 q 527 1017 564 989 q 412 1045 490 1045 q 372 1042 393 1045 q 330 1034 351 1039 q 289 1021 309 1028 q 254 1006 270 1014 l 222 1093 q 239 1100 223 1093 q 281 1116 255 1107 q 342 1131 308 1124 q 416 1137 377 1137 q 469 1134 441 1137 q 526 1121 498 1130 q 580 1099 554 1113 q 625 1063 606 1084 q 657 1013 645 1042 q 669 945 669 983 q 650 865 669 898 q 605 812 631 833 q 550 783 578 792 q 503 774 522 774 q 540 765 519 771 q 582 748 561 758 q 622 721 602 737 q 656 683 642 705 q 681 632 671 661 q 690 566 690 604 q 666 476 690 514 q 604 414 642 438 q 519 378 566 389 q 426 366 472 366 q 309 379 364 366 q 203 419 254 392 l 238 505 z "},"´":{"ha":744,"x_min":332,"x_max":597,"o":"m 332 86 l 439 500 l 597 439 l 370 68 l 332 86 z "},"µ":{"ha":895,"x_min":125,"x_max":791,"o":"m 125 793 l 243 793 l 243 300 q 414 83 243 83 q 502 96 462 83 q 573 126 542 109 q 623 161 604 144 q 650 186 643 178 l 650 793 l 791 793 l 791 11 l 692 11 l 675 115 q 406 -14 559 -14 q 349 -4 375 -14 q 303 19 323 5 q 268 48 283 33 q 243 77 253 64 l 243 -197 l 125 -197 l 125 793 z "},"¶":{"ha":891,"x_min":87,"x_max":765,"o":"m 765 0 l 639 0 l 639 974 l 547 974 l 547 0 l 418 0 l 418 614 q 295 625 355 614 q 189 662 235 635 q 115 734 142 689 q 87 848 87 779 q 101 931 87 896 q 139 991 115 966 q 198 1031 164 1016 q 272 1056 232 1047 q 357 1067 313 1064 q 449 1070 402 1070 l 765 1070 l 765 0 z "},"·":{"ha":351,"x_min":90,"x_max":242,"o":"m 90 441 q 96 471 90 456 q 111 495 101 485 q 135 512 121 506 q 166 519 149 519 q 197 512 183 519 q 221 495 211 506 q 237 471 231 485 q 242 441 242 456 q 237 411 242 425 q 221 386 231 397 q 197 369 211 375 q 166 363 183 363 q 135 369 149 363 q 111 386 121 375 q 96 411 101 397 q 90 441 90 425 z "},"¸":{"ha":390,"x_min":133,"x_max":429,"o":"m 133 -287 q 148 -292 133 -287 q 181 -301 162 -296 q 218 -310 199 -306 q 244 -315 236 -315 q 285 -312 267 -315 q 314 -299 302 -309 q 332 -271 326 -289 q 338 -222 338 -252 q 329 -177 338 -196 q 298 -148 319 -159 q 245 -131 277 -136 q 167 -126 212 -126 l 167 14 l 249 14 l 249 -66 q 323 -75 290 -66 q 379 -103 356 -84 q 416 -151 403 -122 q 429 -222 429 -180 q 388 -348 429 -303 q 258 -392 347 -392 q 192 -384 225 -392 q 133 -366 159 -376 l 133 -287 z "},"¹":{"ha":502,"x_min":81,"x_max":336,"o":"m 222 884 l 106 836 l 81 912 l 241 977 l 336 959 l 336 324 l 222 324 l 222 884 z "},"º":{"ha":865,"x_min":145,"x_max":721,"o":"m 433 454 q 306 480 359 454 q 216 549 252 505 q 163 653 180 593 q 145 781 145 713 q 162 908 145 848 q 215 1013 180 968 q 305 1084 251 1058 q 433 1111 359 1111 q 561 1084 507 1111 q 651 1013 615 1058 q 704 908 686 968 q 721 781 721 848 q 704 654 721 713 q 651 550 686 595 q 561 480 615 506 q 433 454 507 454 m 433 541 q 516 558 481 541 q 572 609 550 576 q 604 685 593 641 q 614 783 614 730 q 604 879 614 834 q 572 956 593 923 q 516 1007 550 988 q 433 1025 481 1025 q 350 1007 384 1025 q 294 956 315 989 q 262 879 272 924 q 252 783 252 835 q 262 686 252 730 q 294 609 272 642 q 350 559 315 577 q 433 541 384 541 m 203 390 l 667 390 l 667 302 l 203 302 l 203 390 z "},"»":{"ha":1040,"x_min":113,"x_max":938,"o":"m 113 711 l 526 452 l 526 326 l 113 67 l 113 208 l 416 391 l 113 571 l 113 711 m 525 711 l 938 452 l 938 326 l 525 67 l 525 208 l 828 391 l 525 571 l 525 711 z "},"¼":{"ha":1232,"x_min":93,"x_max":1140,"o":"m 945 98 l 945 473 l 676 98 l 945 98 m 1038 621 l 1038 98 l 1140 98 l 1140 23 l 1038 23 l 1038 -154 l 939 -170 l 939 23 l 583 23 l 568 98 l 951 642 l 1038 621 m 863 926 l 945 863 l 239 -83 l 158 -20 l 863 926 m 234 958 l 119 909 l 93 972 l 254 1037 l 342 1019 l 342 385 l 234 385 l 234 958 z "},"½":{"ha":1402,"x_min":131,"x_max":1267,"o":"m 1151 349 q 1116 420 1151 396 q 1023 444 1080 444 q 967 439 998 444 q 908 429 937 435 q 858 417 880 422 q 827 409 836 411 l 827 507 q 910 530 860 519 q 1035 541 960 541 q 1147 522 1103 541 q 1219 475 1192 503 q 1257 413 1246 446 q 1267 351 1267 379 q 1259 289 1267 318 q 1232 231 1251 260 q 1182 169 1213 201 q 1103 96 1150 136 l 973 -14 l 1249 -14 l 1249 -117 l 816 -117 l 816 -24 q 908 58 862 17 q 1000 139 954 98 q 1075 209 1046 180 q 1121 261 1105 238 q 1144 304 1138 284 q 1151 349 1151 325 m 272 958 l 157 909 l 131 972 l 292 1037 l 380 1019 l 380 385 l 272 385 l 272 958 m 883 926 l 966 863 l 272 -83 l 178 -20 l 883 926 z "},"¾":{"ha":1464,"x_min":130,"x_max":1348,"o":"m 1153 98 l 1153 473 l 884 98 l 1153 98 m 1245 621 l 1245 98 l 1348 98 l 1348 23 l 1245 23 l 1245 -154 l 1147 -170 l 1147 23 l 791 23 l 776 98 l 1158 642 l 1245 621 m 1064 926 l 1153 863 l 447 -83 l 366 -20 l 1064 926 m 490 938 q 453 1017 490 989 q 338 1045 416 1045 q 298 1042 319 1045 q 256 1034 277 1039 q 215 1021 235 1028 q 180 1006 196 1014 l 148 1093 q 165 1100 149 1093 q 208 1116 181 1107 q 269 1131 234 1124 q 342 1137 303 1137 q 395 1134 367 1137 q 452 1121 424 1130 q 506 1099 480 1113 q 551 1063 532 1084 q 583 1013 571 1042 q 595 945 595 983 q 576 865 595 898 q 531 812 557 833 q 476 783 505 792 q 429 774 448 774 q 466 765 446 771 q 508 748 487 758 q 548 721 528 737 q 583 683 568 705 q 607 632 597 661 q 616 566 616 604 q 591 474 616 512 q 527 412 566 435 q 439 377 488 388 q 344 366 391 366 q 241 380 291 366 q 130 419 191 393 l 164 505 q 202 488 181 497 q 247 472 222 479 q 298 460 271 465 q 354 456 325 456 q 414 465 387 456 q 461 489 441 473 q 492 528 481 505 q 503 578 503 551 q 460 680 503 643 q 326 727 418 717 l 326 819 q 387 826 357 819 q 439 847 416 833 q 476 885 463 862 q 490 938 490 907 z "},"¿":{"ha":836,"x_min":96,"x_max":700,"o":"m 451 923 l 451 1071 l 587 1071 l 587 923 l 451 923 m 225 260 q 275 145 225 181 q 425 109 326 109 q 516 118 473 109 q 590 138 558 127 q 659 168 627 151 l 700 69 q 618 35 663 50 q 531 11 581 21 q 423 0 481 0 q 294 15 353 0 q 190 62 234 31 q 121 143 146 94 q 96 259 96 192 q 112 361 96 316 q 157 441 129 406 q 221 503 184 476 q 298 549 258 529 q 379 585 338 570 q 458 613 420 600 l 458 870 l 580 870 l 580 544 q 423 485 490 513 q 312 423 356 456 q 247 351 269 391 q 225 260 225 312 z "},"À":{"ha":989,"x_min":43,"x_max":946,"o":"m 596 1071 l 946 0 l 811 0 l 728 260 l 261 260 l 178 0 l 43 0 l 393 1071 l 596 1071 m 279 329 l 709 329 l 494 987 l 279 329 m 293 1533 l 457 1593 l 561 1174 l 515 1156 l 293 1533 z "},"Á":{"ha":989,"x_min":43,"x_max":946,"o":"m 596 1071 l 946 0 l 811 0 l 728 260 l 261 260 l 178 0 l 43 0 l 393 1071 l 596 1071 m 279 329 l 709 329 l 494 987 l 279 329 m 454 1181 l 562 1596 l 719 1534 l 492 1164 l 454 1181 z "},"Â":{"ha":989,"x_min":43,"x_max":946,"o":"m 596 1071 l 946 0 l 811 0 l 728 260 l 261 260 l 178 0 l 43 0 l 393 1071 l 596 1071 m 279 329 l 709 329 l 494 987 l 279 329 m 527 1545 l 725 1205 l 638 1152 l 494 1408 l 351 1152 l 264 1205 l 462 1545 l 527 1545 z "},"Ã":{"ha":989,"x_min":43,"x_max":946,"o":"m 596 1071 l 946 0 l 811 0 l 728 260 l 261 260 l 178 0 l 43 0 l 393 1071 l 596 1071 m 279 329 l 709 329 l 494 987 l 279 329 m 623 1168 q 549 1180 585 1168 q 483 1208 514 1193 q 427 1236 452 1223 q 383 1249 401 1249 q 353 1232 363 1249 q 343 1171 343 1215 l 237 1171 q 374 1347 237 1347 q 445 1333 412 1347 q 511 1300 477 1320 q 560 1274 536 1285 q 607 1262 583 1262 q 647 1337 647 1262 l 753 1337 q 744 1267 753 1299 q 718 1214 734 1236 q 676 1180 701 1192 q 623 1168 652 1168 z "},"Ä":{"ha":989,"x_min":43,"x_max":946,"o":"m 596 1071 l 946 0 l 811 0 l 728 260 l 261 260 l 178 0 l 43 0 l 393 1071 l 596 1071 m 279 329 l 709 329 l 494 987 l 279 329 m 253 1241 q 258 1271 253 1257 q 274 1296 264 1285 q 298 1313 284 1306 q 329 1319 312 1320 q 360 1313 346 1319 q 384 1296 374 1306 q 399 1271 394 1285 q 405 1241 405 1257 q 399 1211 405 1225 q 384 1186 394 1197 q 360 1169 374 1175 q 329 1163 346 1163 q 298 1169 312 1163 q 274 1186 284 1175 q 258 1211 264 1197 q 253 1241 253 1225 m 585 1241 q 590 1271 585 1257 q 606 1296 595 1285 q 630 1313 616 1306 q 661 1319 644 1320 q 691 1313 677 1319 q 715 1296 705 1306 q 731 1271 726 1285 q 736 1241 736 1257 q 731 1211 736 1225 q 715 1186 726 1197 q 691 1169 705 1175 q 661 1163 677 1163 q 630 1169 644 1163 q 606 1186 616 1175 q 590 1211 595 1197 q 585 1241 585 1225 z "},"Å":{"ha":989,"x_min":43,"x_max":946,"o":"m 596 1071 l 946 0 l 811 0 l 728 260 l 261 260 l 178 0 l 43 0 l 393 1071 l 596 1071 m 279 329 l 709 329 l 494 987 l 279 329 m 397 1306 q 405 1267 397 1285 q 425 1235 412 1249 q 456 1213 438 1221 q 495 1205 473 1205 q 535 1213 517 1205 q 566 1235 553 1221 q 587 1267 579 1249 q 594 1306 594 1285 q 587 1345 594 1327 q 566 1378 579 1364 q 535 1399 553 1392 q 495 1407 517 1407 q 456 1399 473 1407 q 425 1378 438 1392 q 405 1345 412 1364 q 397 1306 397 1327 m 496 1469 q 561 1456 531 1469 q 613 1422 591 1444 q 648 1370 635 1400 q 660 1305 660 1340 q 648 1242 660 1272 q 613 1191 635 1213 q 561 1156 591 1168 q 496 1143 531 1143 q 430 1156 460 1143 q 377 1191 399 1168 q 343 1242 355 1213 q 331 1305 331 1272 q 343 1370 331 1340 q 377 1422 355 1400 q 430 1456 399 1444 q 496 1469 460 1469 z "},"Æ":{"ha":1319,"x_min":43,"x_max":1258,"o":"m 688 989 l 355 334 l 688 334 l 688 989 m 1239 974 l 800 974 l 800 604 l 1210 604 l 1210 518 l 801 518 l 801 97 l 1258 97 l 1258 0 l 689 0 l 689 252 l 315 252 l 184 0 l 43 0 l 603 1071 l 1239 1071 l 1239 974 z "},"Ç":{"ha":863,"x_min":70,"x_max":823,"o":"m 206 521 q 225 333 206 416 q 282 193 243 250 q 381 104 321 135 q 525 74 441 74 q 625 85 578 74 q 708 111 672 97 q 785 148 750 127 l 823 54 q 734 13 782 31 q 640 -15 694 -3 q 524 -28 586 -28 q 322 10 408 -28 q 181 119 237 48 q 97 291 125 190 q 70 520 70 393 q 79 648 70 582 q 111 778 89 714 q 167 899 132 842 q 253 999 202 956 q 373 1067 304 1042 q 530 1092 441 1092 q 639 1083 589 1092 q 726 1065 689 1075 q 804 1038 768 1053 l 773 939 q 705 964 743 953 q 630 981 673 973 q 534 989 587 989 q 385 954 448 989 q 283 856 323 918 q 225 708 243 793 q 206 521 206 622 m 452 -313 q 467 -318 452 -313 q 499 -327 481 -322 q 536 -337 518 -332 q 563 -341 555 -341 q 604 -338 586 -341 q 633 -325 621 -335 q 651 -297 645 -315 q 657 -249 657 -279 q 647 -204 657 -222 q 617 -174 637 -185 q 564 -158 596 -163 q 486 -153 531 -153 l 486 -13 l 568 -13 l 568 -93 q 642 -102 608 -93 q 698 -130 675 -111 q 734 -178 722 -149 q 747 -248 747 -207 q 706 -374 747 -330 q 576 -418 665 -418 q 511 -410 544 -418 q 452 -393 478 -402 l 452 -313 z "},"È":{"ha":808,"x_min":104,"x_max":770,"o":"m 104 0 l 104 1071 l 762 1071 l 762 974 l 235 974 l 235 604 l 695 604 l 695 526 l 235 526 l 235 97 l 770 97 l 770 0 l 104 0 m 235 1533 l 399 1593 l 503 1174 l 458 1156 l 235 1533 z "},"É":{"ha":808,"x_min":104,"x_max":770,"o":"m 104 0 l 104 1071 l 762 1071 l 762 974 l 235 974 l 235 604 l 695 604 l 695 526 l 235 526 l 235 97 l 770 97 l 770 0 l 104 0 m 396 1181 l 504 1596 l 661 1534 l 435 1164 l 396 1181 z "},"Ê":{"ha":808,"x_min":104,"x_max":770,"o":"m 104 0 l 104 1071 l 762 1071 l 762 974 l 235 974 l 235 604 l 695 604 l 695 526 l 235 526 l 235 97 l 770 97 l 770 0 l 104 0 m 470 1545 l 668 1205 l 581 1152 l 437 1408 l 294 1152 l 207 1205 l 405 1545 l 470 1545 z "},"Ë":{"ha":808,"x_min":104,"x_max":770,"o":"m 104 0 l 104 1071 l 762 1071 l 762 974 l 235 974 l 235 604 l 695 604 l 695 526 l 235 526 l 235 97 l 770 97 l 770 0 l 104 0 m 195 1241 q 201 1271 195 1257 q 216 1296 206 1285 q 240 1313 227 1306 q 271 1319 254 1320 q 302 1313 288 1319 q 326 1296 316 1306 q 342 1271 336 1285 q 347 1241 347 1257 q 342 1211 347 1225 q 326 1186 336 1197 q 302 1169 316 1175 q 271 1163 288 1163 q 240 1169 254 1163 q 216 1186 227 1175 q 201 1211 206 1197 q 195 1241 195 1225 m 527 1241 q 532 1271 527 1257 q 548 1296 538 1285 q 572 1313 558 1306 q 603 1319 586 1320 q 634 1313 620 1319 q 658 1296 648 1306 q 673 1271 668 1285 q 679 1241 679 1257 q 673 1211 679 1225 q 658 1186 668 1197 q 634 1169 648 1175 q 603 1163 620 1163 q 572 1169 586 1163 q 548 1186 558 1175 q 532 1211 538 1197 q 527 1241 527 1225 z "},"Ì":{"ha":530,"x_min":66,"x_max":469,"o":"m 205 76 l 205 991 l 66 991 l 66 1071 l 469 1071 l 469 991 l 329 991 l 329 76 l 469 76 l 469 0 l 66 0 l 66 76 l 205 76 m 66 1533 l 230 1593 l 334 1174 l 288 1156 l 66 1533 z "},"Í":{"ha":530,"x_min":66,"x_max":492,"o":"m 205 76 l 205 991 l 66 991 l 66 1071 l 469 1071 l 469 991 l 329 991 l 329 76 l 469 76 l 469 0 l 66 0 l 66 76 l 205 76 m 227 1181 l 335 1596 l 492 1534 l 266 1164 l 227 1181 z "},"Î":{"ha":530,"x_min":37,"x_max":498,"o":"m 205 76 l 205 991 l 66 991 l 66 1071 l 469 1071 l 469 991 l 329 991 l 329 76 l 469 76 l 469 0 l 66 0 l 66 76 l 205 76 m 300 1545 l 498 1205 l 412 1152 l 268 1408 l 124 1152 l 37 1205 l 235 1545 l 300 1545 z "},"Ï":{"ha":530,"x_min":26,"x_max":510,"o":"m 205 76 l 205 991 l 66 991 l 66 1071 l 469 1071 l 469 991 l 329 991 l 329 76 l 469 76 l 469 0 l 66 0 l 66 76 l 205 76 m 26 1241 q 32 1271 26 1257 q 47 1296 37 1285 q 72 1313 58 1306 q 102 1319 85 1320 q 133 1313 119 1319 q 157 1296 147 1306 q 173 1271 168 1285 q 178 1241 178 1257 q 173 1211 178 1225 q 157 1186 168 1197 q 133 1169 147 1175 q 102 1163 119 1163 q 72 1169 85 1163 q 47 1186 58 1175 q 32 1211 37 1197 q 26 1241 26 1225 m 358 1241 q 363 1271 358 1257 q 379 1296 369 1285 q 403 1313 389 1306 q 434 1319 417 1320 q 465 1313 451 1319 q 489 1296 479 1306 q 505 1271 499 1285 q 510 1241 510 1257 q 505 1211 510 1225 q 489 1186 499 1197 q 465 1169 479 1175 q 434 1163 451 1163 q 403 1169 417 1163 q 379 1186 389 1175 q 363 1211 369 1197 q 358 1241 358 1225 z "},"Ð":{"ha":998,"x_min":-4,"x_max":928,"o":"m 791 535 q 777 713 791 632 q 727 851 762 793 q 631 942 691 909 q 481 974 571 974 l 237 974 l 237 607 l 396 607 l 396 518 l 237 518 l 237 97 l 481 97 q 635 130 574 97 q 730 222 695 163 q 778 361 764 281 q 791 535 791 441 m 928 534 q 917 393 928 461 q 883 266 906 325 q 825 157 861 206 q 740 74 789 109 q 625 19 690 39 q 481 0 561 0 l 106 0 l 106 518 l -4 518 l -4 607 l 106 607 l 106 1071 l 481 1071 q 686 1033 601 1071 q 824 924 770 994 q 903 754 878 853 q 928 534 928 655 z "},"Ñ":{"ha":1083,"x_min":104,"x_max":979,"o":"m 810 0 l 235 952 l 235 0 l 104 0 l 104 1071 l 281 1071 l 847 125 l 847 1071 l 979 1071 l 979 0 l 810 0 m 669 1168 q 596 1180 631 1168 q 530 1208 561 1193 q 474 1236 499 1223 q 430 1249 448 1249 q 400 1232 410 1249 q 390 1171 390 1215 l 284 1171 q 420 1347 284 1347 q 491 1333 459 1347 q 557 1300 524 1320 q 607 1274 583 1285 q 654 1262 630 1262 q 694 1337 694 1262 l 800 1337 q 790 1267 800 1299 q 764 1214 781 1236 q 723 1180 747 1192 q 669 1168 699 1168 z "},"Ò":{"ha":1028,"x_min":69,"x_max":960,"o":"m 960 547 q 951 400 960 472 q 924 265 943 329 q 872 147 905 201 q 789 54 839 93 q 672 -7 740 15 q 514 -29 604 -29 q 355 -6 424 -29 q 238 57 287 16 q 156 153 189 98 q 104 275 123 209 q 77 413 85 340 q 69 562 69 486 q 98 783 69 685 q 183 949 127 881 q 322 1054 239 1018 q 514 1090 406 1090 q 707 1054 623 1090 q 846 947 790 1017 q 931 777 903 878 q 960 547 960 675 m 205 526 q 284 187 205 298 q 514 76 363 76 q 642 100 585 76 q 739 178 699 124 q 801 317 779 231 q 823 526 823 403 q 802 736 823 648 q 743 880 782 824 q 647 963 704 937 q 519 989 591 989 q 386 964 444 989 q 288 883 328 939 q 227 739 248 827 q 205 526 205 651 m 313 1533 l 477 1593 l 581 1174 l 535 1156 l 313 1533 z "},"Ó":{"ha":1028,"x_min":69,"x_max":960,"o":"m 960 547 q 951 400 960 472 q 924 265 943 329 q 872 147 905 201 q 789 54 839 93 q 672 -7 740 15 q 514 -29 604 -29 q 355 -6 424 -29 q 238 57 287 16 q 156 153 189 98 q 104 275 123 209 q 77 413 85 340 q 69 562 69 486 q 98 783 69 685 q 183 949 127 881 q 322 1054 239 1018 q 514 1090 406 1090 q 707 1054 623 1090 q 846 947 790 1017 q 931 777 903 878 q 960 547 960 675 m 205 526 q 284 187 205 298 q 514 76 363 76 q 642 100 585 76 q 739 178 699 124 q 801 317 779 231 q 823 526 823 403 q 802 736 823 648 q 743 880 782 824 q 647 963 704 937 q 519 989 591 989 q 386 964 444 989 q 288 883 328 939 q 227 739 248 827 q 205 526 205 651 m 473 1181 l 581 1596 l 739 1534 l 512 1164 l 473 1181 z "},"Ô":{"ha":1028,"x_min":69,"x_max":960,"o":"m 960 547 q 951 400 960 472 q 924 265 943 329 q 872 147 905 201 q 789 54 839 93 q 672 -7 740 15 q 514 -29 604 -29 q 355 -6 424 -29 q 238 57 287 16 q 156 153 189 98 q 104 275 123 209 q 77 413 85 340 q 69 562 69 486 q 98 783 69 685 q 183 949 127 881 q 322 1054 239 1018 q 514 1090 406 1090 q 707 1054 623 1090 q 846 947 790 1017 q 931 777 903 878 q 960 547 960 675 m 205 526 q 284 187 205 298 q 514 76 363 76 q 642 100 585 76 q 739 178 699 124 q 801 317 779 231 q 823 526 823 403 q 802 736 823 648 q 743 880 782 824 q 647 963 704 937 q 519 989 591 989 q 386 964 444 989 q 288 883 328 939 q 227 739 248 827 q 205 526 205 651 m 547 1545 l 745 1205 l 658 1152 l 514 1408 l 370 1152 l 283 1205 l 481 1545 l 547 1545 z "},"Õ":{"ha":1028,"x_min":69,"x_max":960,"o":"m 960 547 q 951 400 960 472 q 924 265 943 329 q 872 147 905 201 q 789 54 839 93 q 672 -7 740 15 q 514 -29 604 -29 q 355 -6 424 -29 q 238 57 287 16 q 156 153 189 98 q 104 275 123 209 q 77 413 85 340 q 69 562 69 486 q 98 783 69 685 q 183 949 127 881 q 322 1054 239 1018 q 514 1090 406 1090 q 707 1054 623 1090 q 846 947 790 1017 q 931 777 903 878 q 960 547 960 675 m 205 526 q 284 187 205 298 q 514 76 363 76 q 642 100 585 76 q 739 178 699 124 q 801 317 779 231 q 823 526 823 403 q 802 736 823 648 q 743 880 782 824 q 647 963 704 937 q 519 989 591 989 q 386 964 444 989 q 288 883 328 939 q 227 739 248 827 q 205 526 205 651 m 642 1168 q 569 1180 604 1168 q 503 1208 534 1193 q 447 1236 472 1223 q 403 1249 421 1249 q 373 1232 382 1249 q 363 1171 363 1215 l 257 1171 q 393 1347 257 1347 q 464 1333 432 1347 q 530 1300 496 1320 q 579 1274 556 1285 q 627 1262 603 1262 q 667 1337 667 1262 l 772 1337 q 763 1267 772 1299 q 737 1214 754 1236 q 696 1180 720 1192 q 642 1168 672 1168 z "},"Ö":{"ha":1028,"x_min":69,"x_max":960,"o":"m 960 547 q 951 400 960 472 q 924 265 943 329 q 872 147 905 201 q 789 54 839 93 q 672 -7 740 15 q 514 -29 604 -29 q 355 -6 424 -29 q 238 57 287 16 q 156 153 189 98 q 104 275 123 209 q 77 413 85 340 q 69 562 69 486 q 98 783 69 685 q 183 949 127 881 q 322 1054 239 1018 q 514 1090 406 1090 q 707 1054 623 1090 q 846 947 790 1017 q 931 777 903 878 q 960 547 960 675 m 205 526 q 284 187 205 298 q 514 76 363 76 q 642 100 585 76 q 739 178 699 124 q 801 317 779 231 q 823 526 823 403 q 802 736 823 648 q 743 880 782 824 q 647 963 704 937 q 519 989 591 989 q 386 964 444 989 q 288 883 328 939 q 227 739 248 827 q 205 526 205 651 m 273 1241 q 278 1271 273 1257 q 294 1296 283 1285 q 318 1313 304 1306 q 349 1319 332 1320 q 379 1313 366 1319 q 404 1296 393 1306 q 419 1271 414 1285 q 425 1241 425 1257 q 419 1211 425 1225 q 404 1186 414 1197 q 379 1169 393 1175 q 349 1163 366 1163 q 318 1169 332 1163 q 294 1186 304 1175 q 278 1211 283 1197 q 273 1241 273 1225 m 604 1241 q 610 1271 604 1257 q 625 1296 615 1285 q 649 1313 635 1306 q 680 1319 663 1320 q 711 1313 697 1319 q 735 1296 725 1306 q 751 1271 745 1285 q 756 1241 756 1257 q 751 1211 756 1225 q 735 1186 745 1197 q 711 1169 725 1175 q 680 1163 697 1163 q 649 1169 663 1163 q 625 1186 635 1175 q 610 1211 615 1197 q 604 1241 604 1225 z "},"×":{"ha":926,"x_min":189,"x_max":757,"o":"m 258 654 l 473 439 l 688 654 l 757 585 l 542 370 l 757 155 l 688 86 l 473 301 l 258 86 l 189 155 l 404 370 l 189 585 l 258 654 z "},"Ø":{"ha":1029,"x_min":70,"x_max":959,"o":"m 273 33 q 194 101 231 61 q 130 201 157 142 q 86 341 102 260 q 70 532 70 422 q 91 744 70 654 q 148 895 113 833 q 228 996 182 958 q 321 1056 273 1034 q 417 1084 370 1077 q 505 1092 465 1092 q 627 1080 570 1092 q 730 1043 683 1068 l 783 1160 l 851 1131 l 793 1002 q 869 916 838 966 q 921 806 901 867 q 950 676 941 746 q 959 532 959 607 q 936 311 959 413 q 860 134 912 209 q 722 15 807 58 q 514 -28 637 -28 q 431 -22 475 -28 q 340 0 387 -17 l 292 -108 l 223 -77 l 273 33 m 385 100 q 419 87 399 93 q 460 79 436 83 q 515 75 484 75 q 625 93 578 75 q 707 141 673 110 q 763 215 741 172 q 799 308 786 258 q 817 416 812 359 q 823 532 823 473 q 802 745 823 659 q 741 886 781 832 l 385 100 m 206 532 q 209 441 206 492 q 223 336 212 390 q 257 232 234 283 q 322 142 281 180 l 684 943 q 607 979 651 969 q 519 989 564 989 q 408 972 456 989 q 325 926 359 956 q 267 855 290 897 q 231 762 244 813 q 212 653 217 711 q 206 532 206 595 z "},"Ù":{"ha":1040,"x_min":91,"x_max":943,"o":"m 517 75 q 659 98 602 75 q 750 170 716 121 q 797 296 783 218 q 811 482 811 373 l 811 1071 l 943 1071 l 943 485 q 919 269 943 364 q 846 108 896 174 q 715 7 795 42 q 523 -28 635 -28 q 320 7 402 -28 q 186 108 237 42 q 113 269 136 174 q 91 485 91 364 l 91 1071 l 222 1071 l 222 482 q 239 296 222 373 q 292 170 256 218 q 384 98 328 121 q 517 75 439 75 m 315 1533 l 479 1593 l 583 1174 l 538 1156 l 315 1533 z "},"Ú":{"ha":1040,"x_min":91,"x_max":943,"o":"m 517 75 q 659 98 602 75 q 750 170 716 121 q 797 296 783 218 q 811 482 811 373 l 811 1071 l 943 1071 l 943 485 q 919 269 943 364 q 846 108 896 174 q 715 7 795 42 q 523 -28 635 -28 q 320 7 402 -28 q 186 108 237 42 q 113 269 136 174 q 91 485 91 364 l 91 1071 l 222 1071 l 222 482 q 239 296 222 373 q 292 170 256 218 q 384 98 328 121 q 517 75 439 75 m 476 1181 l 584 1596 l 741 1534 l 515 1164 l 476 1181 z "},"Û":{"ha":1040,"x_min":91,"x_max":943,"o":"m 517 75 q 659 98 602 75 q 750 170 716 121 q 797 296 783 218 q 811 482 811 373 l 811 1071 l 943 1071 l 943 485 q 919 269 943 364 q 846 108 896 174 q 715 7 795 42 q 523 -28 635 -28 q 320 7 402 -28 q 186 108 237 42 q 113 269 136 174 q 91 485 91 364 l 91 1071 l 222 1071 l 222 482 q 239 296 222 373 q 292 170 256 218 q 384 98 328 121 q 517 75 439 75 m 549 1545 l 747 1205 l 661 1152 l 517 1408 l 373 1152 l 286 1205 l 484 1545 l 549 1545 z "},"Ü":{"ha":1040,"x_min":91,"x_max":943,"o":"m 517 75 q 659 98 602 75 q 750 170 716 121 q 797 296 783 218 q 811 482 811 373 l 811 1071 l 943 1071 l 943 485 q 919 269 943 364 q 846 108 896 174 q 715 7 795 42 q 523 -28 635 -28 q 320 7 402 -28 q 186 108 237 42 q 113 269 136 174 q 91 485 91 364 l 91 1071 l 222 1071 l 222 482 q 239 296 222 373 q 292 170 256 218 q 384 98 328 121 q 517 75 439 75 m 275 1241 q 281 1271 275 1257 q 296 1296 286 1285 q 320 1313 307 1306 q 351 1319 334 1320 q 382 1313 368 1319 q 406 1296 396 1306 q 422 1271 416 1285 q 427 1241 427 1257 q 422 1211 427 1225 q 406 1186 416 1197 q 382 1169 396 1175 q 351 1163 368 1163 q 320 1169 334 1163 q 296 1186 307 1175 q 281 1211 286 1197 q 275 1241 275 1225 m 607 1241 q 612 1271 607 1257 q 628 1296 618 1285 q 652 1313 638 1306 q 683 1319 666 1320 q 714 1313 700 1319 q 738 1296 728 1306 q 753 1271 748 1285 q 759 1241 759 1257 q 753 1211 759 1225 q 738 1186 748 1197 q 714 1169 728 1175 q 683 1163 700 1163 q 652 1169 666 1163 q 628 1186 638 1175 q 612 1211 618 1197 q 607 1241 607 1225 z "},"Ý":{"ha":894,"x_min":33,"x_max":859,"o":"m 729 1071 l 859 1071 l 510 329 l 510 0 l 381 0 l 381 329 l 33 1071 l 166 1071 l 449 459 l 729 1071 m 405 1181 l 513 1596 l 670 1534 l 444 1164 l 405 1181 z "},"Þ":{"ha":985,"x_min":104,"x_max":842,"o":"m 719 650 q 704 765 719 720 q 646 836 688 810 q 527 871 603 861 q 328 882 450 882 l 235 882 l 235 440 q 352 441 299 440 q 447 445 404 442 q 525 454 490 448 q 588 469 560 459 q 655 501 629 482 q 695 544 681 520 q 714 594 709 567 q 719 650 719 621 m 235 342 l 235 0 l 104 0 l 104 1071 l 235 1071 l 235 979 q 316 979 275 979 q 397 978 357 979 q 472 975 436 977 q 538 969 508 973 q 689 930 630 957 q 782 864 748 903 q 829 773 816 825 q 842 660 842 722 q 819 530 842 589 q 739 430 796 471 q 586 365 682 388 q 345 342 490 342 l 235 342 z "},"ß":{"ha":949,"x_min":104,"x_max":880,"o":"m 333 614 q 434 614 389 614 q 513 621 479 615 q 571 638 547 626 q 610 672 595 650 q 632 728 625 694 q 640 814 640 763 q 625 891 640 860 q 582 940 610 922 q 513 966 553 958 q 422 974 473 974 q 326 955 363 974 q 269 897 290 935 q 242 801 249 858 q 235 667 235 743 l 235 0 l 104 0 l 104 672 q 119 837 104 764 q 170 963 134 911 q 268 1043 207 1015 q 422 1071 330 1071 q 671 1001 586 1071 q 756 798 756 930 q 745 711 756 751 q 711 643 733 672 q 657 594 689 613 q 585 571 625 576 q 701 544 647 564 q 794 487 755 524 q 857 397 834 450 q 880 271 880 343 q 858 143 880 198 q 797 48 836 88 q 707 -18 759 9 q 597 -59 656 -44 q 477 -81 539 -75 q 355 -87 415 -87 l 355 18 q 368 18 361 18 l 391 18 q 526 30 460 18 q 643 72 591 41 q 725 156 694 102 q 756 293 756 210 q 735 388 756 345 q 666 461 715 431 q 535 508 616 492 q 333 525 454 525 l 333 614 z "},"à":{"ha":814,"x_min":68,"x_max":723,"o":"m 414 714 q 350 709 383 714 q 283 693 316 703 q 219 667 250 682 q 163 632 189 652 l 117 722 q 189 759 156 743 q 257 785 222 774 q 329 802 291 796 q 414 807 366 807 q 577 785 516 807 q 671 715 639 762 q 713 596 703 669 q 723 423 723 524 l 723 0 l 628 0 l 609 121 q 490 18 559 50 q 334 -14 420 -14 q 224 2 273 -14 q 140 48 175 18 q 87 125 106 79 q 68 233 68 172 q 91 338 68 292 q 151 418 113 385 q 239 468 189 450 q 345 485 290 485 q 447 479 401 485 q 525 468 492 474 q 576 456 558 461 l 594 451 q 591 571 594 521 q 572 653 589 621 q 518 699 555 684 q 414 714 481 714 m 366 79 q 483 106 428 79 q 594 184 538 132 l 594 386 q 538 393 566 390 q 488 398 515 395 q 437 400 460 400 q 345 395 388 400 q 269 373 301 390 q 217 324 236 356 q 198 239 198 292 q 210 161 198 192 q 244 112 222 130 q 297 86 267 94 q 366 79 328 79 m 194 1238 l 358 1298 l 462 879 l 416 861 l 194 1238 z "},"á":{"ha":814,"x_min":68,"x_max":723,"o":"m 414 714 q 350 709 383 714 q 283 693 316 703 q 219 667 250 682 q 163 632 189 652 l 117 722 q 189 759 156 743 q 257 785 222 774 q 329 802 291 796 q 414 807 366 807 q 577 785 516 807 q 671 715 639 762 q 713 596 703 669 q 723 423 723 524 l 723 0 l 628 0 l 609 121 q 490 18 559 50 q 334 -14 420 -14 q 224 2 273 -14 q 140 48 175 18 q 87 125 106 79 q 68 233 68 172 q 91 338 68 292 q 151 418 113 385 q 239 468 189 450 q 345 485 290 485 q 447 479 401 485 q 525 468 492 474 q 576 456 558 461 l 594 451 q 591 571 594 521 q 572 653 589 621 q 518 699 555 684 q 414 714 481 714 m 366 79 q 483 106 428 79 q 594 184 538 132 l 594 386 q 538 393 566 390 q 488 398 515 395 q 437 400 460 400 q 345 395 388 400 q 269 373 301 390 q 217 324 236 356 q 198 239 198 292 q 210 161 198 192 q 244 112 222 130 q 297 86 267 94 q 366 79 328 79 m 355 886 l 463 1301 l 620 1239 l 393 869 l 355 886 z "},"â":{"ha":814,"x_min":68,"x_max":723,"o":"m 414 714 q 350 709 383 714 q 283 693 316 703 q 219 667 250 682 q 163 632 189 652 l 117 722 q 189 759 156 743 q 257 785 222 774 q 329 802 291 796 q 414 807 366 807 q 577 785 516 807 q 671 715 639 762 q 713 596 703 669 q 723 423 723 524 l 723 0 l 628 0 l 609 121 q 490 18 559 50 q 334 -14 420 -14 q 224 2 273 -14 q 140 48 175 18 q 87 125 106 79 q 68 233 68 172 q 91 338 68 292 q 151 418 113 385 q 239 468 189 450 q 345 485 290 485 q 447 479 401 485 q 525 468 492 474 q 576 456 558 461 l 594 451 q 591 571 594 521 q 572 653 589 621 q 518 699 555 684 q 414 714 481 714 m 366 79 q 483 106 428 79 q 594 184 538 132 l 594 386 q 538 393 566 390 q 488 398 515 395 q 437 400 460 400 q 345 395 388 400 q 269 373 301 390 q 217 324 236 356 q 198 239 198 292 q 210 161 198 192 q 244 112 222 130 q 297 86 267 94 q 366 79 328 79 m 429 1250 l 627 910 l 540 857 l 396 1113 l 252 857 l 165 910 l 363 1250 l 429 1250 z "},"ã":{"ha":814,"x_min":68,"x_max":723,"o":"m 414 714 q 350 709 383 714 q 283 693 316 703 q 219 667 250 682 q 163 632 189 652 l 117 722 q 189 759 156 743 q 257 785 222 774 q 329 802 291 796 q 414 807 366 807 q 577 785 516 807 q 671 715 639 762 q 713 596 703 669 q 723 423 723 524 l 723 0 l 628 0 l 609 121 q 490 18 559 50 q 334 -14 420 -14 q 224 2 273 -14 q 140 48 175 18 q 87 125 106 79 q 68 233 68 172 q 91 338 68 292 q 151 418 113 385 q 239 468 189 450 q 345 485 290 485 q 447 479 401 485 q 525 468 492 474 q 576 456 558 461 l 594 451 q 591 571 594 521 q 572 653 589 621 q 518 699 555 684 q 414 714 481 714 m 366 79 q 483 106 428 79 q 594 184 538 132 l 594 386 q 538 393 566 390 q 488 398 515 395 q 437 400 460 400 q 345 395 388 400 q 269 373 301 390 q 217 324 236 356 q 198 239 198 292 q 210 161 198 192 q 244 112 222 130 q 297 86 267 94 q 366 79 328 79 m 524 873 q 450 885 486 873 q 384 913 415 898 q 328 941 353 928 q 284 954 302 954 q 254 937 264 954 q 244 876 244 920 l 138 876 q 275 1052 138 1052 q 346 1038 313 1052 q 412 1005 378 1025 q 461 979 437 990 q 508 967 484 967 q 548 1042 548 967 l 654 1042 q 645 972 654 1004 q 618 919 635 941 q 577 885 602 897 q 524 873 553 873 z "},"ä":{"ha":814,"x_min":68,"x_max":723,"o":"m 414 714 q 350 709 383 714 q 283 693 316 703 q 219 667 250 682 q 163 632 189 652 l 117 722 q 189 759 156 743 q 257 785 222 774 q 329 802 291 796 q 414 807 366 807 q 577 785 516 807 q 671 715 639 762 q 713 596 703 669 q 723 423 723 524 l 723 0 l 628 0 l 609 121 q 490 18 559 50 q 334 -14 420 -14 q 224 2 273 -14 q 140 48 175 18 q 87 125 106 79 q 68 233 68 172 q 91 338 68 292 q 151 418 113 385 q 239 468 189 450 q 345 485 290 485 q 447 479 401 485 q 525 468 492 474 q 576 456 558 461 l 594 451 q 591 571 594 521 q 572 653 589 621 q 518 699 555 684 q 414 714 481 714 m 366 79 q 483 106 428 79 q 594 184 538 132 l 594 386 q 538 393 566 390 q 488 398 515 395 q 437 400 460 400 q 345 395 388 400 q 269 373 301 390 q 217 324 236 356 q 198 239 198 292 q 210 161 198 192 q 244 112 222 130 q 297 86 267 94 q 366 79 328 79 m 154 946 q 159 976 154 962 q 175 1001 165 990 q 199 1018 185 1011 q 230 1024 213 1025 q 261 1018 247 1024 q 285 1001 275 1011 q 300 976 295 990 q 306 946 306 962 q 300 916 306 930 q 285 891 295 902 q 261 874 275 880 q 230 868 247 868 q 199 874 213 868 q 175 891 185 880 q 159 916 165 902 q 154 946 154 930 m 486 946 q 491 976 486 962 q 507 1001 496 990 q 531 1018 517 1011 q 562 1024 545 1025 q 592 1018 578 1024 q 616 1001 606 1011 q 632 976 627 990 q 637 946 637 962 q 632 916 637 930 q 616 891 627 902 q 592 874 606 880 q 562 868 578 868 q 531 874 545 868 q 507 891 517 880 q 491 916 496 902 q 486 946 486 930 z "},"å":{"ha":814,"x_min":68,"x_max":723,"o":"m 414 714 q 350 709 383 714 q 283 693 316 703 q 219 667 250 682 q 163 632 189 652 l 117 722 q 189 759 156 743 q 257 785 222 774 q 329 802 291 796 q 414 807 366 807 q 577 785 516 807 q 671 715 639 762 q 713 596 703 669 q 723 423 723 524 l 723 0 l 628 0 l 609 121 q 490 18 559 50 q 334 -14 420 -14 q 224 2 273 -14 q 140 48 175 18 q 87 125 106 79 q 68 233 68 172 q 91 338 68 292 q 151 418 113 385 q 239 468 189 450 q 345 485 290 485 q 447 479 401 485 q 525 468 492 474 q 576 456 558 461 l 594 451 q 591 571 594 521 q 572 653 589 621 q 518 699 555 684 q 414 714 481 714 m 366 79 q 483 106 428 79 q 594 184 538 132 l 594 386 q 538 393 566 390 q 488 398 515 395 q 437 400 460 400 q 345 395 388 400 q 269 373 301 390 q 217 324 236 356 q 198 239 198 292 q 210 161 198 192 q 244 112 222 130 q 297 86 267 94 q 366 79 328 79 m 298 1011 q 306 972 298 990 q 326 940 313 954 q 357 918 339 926 q 396 910 374 910 q 436 918 418 910 q 467 940 454 926 q 488 972 480 954 q 495 1011 495 990 q 488 1050 495 1032 q 467 1083 480 1069 q 436 1104 454 1097 q 396 1112 418 1112 q 357 1104 374 1112 q 326 1083 339 1097 q 306 1050 313 1069 q 298 1011 298 1032 m 397 1174 q 462 1161 432 1174 q 514 1127 492 1149 q 549 1075 536 1105 q 561 1010 561 1045 q 549 947 561 977 q 514 896 536 918 q 462 861 492 873 q 397 848 432 848 q 331 861 361 848 q 278 896 300 873 q 244 947 256 918 q 232 1010 232 977 q 244 1075 232 1045 q 278 1127 256 1105 q 331 1161 300 1149 q 397 1174 361 1174 z "},"æ":{"ha":1293,"x_min":79,"x_max":1236,"o":"m 1122 463 q 1104 595 1122 545 q 1060 672 1087 645 q 1000 708 1033 699 q 936 717 967 717 q 890 713 914 717 q 841 699 865 709 q 793 671 816 689 q 753 625 770 653 q 725 556 736 596 q 715 463 715 517 l 1122 463 m 1199 67 q 1139 33 1173 48 q 1069 7 1105 18 q 1000 -10 1034 -4 q 941 -16 966 -16 q 764 24 836 -16 q 648 140 691 64 q 594 82 625 111 q 524 33 562 54 q 440 -2 485 11 q 345 -16 395 -16 q 232 0 281 -16 q 149 47 182 16 q 97 124 115 79 q 79 230 79 170 q 100 338 79 291 q 161 418 121 386 q 256 468 200 451 q 380 485 311 485 q 432 482 403 485 q 489 475 460 479 q 544 464 518 470 q 586 451 570 458 q 581 575 586 526 q 558 655 576 625 q 507 697 541 685 q 415 710 473 710 q 340 702 378 710 q 268 682 302 694 q 209 657 235 670 q 169 633 182 644 l 123 718 q 179 752 144 736 q 254 781 214 768 q 335 800 294 793 q 408 807 376 807 q 506 799 463 807 q 581 773 549 791 q 634 727 612 755 q 667 658 655 699 q 714 723 686 695 q 777 770 742 751 q 852 798 812 789 q 935 807 892 807 q 1064 782 1008 807 q 1158 711 1120 757 q 1216 601 1196 665 q 1236 458 1236 536 q 1234 424 1236 442 q 1230 385 1233 406 l 715 385 q 726 262 715 317 q 764 168 736 207 q 836 107 791 129 q 949 86 881 86 q 1157 165 1064 86 l 1199 67 m 208 241 q 218 168 208 198 q 249 118 228 137 q 301 90 269 98 q 376 81 332 81 q 586 184 475 81 l 586 386 q 502 396 541 393 q 427 400 463 400 q 318 389 361 400 q 252 356 276 377 q 218 306 227 336 q 208 241 208 277 z "},"ç":{"ha":731,"x_min":68,"x_max":678,"o":"m 413 -14 q 272 13 336 -14 q 164 92 209 40 q 94 219 119 144 q 68 393 68 295 q 91 552 68 477 q 158 684 114 627 q 267 774 202 741 q 415 807 332 807 q 557 785 490 807 q 678 724 623 763 l 640 634 q 598 666 623 651 q 546 691 574 680 q 489 708 518 702 q 433 714 459 714 q 310 681 357 707 q 239 612 264 655 q 205 513 214 570 q 197 388 197 456 q 213 253 197 311 q 256 157 228 195 q 324 99 284 118 q 413 79 363 79 q 485 85 454 79 q 543 102 517 91 q 593 130 570 113 q 640 166 616 146 l 678 75 q 627 43 654 59 q 567 15 600 27 q 495 -6 534 2 q 413 -14 457 -14 m 380 -287 q 395 -292 380 -287 q 428 -301 410 -296 q 465 -310 447 -306 q 492 -315 484 -315 q 532 -312 515 -315 q 562 -299 550 -309 q 580 -271 574 -289 q 586 -222 586 -252 q 576 -177 586 -196 q 546 -148 566 -159 q 492 -131 525 -136 q 414 -126 460 -126 l 414 14 l 496 14 l 496 -66 q 570 -75 537 -66 q 627 -103 604 -84 q 663 -151 650 -122 q 676 -222 676 -180 q 635 -348 676 -303 q 505 -392 594 -392 q 440 -384 473 -392 q 380 -366 407 -376 l 380 -287 z "},"è":{"ha":776,"x_min":68,"x_max":718,"o":"m 682 68 q 620 34 654 49 q 550 8 585 18 q 481 -8 514 -3 q 424 -14 448 -14 q 268 16 334 -14 q 157 100 201 46 q 91 228 113 154 q 68 392 68 302 q 90 548 68 473 q 153 680 111 623 q 258 772 195 738 q 403 807 320 807 q 539 784 480 807 q 637 716 597 760 q 698 608 677 672 q 718 464 718 545 q 717 422 718 442 q 713 385 715 402 l 197 385 q 214 241 197 300 q 260 147 230 183 q 335 95 291 111 q 435 79 379 79 q 494 84 467 79 q 546 99 522 90 q 592 124 570 109 q 640 159 615 139 l 682 68 m 604 486 q 591 583 604 541 q 553 654 577 625 q 495 699 528 684 q 421 714 461 714 q 328 694 368 714 q 260 641 288 675 q 217 561 233 607 q 197 463 202 515 l 604 463 l 604 486 m 192 1238 l 356 1298 l 460 879 l 414 861 l 192 1238 z "},"é":{"ha":776,"x_min":68,"x_max":718,"o":"m 682 68 q 620 34 654 49 q 550 8 585 18 q 481 -8 514 -3 q 424 -14 448 -14 q 268 16 334 -14 q 157 100 201 46 q 91 228 113 154 q 68 392 68 302 q 90 548 68 473 q 153 680 111 623 q 258 772 195 738 q 403 807 320 807 q 539 784 480 807 q 637 716 597 760 q 698 608 677 672 q 718 464 718 545 q 717 422 718 442 q 713 385 715 402 l 197 385 q 214 241 197 300 q 260 147 230 183 q 335 95 291 111 q 435 79 379 79 q 494 84 467 79 q 546 99 522 90 q 592 124 570 109 q 640 159 615 139 l 682 68 m 604 486 q 591 583 604 541 q 553 654 577 625 q 495 699 528 684 q 421 714 461 714 q 328 694 368 714 q 260 641 288 675 q 217 561 233 607 q 197 463 202 515 l 604 463 l 604 486 m 353 886 l 460 1301 l 618 1239 l 391 869 l 353 886 z "},"ê":{"ha":776,"x_min":68,"x_max":718,"o":"m 682 68 q 620 34 654 49 q 550 8 585 18 q 481 -8 514 -3 q 424 -14 448 -14 q 268 16 334 -14 q 157 100 201 46 q 91 228 113 154 q 68 392 68 302 q 90 548 68 473 q 153 680 111 623 q 258 772 195 738 q 403 807 320 807 q 539 784 480 807 q 637 716 597 760 q 698 608 677 672 q 718 464 718 545 q 717 422 718 442 q 713 385 715 402 l 197 385 q 214 241 197 300 q 260 147 230 183 q 335 95 291 111 q 435 79 379 79 q 494 84 467 79 q 546 99 522 90 q 592 124 570 109 q 640 159 615 139 l 682 68 m 604 486 q 591 583 604 541 q 553 654 577 625 q 495 699 528 684 q 421 714 461 714 q 328 694 368 714 q 260 641 288 675 q 217 561 233 607 q 197 463 202 515 l 604 463 l 604 486 m 427 1250 l 625 910 l 538 857 l 394 1113 l 250 857 l 163 910 l 361 1250 l 427 1250 z "},"ë":{"ha":776,"x_min":68,"x_max":718,"o":"m 682 68 q 620 34 654 49 q 550 8 585 18 q 481 -8 514 -3 q 424 -14 448 -14 q 268 16 334 -14 q 157 100 201 46 q 91 228 113 154 q 68 392 68 302 q 90 548 68 473 q 153 680 111 623 q 258 772 195 738 q 403 807 320 807 q 539 784 480 807 q 637 716 597 760 q 698 608 677 672 q 718 464 718 545 q 717 422 718 442 q 713 385 715 402 l 197 385 q 214 241 197 300 q 260 147 230 183 q 335 95 291 111 q 435 79 379 79 q 494 84 467 79 q 546 99 522 90 q 592 124 570 109 q 640 159 615 139 l 682 68 m 604 486 q 591 583 604 541 q 553 654 577 625 q 495 699 528 684 q 421 714 461 714 q 328 694 368 714 q 260 641 288 675 q 217 561 233 607 q 197 463 202 515 l 604 463 l 604 486 m 152 946 q 157 976 152 962 q 173 1001 163 990 q 197 1018 183 1011 q 228 1024 211 1025 q 259 1018 245 1024 q 283 1001 273 1011 q 298 976 293 990 q 304 946 304 962 q 298 916 304 930 q 283 891 293 902 q 259 874 273 880 q 228 868 245 868 q 197 874 211 868 q 173 891 183 880 q 157 916 163 902 q 152 946 152 930 m 484 946 q 489 976 484 962 q 505 1001 494 990 q 529 1018 515 1011 q 559 1024 543 1025 q 590 1018 576 1024 q 614 1001 604 1011 q 630 976 625 990 q 635 946 635 962 q 630 916 635 930 q 614 891 625 902 q 590 874 604 880 q 559 868 576 868 q 529 874 543 868 q 505 891 515 880 q 489 916 494 902 q 484 946 484 930 z "},"ì":{"ha":366,"x_min":-79,"x_max":243,"o":"m -79 1313 l 85 1373 l 189 954 l 144 937 l -79 1313 m 120 0 l 120 793 l 243 793 l 243 0 l 120 0 z "},"í":{"ha":366,"x_min":45,"x_max":311,"o":"m 45 954 l 153 1368 l 311 1306 l 84 936 l 45 954 m 120 0 l 120 793 l 243 793 l 243 0 l 120 0 z "},"î":{"ha":366,"x_min":-45,"x_max":416,"o":"m 218 1344 l 416 1004 l 329 951 l 185 1207 l 41 951 l -45 1004 l 153 1344 l 218 1344 m 120 0 l 120 793 l 243 793 l 243 0 l 120 0 z "},"ï":{"ha":366,"x_min":-81,"x_max":402,"o":"m -81 1017 q -76 1047 -81 1033 q -60 1072 -71 1061 q -36 1089 -50 1082 q -5 1095 -22 1096 q 25 1089 12 1095 q 50 1072 39 1082 q 65 1047 60 1061 q 71 1017 71 1033 q 65 987 71 1002 q 50 962 60 973 q 25 945 39 951 q -5 939 12 939 q -36 945 -22 939 q -60 962 -50 951 q -76 987 -71 973 q -81 1017 -81 1002 m 250 1017 q 256 1047 250 1033 q 271 1072 261 1061 q 295 1089 281 1082 q 326 1095 309 1096 q 357 1089 343 1095 q 381 1072 371 1082 q 397 1047 391 1061 q 402 1017 402 1033 q 397 987 402 1002 q 381 962 391 973 q 357 945 371 951 q 326 939 343 939 q 295 945 309 939 q 271 962 281 951 q 256 987 261 973 q 250 1017 250 1002 m 120 0 l 120 793 l 243 793 l 243 0 l 120 0 z "},"ð":{"ha":845,"x_min":68,"x_max":768,"o":"m 758 468 q 397 -14 758 -14 q 247 20 309 -14 q 145 109 185 53 q 87 240 106 165 q 68 396 68 314 q 89 555 68 480 q 148 685 109 629 q 246 774 187 741 q 382 807 304 807 q 459 797 421 807 q 529 772 496 787 q 588 736 562 756 q 629 697 614 717 q 573 817 610 757 q 488 936 536 876 l 328 889 l 300 950 l 437 991 q 364 1058 401 1027 q 288 1113 327 1088 l 345 1182 q 439 1119 389 1157 q 545 1023 489 1081 l 739 1080 l 768 1019 l 591 967 q 660 863 629 918 q 713 747 691 808 q 746 616 734 686 q 758 468 758 547 m 192 398 q 394 83 192 83 q 496 102 452 83 q 571 164 541 121 q 617 277 602 207 q 633 452 633 348 q 623 543 633 503 q 594 610 612 582 q 554 658 576 639 q 506 689 531 677 q 457 705 481 701 q 412 710 433 710 q 359 706 386 710 q 309 690 333 702 q 263 657 284 678 q 226 601 241 635 q 201 516 210 566 q 192 398 192 467 z "},"ñ":{"ha":859,"x_min":98,"x_max":765,"o":"m 209 666 q 263 716 229 691 q 337 762 297 741 q 421 794 378 782 q 505 807 465 807 q 626 786 576 807 q 706 724 675 764 q 751 625 737 684 q 765 493 765 567 l 765 0 l 636 0 l 636 493 q 628 586 636 545 q 602 655 620 627 q 554 699 583 684 q 482 714 525 714 q 411 701 450 714 q 336 670 372 688 q 271 631 300 652 q 227 597 241 611 l 227 0 l 98 0 l 98 793 l 193 793 l 209 666 m 559 873 q 486 885 522 873 q 420 913 451 898 q 364 941 389 928 q 320 954 338 954 q 290 937 300 954 q 280 876 280 920 l 174 876 q 311 1052 174 1052 q 381 1038 349 1052 q 448 1005 414 1025 q 497 979 473 990 q 544 967 520 967 q 584 1042 584 967 l 690 1042 q 681 972 690 1004 q 654 919 671 941 q 613 885 637 897 q 559 873 589 873 z "},"ò":{"ha":857,"x_min":69,"x_max":788,"o":"m 429 64 q 514 78 478 64 q 577 116 551 92 q 620 172 603 140 q 647 240 637 204 q 661 313 657 275 q 665 385 665 350 q 661 456 665 419 q 647 529 657 493 q 620 596 637 564 q 577 652 603 628 q 514 690 551 676 q 429 704 477 704 q 345 690 381 704 q 282 651 309 675 q 239 595 256 627 q 212 528 222 564 q 197 456 201 493 q 193 385 193 418 q 197 313 193 350 q 212 240 201 276 q 239 173 222 205 q 282 117 256 141 q 345 79 309 93 q 429 64 381 64 m 788 387 q 781 290 788 339 q 758 195 774 241 q 715 109 742 149 q 649 39 688 68 q 554 -8 609 9 q 429 -26 500 -26 q 303 -8 357 -26 q 209 39 248 9 q 142 109 169 68 q 99 195 115 149 q 76 290 83 241 q 69 387 69 338 q 76 484 69 435 q 99 579 83 533 q 142 665 115 625 q 209 734 169 705 q 303 781 248 764 q 429 798 357 798 q 554 781 500 798 q 649 734 609 764 q 715 665 688 705 q 758 579 742 625 q 781 484 774 533 q 788 387 788 435 m 227 1238 l 391 1298 l 495 879 l 450 861 l 227 1238 z "},"ó":{"ha":857,"x_min":69,"x_max":788,"o":"m 429 64 q 514 78 478 64 q 577 116 551 92 q 620 172 603 140 q 647 240 637 204 q 661 313 657 275 q 665 385 665 350 q 661 456 665 419 q 647 529 657 493 q 620 596 637 564 q 577 652 603 628 q 514 690 551 676 q 429 704 477 704 q 345 690 381 704 q 282 651 309 675 q 239 595 256 627 q 212 528 222 564 q 197 456 201 493 q 193 385 193 418 q 197 313 193 350 q 212 240 201 276 q 239 173 222 205 q 282 117 256 141 q 345 79 309 93 q 429 64 381 64 m 788 387 q 781 290 788 339 q 758 195 774 241 q 715 109 742 149 q 649 39 688 68 q 554 -8 609 9 q 429 -26 500 -26 q 303 -8 357 -26 q 209 39 248 9 q 142 109 169 68 q 99 195 115 149 q 76 290 83 241 q 69 387 69 338 q 76 484 69 435 q 99 579 83 533 q 142 665 115 625 q 209 734 169 705 q 303 781 248 764 q 429 798 357 798 q 554 781 500 798 q 649 734 609 764 q 715 665 688 705 q 758 579 742 625 q 781 484 774 533 q 788 387 788 435 m 388 886 l 496 1301 l 653 1239 l 427 869 l 388 886 z "},"ô":{"ha":857,"x_min":69,"x_max":788,"o":"m 429 64 q 514 78 478 64 q 577 116 551 92 q 620 172 603 140 q 647 240 637 204 q 661 313 657 275 q 665 385 665 350 q 661 456 665 419 q 647 529 657 493 q 620 596 637 564 q 577 652 603 628 q 514 690 551 676 q 429 704 477 704 q 345 690 381 704 q 282 651 309 675 q 239 595 256 627 q 212 528 222 564 q 197 456 201 493 q 193 385 193 418 q 197 313 193 350 q 212 240 201 276 q 239 173 222 205 q 282 117 256 141 q 345 79 309 93 q 429 64 381 64 m 788 387 q 781 290 788 339 q 758 195 774 241 q 715 109 742 149 q 649 39 688 68 q 554 -8 609 9 q 429 -26 500 -26 q 303 -8 357 -26 q 209 39 248 9 q 142 109 169 68 q 99 195 115 149 q 76 290 83 241 q 69 387 69 338 q 76 484 69 435 q 99 579 83 533 q 142 665 115 625 q 209 734 169 705 q 303 781 248 764 q 429 798 357 798 q 554 781 500 798 q 649 734 609 764 q 715 665 688 705 q 758 579 742 625 q 781 484 774 533 q 788 387 788 435 m 462 1250 l 660 910 l 573 857 l 429 1113 l 286 857 l 199 910 l 397 1250 l 462 1250 z "},"õ":{"ha":857,"x_min":69,"x_max":788,"o":"m 429 64 q 514 78 478 64 q 577 116 551 92 q 620 172 603 140 q 647 240 637 204 q 661 313 657 275 q 665 385 665 350 q 661 456 665 419 q 647 529 657 493 q 620 596 637 564 q 577 652 603 628 q 514 690 551 676 q 429 704 477 704 q 345 690 381 704 q 282 651 309 675 q 239 595 256 627 q 212 528 222 564 q 197 456 201 493 q 193 385 193 418 q 197 313 193 350 q 212 240 201 276 q 239 173 222 205 q 282 117 256 141 q 345 79 309 93 q 429 64 381 64 m 788 387 q 781 290 788 339 q 758 195 774 241 q 715 109 742 149 q 649 39 688 68 q 554 -8 609 9 q 429 -26 500 -26 q 303 -8 357 -26 q 209 39 248 9 q 142 109 169 68 q 99 195 115 149 q 76 290 83 241 q 69 387 69 338 q 76 484 69 435 q 99 579 83 533 q 142 665 115 625 q 209 734 169 705 q 303 781 248 764 q 429 798 357 798 q 554 781 500 798 q 649 734 609 764 q 715 665 688 705 q 758 579 742 625 q 781 484 774 533 q 788 387 788 435 m 557 873 q 484 885 519 873 q 417 913 448 898 q 361 941 387 928 q 317 954 336 954 q 287 937 297 954 q 277 876 277 920 l 172 876 q 308 1052 172 1052 q 379 1038 347 1052 q 445 1005 411 1025 q 494 979 471 990 q 541 967 517 967 q 581 1042 581 967 l 687 1042 q 678 972 687 1004 q 652 919 669 941 q 611 885 635 897 q 557 873 587 873 z "},"ö":{"ha":857,"x_min":69,"x_max":788,"o":"m 429 64 q 514 78 478 64 q 577 116 551 92 q 620 172 603 140 q 647 240 637 204 q 661 313 657 275 q 665 385 665 350 q 661 456 665 419 q 647 529 657 493 q 620 596 637 564 q 577 652 603 628 q 514 690 551 676 q 429 704 477 704 q 345 690 381 704 q 282 651 309 675 q 239 595 256 627 q 212 528 222 564 q 197 456 201 493 q 193 385 193 418 q 197 313 193 350 q 212 240 201 276 q 239 173 222 205 q 282 117 256 141 q 345 79 309 93 q 429 64 381 64 m 788 387 q 781 290 788 339 q 758 195 774 241 q 715 109 742 149 q 649 39 688 68 q 554 -8 609 9 q 429 -26 500 -26 q 303 -8 357 -26 q 209 39 248 9 q 142 109 169 68 q 99 195 115 149 q 76 290 83 241 q 69 387 69 338 q 76 484 69 435 q 99 579 83 533 q 142 665 115 625 q 209 734 169 705 q 303 781 248 764 q 429 798 357 798 q 554 781 500 798 q 649 734 609 764 q 715 665 688 705 q 758 579 742 625 q 781 484 774 533 q 788 387 788 435 m 187 946 q 193 976 187 962 q 208 1001 198 990 q 232 1018 218 1011 q 263 1024 246 1025 q 294 1018 280 1024 q 318 1001 308 1011 q 334 976 328 990 q 339 946 339 962 q 334 916 339 930 q 318 891 328 902 q 294 874 308 880 q 263 868 280 868 q 232 874 246 868 q 208 891 218 880 q 193 916 198 902 q 187 946 187 930 m 519 946 q 524 976 519 962 q 540 1001 530 990 q 564 1018 550 1011 q 595 1024 578 1025 q 626 1018 612 1024 q 650 1001 640 1011 q 665 976 660 990 q 671 946 671 962 q 665 916 671 930 q 650 891 660 902 q 626 874 640 880 q 595 868 612 868 q 564 874 578 868 q 540 891 550 880 q 524 916 530 902 q 519 946 519 930 z "},"÷":{"ha":724,"x_min":152,"x_max":614,"o":"m 306 566 q 311 596 306 582 q 327 621 317 610 q 351 638 337 631 q 382 644 365 644 q 435 622 414 644 q 455 566 455 599 q 435 511 455 534 q 382 488 414 488 q 351 494 365 488 q 327 511 337 500 q 311 536 317 522 q 306 566 306 551 m 304 203 q 310 233 304 219 q 326 258 315 248 q 350 275 336 269 q 380 281 363 281 q 433 259 413 281 q 454 203 454 236 q 433 148 454 171 q 380 125 413 125 q 350 132 363 125 q 326 149 336 138 q 310 174 315 159 q 304 203 304 188 m 152 345 l 152 433 l 614 433 l 614 345 l 152 345 z "},"ø":{"ha":857,"x_min":68,"x_max":788,"o":"m 503 702 q 428 713 473 713 q 313 686 359 713 q 241 614 268 659 q 203 512 214 569 q 192 395 192 454 q 217 228 192 301 q 300 115 242 155 l 503 702 m 281 -134 l 222 -114 l 267 19 q 180 80 217 43 q 118 165 143 117 q 81 271 93 213 q 68 395 68 329 q 90 552 68 477 q 155 683 111 627 q 267 773 199 740 q 428 807 335 807 q 535 793 483 807 l 581 926 l 635 905 l 590 773 q 679 708 642 747 q 741 620 716 669 q 777 515 765 572 q 788 395 788 458 q 767 236 788 311 q 701 106 745 162 q 589 19 656 51 q 428 -14 521 -14 q 326 -1 373 -14 l 281 -134 m 428 79 q 538 104 493 79 q 611 172 583 129 q 652 272 640 214 q 664 395 664 329 q 639 561 664 487 q 557 675 614 634 l 357 88 q 428 79 385 79 z "},"ù":{"ha":842,"x_min":91,"x_max":746,"o":"m 220 300 q 230 199 220 241 q 261 131 241 157 q 310 92 281 104 q 377 79 339 79 q 439 85 409 79 q 498 103 469 90 q 556 136 527 116 q 617 186 585 156 l 617 793 l 746 793 l 746 0 l 650 0 l 632 119 q 588 75 613 98 q 530 32 562 52 q 460 -1 498 12 q 376 -14 421 -14 q 255 4 308 -14 q 165 60 202 22 q 110 157 129 98 q 91 300 91 216 l 91 793 l 220 793 l 220 300 m 217 1238 l 381 1298 l 485 879 l 439 861 l 217 1238 z "},"ú":{"ha":842,"x_min":91,"x_max":746,"o":"m 220 300 q 230 199 220 241 q 261 131 241 157 q 310 92 281 104 q 377 79 339 79 q 439 85 409 79 q 498 103 469 90 q 556 136 527 116 q 617 186 585 156 l 617 793 l 746 793 l 746 0 l 650 0 l 632 119 q 588 75 613 98 q 530 32 562 52 q 460 -1 498 12 q 376 -14 421 -14 q 255 4 308 -14 q 165 60 202 22 q 110 157 129 98 q 91 300 91 216 l 91 793 l 220 793 l 220 300 m 378 886 l 486 1301 l 643 1239 l 416 869 l 378 886 z "},"û":{"ha":842,"x_min":91,"x_max":746,"o":"m 220 300 q 230 199 220 241 q 261 131 241 157 q 310 92 281 104 q 377 79 339 79 q 439 85 409 79 q 498 103 469 90 q 556 136 527 116 q 617 186 585 156 l 617 793 l 746 793 l 746 0 l 650 0 l 632 119 q 588 75 613 98 q 530 32 562 52 q 460 -1 498 12 q 376 -14 421 -14 q 255 4 308 -14 q 165 60 202 22 q 110 157 129 98 q 91 300 91 216 l 91 793 l 220 793 l 220 300 m 452 1250 l 650 910 l 563 857 l 419 1113 l 275 857 l 189 910 l 387 1250 l 452 1250 z "},"ü":{"ha":842,"x_min":91,"x_max":746,"o":"m 220 300 q 230 199 220 241 q 261 131 241 157 q 310 92 281 104 q 377 79 339 79 q 439 85 409 79 q 498 103 469 90 q 556 136 527 116 q 617 186 585 156 l 617 793 l 746 793 l 746 0 l 650 0 l 632 119 q 588 75 613 98 q 530 32 562 52 q 460 -1 498 12 q 376 -14 421 -14 q 255 4 308 -14 q 165 60 202 22 q 110 157 129 98 q 91 300 91 216 l 91 793 l 220 793 l 220 300 m 177 946 q 182 976 177 962 q 198 1001 188 990 q 222 1018 208 1011 q 253 1024 236 1025 q 284 1018 270 1024 q 308 1001 298 1011 q 323 976 318 990 q 329 946 329 962 q 323 916 329 930 q 308 891 318 902 q 284 874 298 880 q 253 868 270 868 q 222 874 236 868 q 198 891 208 880 q 182 916 188 902 q 177 946 177 930 m 509 946 q 514 976 509 962 q 530 1001 519 990 q 554 1018 540 1011 q 585 1024 568 1025 q 615 1018 602 1024 q 640 1001 629 1011 q 655 976 650 990 q 661 946 661 962 q 655 916 661 930 q 640 891 650 902 q 615 874 629 880 q 585 868 602 868 q 554 874 568 868 q 530 891 540 880 q 514 916 519 902 q 509 946 509 930 z "},"ý":{"ha":762,"x_min":31,"x_max":731,"o":"m 31 793 l 154 793 l 395 169 l 599 793 l 731 793 l 435 -25 q 393 -118 416 -77 q 346 -188 370 -158 q 297 -239 321 -218 q 250 -273 273 -260 q 140 -311 196 -306 l 106 -227 q 180 -201 146 -217 q 243 -157 215 -185 q 295 -87 272 -130 q 336 16 319 -45 l 31 793 m 340 886 l 448 1301 l 605 1239 l 378 869 l 340 886 z "},"þ":{"ha":854,"x_min":98,"x_max":785,"o":"m 662 368 q 659 444 662 405 q 649 522 656 484 q 627 594 641 559 q 592 654 614 628 q 540 695 570 680 q 467 710 509 710 q 389 697 427 710 q 320 667 352 684 q 265 631 289 649 q 227 604 241 614 l 227 165 q 276 133 248 148 q 338 107 305 118 q 405 90 370 96 q 473 83 439 83 q 538 96 509 83 q 587 130 566 109 q 623 179 608 151 q 646 239 637 208 q 658 304 654 271 q 662 368 662 337 m 467 -14 q 224 79 298 -14 l 224 -315 l 98 -330 l 98 1061 l 222 1061 l 222 681 q 271 731 244 708 q 330 771 298 754 q 396 798 361 788 q 467 807 431 807 q 571 791 525 807 q 652 746 616 774 q 712 678 687 718 q 754 593 738 639 q 778 497 770 548 q 785 396 785 447 q 767 244 785 317 q 710 113 749 170 q 611 21 671 56 q 467 -14 551 -14 z "},"ÿ":{"ha":762,"x_min":31,"x_max":731,"o":"m 31 793 l 154 793 l 395 169 l 599 793 l 731 793 l 435 -25 q 393 -118 416 -77 q 346 -188 370 -158 q 297 -239 321 -218 q 250 -273 273 -260 q 140 -311 196 -306 l 106 -227 q 180 -201 146 -217 q 243 -157 215 -185 q 295 -87 272 -130 q 336 16 319 -45 l 31 793 m 139 946 q 144 976 139 962 q 160 1001 150 990 q 184 1018 170 1011 q 215 1024 198 1025 q 246 1018 232 1024 q 270 1001 260 1011 q 286 976 280 990 q 291 946 291 962 q 286 916 291 930 q 270 891 280 902 q 246 874 260 880 q 215 868 232 868 q 184 874 198 868 q 160 891 170 880 q 144 916 150 902 q 139 946 139 930 m 471 946 q 476 976 471 962 q 492 1001 481 990 q 516 1018 502 1011 q 547 1024 530 1025 q 577 1018 564 1024 q 602 1001 591 1011 q 617 976 612 990 q 623 946 623 962 q 617 916 623 930 q 602 891 612 902 q 577 874 591 880 q 547 868 564 868 q 516 874 530 868 q 492 891 502 880 q 476 916 481 902 q 471 946 471 930 z "},"Ă":{"ha":989,"x_min":43,"x_max":946,"o":"m 596 1071 l 946 0 l 811 0 l 728 260 l 261 260 l 178 0 l 43 0 l 393 1071 l 596 1071 m 279 329 l 709 329 l 494 987 l 279 329 m 671 1304 q 629 1185 671 1229 q 496 1142 587 1142 q 415 1154 449 1142 q 360 1187 382 1166 q 328 1239 338 1209 q 318 1304 318 1268 l 397 1304 q 424 1240 397 1263 q 496 1217 451 1217 q 566 1240 541 1217 q 591 1304 591 1263 l 671 1304 z "},"ă":{"ha":814,"x_min":68,"x_max":723,"o":"m 414 714 q 350 709 383 714 q 283 693 316 703 q 219 667 250 682 q 163 632 189 652 l 117 722 q 189 759 156 743 q 257 785 222 774 q 329 802 291 796 q 414 807 366 807 q 577 785 516 807 q 671 715 639 762 q 713 596 703 669 q 723 423 723 524 l 723 0 l 628 0 l 609 121 q 490 18 559 50 q 334 -14 420 -14 q 224 2 273 -14 q 140 48 175 18 q 87 125 106 79 q 68 233 68 172 q 91 338 68 292 q 151 418 113 385 q 239 468 189 450 q 345 485 290 485 q 447 479 401 485 q 525 468 492 474 q 576 456 558 461 l 594 451 q 591 571 594 521 q 572 653 589 621 q 518 699 555 684 q 414 714 481 714 m 366 79 q 483 106 428 79 q 594 184 538 132 l 594 386 q 538 393 566 390 q 488 398 515 395 q 437 400 460 400 q 345 395 388 400 q 269 373 301 390 q 217 324 236 356 q 198 239 198 292 q 210 161 198 192 q 244 112 222 130 q 297 86 267 94 q 366 79 328 79 m 572 1009 q 530 890 572 934 q 397 847 488 847 q 316 859 350 847 q 261 892 283 871 q 229 944 239 914 q 219 1009 219 973 l 298 1009 q 325 945 298 968 q 397 922 352 922 q 467 945 441 922 q 492 1009 492 968 l 572 1009 z "},"Ć":{"ha":863,"x_min":70,"x_max":823,"o":"m 206 521 q 225 333 206 416 q 282 193 243 250 q 381 104 321 135 q 525 74 441 74 q 625 85 578 74 q 708 111 672 97 q 785 148 750 127 l 823 54 q 734 13 782 31 q 640 -15 694 -3 q 524 -28 586 -28 q 322 10 408 -28 q 181 119 237 48 q 97 291 125 190 q 70 520 70 393 q 79 648 70 582 q 111 778 89 714 q 167 899 132 842 q 253 999 202 956 q 373 1067 304 1042 q 530 1092 441 1092 q 639 1083 589 1092 q 726 1065 689 1075 q 804 1038 768 1053 l 773 939 q 705 964 743 953 q 630 981 673 973 q 534 989 587 989 q 385 954 448 989 q 283 856 323 918 q 225 708 243 793 q 206 521 206 622 m 489 1181 l 597 1596 l 754 1534 l 528 1164 l 489 1181 z "},"ć":{"ha":726,"x_min":68,"x_max":678,"o":"m 413 -14 q 272 13 336 -14 q 164 92 209 40 q 94 219 119 144 q 68 393 68 295 q 91 552 68 477 q 158 684 114 627 q 267 774 202 741 q 415 807 332 807 q 557 785 490 807 q 678 724 623 763 l 640 634 q 598 666 623 651 q 546 691 574 680 q 489 708 518 702 q 433 714 459 714 q 310 681 357 707 q 239 612 264 655 q 205 513 214 570 q 197 388 197 456 q 213 253 197 311 q 256 157 228 195 q 324 99 284 118 q 413 79 363 79 q 485 85 454 79 q 543 102 517 91 q 593 130 570 113 q 640 166 616 146 l 678 75 q 627 43 654 59 q 567 15 600 27 q 495 -6 534 2 q 413 -14 457 -14 m 332 886 l 440 1301 l 597 1239 l 371 869 l 332 886 z "},"č":{"ha":726,"x_min":68,"x_max":678,"o":"m 413 -14 q 272 13 336 -14 q 164 92 209 40 q 94 219 119 144 q 68 393 68 295 q 91 552 68 477 q 158 684 114 627 q 267 774 202 741 q 415 807 332 807 q 557 785 490 807 q 678 724 623 763 l 640 634 q 598 666 623 651 q 546 691 574 680 q 489 708 518 702 q 433 714 459 714 q 310 681 357 707 q 239 612 264 655 q 205 513 214 570 q 197 388 197 456 q 213 253 197 311 q 256 157 228 195 q 324 99 284 118 q 413 79 363 79 q 485 85 454 79 q 543 102 517 91 q 593 130 570 113 q 640 166 616 146 l 678 75 q 627 43 654 59 q 567 15 600 27 q 495 -6 534 2 q 413 -14 457 -14 m 341 842 l 143 1181 l 230 1234 l 374 979 l 517 1234 l 604 1181 l 406 842 l 341 842 z "},"Ĕ":{"ha":808,"x_min":104,"x_max":770,"o":"m 104 0 l 104 1071 l 762 1071 l 762 974 l 235 974 l 235 604 l 695 604 l 695 526 l 235 526 l 235 97 l 770 97 l 770 0 l 104 0 m 613 1304 q 571 1185 613 1229 q 438 1142 530 1142 q 358 1154 391 1142 q 302 1187 324 1166 q 271 1239 281 1209 q 260 1304 260 1268 l 340 1304 q 367 1240 340 1263 q 438 1217 393 1217 q 508 1240 483 1217 q 534 1304 534 1263 l 613 1304 z "},"ĕ":{"ha":776,"x_min":68,"x_max":718,"o":"m 682 68 q 620 34 654 49 q 550 8 585 18 q 481 -8 514 -3 q 424 -14 448 -14 q 268 16 334 -14 q 157 100 201 46 q 91 228 113 154 q 68 392 68 302 q 90 548 68 473 q 153 680 111 623 q 258 772 195 738 q 403 807 320 807 q 539 784 480 807 q 637 716 597 760 q 698 608 677 672 q 718 464 718 545 q 717 422 718 442 q 713 385 715 402 l 197 385 q 214 241 197 300 q 260 147 230 183 q 335 95 291 111 q 435 79 379 79 q 494 84 467 79 q 546 99 522 90 q 592 124 570 109 q 640 159 615 139 l 682 68 m 604 486 q 591 583 604 541 q 553 654 577 625 q 495 699 528 684 q 421 714 461 714 q 328 694 368 714 q 260 641 288 675 q 217 561 233 607 q 197 463 202 515 l 604 463 l 604 486 m 570 1009 q 528 890 570 934 q 395 847 486 847 q 314 859 348 847 q 259 892 281 871 q 227 944 237 914 q 217 1009 217 973 l 296 1009 q 323 945 296 968 q 395 922 350 922 q 465 945 439 922 q 490 1009 490 968 l 570 1009 z "},"Ě":{"ha":808,"x_min":104,"x_max":770,"o":"m 104 0 l 104 1071 l 762 1071 l 762 974 l 235 974 l 235 604 l 695 604 l 695 526 l 235 526 l 235 97 l 770 97 l 770 0 l 104 0 m 405 1137 l 207 1476 l 294 1529 l 437 1274 l 581 1529 l 668 1476 l 470 1137 l 405 1137 z "},"ě":{"ha":776,"x_min":68,"x_max":718,"o":"m 682 68 q 620 34 654 49 q 550 8 585 18 q 481 -8 514 -3 q 424 -14 448 -14 q 268 16 334 -14 q 157 100 201 46 q 91 228 113 154 q 68 392 68 302 q 90 548 68 473 q 153 680 111 623 q 258 772 195 738 q 403 807 320 807 q 539 784 480 807 q 637 716 597 760 q 698 608 677 672 q 718 464 718 545 q 717 422 718 442 q 713 385 715 402 l 197 385 q 214 241 197 300 q 260 147 230 183 q 335 95 291 111 q 435 79 379 79 q 494 84 467 79 q 546 99 522 90 q 592 124 570 109 q 640 159 615 139 l 682 68 m 604 486 q 591 583 604 541 q 553 654 577 625 q 495 699 528 684 q 421 714 461 714 q 328 694 368 714 q 260 641 288 675 q 217 561 233 607 q 197 463 202 515 l 604 463 l 604 486 m 361 842 l 163 1181 l 250 1234 l 394 979 l 538 1234 l 625 1181 l 427 842 l 361 842 z "},"ĝ":{"ha":852,"x_min":92,"x_max":805,"o":"m 389 -188 q 513 -184 458 -188 q 606 -167 568 -181 q 663 -124 644 -153 q 683 -45 683 -95 q 664 26 683 0 q 611 66 646 52 q 526 83 576 79 q 414 87 476 87 q 349 86 383 87 q 278 86 315 86 q 250 62 264 75 q 224 32 235 48 q 206 -3 213 16 q 199 -43 199 -22 q 208 -111 199 -83 q 240 -156 218 -138 q 298 -180 262 -173 q 389 -188 334 -188 m 427 399 q 494 418 464 408 q 544 447 524 428 q 576 499 565 467 q 587 583 587 531 q 576 647 587 621 q 544 688 566 673 q 489 711 522 704 q 412 718 456 718 q 343 711 376 718 q 286 689 310 705 q 247 645 261 673 q 232 573 232 616 q 242 512 232 541 q 270 458 253 483 q 307 416 286 434 q 349 387 328 397 l 427 399 m 644 695 q 684 644 669 669 q 699 583 699 618 q 685 485 699 529 q 642 409 671 441 q 567 354 613 376 q 456 320 522 332 l 219 277 l 232 176 l 429 176 q 593 165 524 176 q 707 127 663 154 q 772 58 751 101 q 793 -47 793 16 q 763 -169 793 -121 q 678 -242 732 -216 q 548 -279 623 -269 q 381 -290 472 -290 q 265 -277 318 -290 q 173 -237 212 -264 q 113 -168 134 -210 q 92 -64 92 -125 q 103 -5 92 -31 q 133 42 115 22 q 175 75 151 62 q 222 96 198 89 q 179 112 197 102 q 151 142 162 123 q 132 192 139 161 q 121 269 125 222 q 121 279 121 271 q 137 321 121 305 q 174 346 153 337 q 219 360 196 355 q 256 368 242 364 q 207 394 231 375 q 164 441 183 413 q 134 504 146 469 q 123 579 123 539 q 142 674 123 632 q 199 746 162 716 q 291 791 237 775 q 415 807 346 807 q 517 795 470 807 q 598 755 564 784 q 641 776 624 768 q 676 788 658 784 q 719 794 694 793 q 785 795 744 795 l 805 795 l 805 695 l 644 695 m 481 1250 l 680 910 l 593 857 l 449 1113 l 305 857 l 218 910 l 416 1250 l 481 1250 z "},"ğ":{"ha":852,"x_min":92,"x_max":805,"o":"m 389 -188 q 513 -184 458 -188 q 606 -167 568 -181 q 663 -124 644 -153 q 683 -45 683 -95 q 664 26 683 0 q 611 66 646 52 q 526 83 576 79 q 414 87 476 87 q 349 86 383 87 q 278 86 315 86 q 250 62 264 75 q 224 32 235 48 q 206 -3 213 16 q 199 -43 199 -22 q 208 -111 199 -83 q 240 -156 218 -138 q 298 -180 262 -173 q 389 -188 334 -188 m 427 399 q 494 418 464 408 q 544 447 524 428 q 576 499 565 467 q 587 583 587 531 q 576 647 587 621 q 544 688 566 673 q 489 711 522 704 q 412 718 456 718 q 343 711 376 718 q 286 689 310 705 q 247 645 261 673 q 232 573 232 616 q 242 512 232 541 q 270 458 253 483 q 307 416 286 434 q 349 387 328 397 l 427 399 m 644 695 q 684 644 669 669 q 699 583 699 618 q 685 485 699 529 q 642 409 671 441 q 567 354 613 376 q 456 320 522 332 l 219 277 l 232 176 l 429 176 q 593 165 524 176 q 707 127 663 154 q 772 58 751 101 q 793 -47 793 16 q 763 -169 793 -121 q 678 -242 732 -216 q 548 -279 623 -269 q 381 -290 472 -290 q 265 -277 318 -290 q 173 -237 212 -264 q 113 -168 134 -210 q 92 -64 92 -125 q 103 -5 92 -31 q 133 42 115 22 q 175 75 151 62 q 222 96 198 89 q 179 112 197 102 q 151 142 162 123 q 132 192 139 161 q 121 269 125 222 q 121 279 121 271 q 137 321 121 305 q 174 346 153 337 q 219 360 196 355 q 256 368 242 364 q 207 394 231 375 q 164 441 183 413 q 134 504 146 469 q 123 579 123 539 q 142 674 123 632 q 199 746 162 716 q 291 791 237 775 q 415 807 346 807 q 517 795 470 807 q 598 755 564 784 q 641 776 624 768 q 676 788 658 784 q 719 794 694 793 q 785 795 744 795 l 805 795 l 805 695 l 644 695 m 625 1009 q 583 890 625 934 q 450 847 541 847 q 369 859 403 847 q 314 892 336 871 q 282 944 292 914 q 272 1009 272 973 l 351 1009 q 378 945 351 968 q 450 922 405 922 q 520 945 494 922 q 545 1009 545 968 l 625 1009 z "},"Ĩ":{"ha":530,"x_min":10,"x_max":526,"o":"m 205 76 l 205 991 l 66 991 l 66 1071 l 469 1071 l 469 991 l 329 991 l 329 76 l 469 76 l 469 0 l 66 0 l 66 76 l 205 76 m 395 1168 q 322 1180 357 1168 q 256 1208 287 1193 q 200 1236 225 1223 q 156 1249 174 1249 q 126 1232 136 1249 q 116 1171 116 1215 l 10 1171 q 146 1347 10 1347 q 217 1333 185 1347 q 283 1300 250 1320 q 333 1274 309 1285 q 380 1262 356 1262 q 420 1337 420 1262 l 526 1337 q 516 1267 526 1299 q 490 1214 507 1236 q 449 1180 473 1192 q 395 1168 425 1168 z "},"Ĭ":{"ha":530,"x_min":66,"x_max":469,"o":"m 205 76 l 205 991 l 66 991 l 66 1071 l 469 1071 l 469 991 l 329 991 l 329 76 l 469 76 l 469 0 l 66 0 l 66 76 l 205 76 m 444 1304 q 402 1185 444 1229 q 269 1142 360 1142 q 188 1154 222 1142 q 133 1187 155 1166 q 101 1239 111 1209 q 91 1304 91 1268 l 170 1304 q 197 1240 170 1263 q 269 1217 224 1217 q 339 1240 313 1217 q 364 1304 364 1263 l 444 1304 z "},"ı":{"ha":366,"x_min":120,"x_max":243,"o":"m 120 793 l 243 793 l 243 0 l 120 0 l 120 793 z "},"Ń":{"ha":1083,"x_min":104,"x_max":979,"o":"m 810 0 l 235 952 l 235 0 l 104 0 l 104 1071 l 281 1071 l 847 125 l 847 1071 l 979 1071 l 979 0 l 810 0 m 500 1181 l 608 1596 l 766 1534 l 539 1164 l 500 1181 z "},"ń":{"ha":859,"x_min":98,"x_max":765,"o":"m 209 666 q 263 716 229 691 q 337 762 297 741 q 421 794 378 782 q 505 807 465 807 q 626 786 576 807 q 706 724 675 764 q 751 625 737 684 q 765 493 765 567 l 765 0 l 636 0 l 636 493 q 628 586 636 545 q 602 655 620 627 q 554 699 583 684 q 482 714 525 714 q 411 701 450 714 q 336 670 372 688 q 271 631 300 652 q 227 597 241 611 l 227 0 l 98 0 l 98 793 l 193 793 l 209 666 m 391 886 l 498 1301 l 656 1239 l 429 869 l 391 886 z "},"Ŏ":{"ha":1028,"x_min":69,"x_max":960,"o":"m 960 547 q 951 400 960 472 q 924 265 943 329 q 872 147 905 201 q 789 54 839 93 q 672 -7 740 15 q 514 -29 604 -29 q 355 -6 424 -29 q 238 57 287 16 q 156 153 189 98 q 104 275 123 209 q 77 413 85 340 q 69 562 69 486 q 98 783 69 685 q 183 949 127 881 q 322 1054 239 1018 q 514 1090 406 1090 q 707 1054 623 1090 q 846 947 790 1017 q 931 777 903 878 q 960 547 960 675 m 205 526 q 284 187 205 298 q 514 76 363 76 q 642 100 585 76 q 739 178 699 124 q 801 317 779 231 q 823 526 823 403 q 802 736 823 648 q 743 880 782 824 q 647 963 704 937 q 519 989 591 989 q 386 964 444 989 q 288 883 328 939 q 227 739 248 827 q 205 526 205 651 m 690 1304 q 649 1185 690 1229 q 515 1142 607 1142 q 435 1154 469 1142 q 380 1187 401 1166 q 348 1239 358 1209 q 338 1304 338 1268 l 417 1304 q 444 1240 417 1263 q 515 1217 471 1217 q 586 1240 560 1217 q 611 1304 611 1263 l 690 1304 z "},"ŏ":{"ha":857,"x_min":69,"x_max":788,"o":"m 429 64 q 514 78 478 64 q 577 116 551 92 q 620 172 603 140 q 647 240 637 204 q 661 313 657 275 q 665 385 665 350 q 661 456 665 419 q 647 529 657 493 q 620 596 637 564 q 577 652 603 628 q 514 690 551 676 q 429 704 477 704 q 345 690 381 704 q 282 651 309 675 q 239 595 256 627 q 212 528 222 564 q 197 456 201 493 q 193 385 193 418 q 197 313 193 350 q 212 240 201 276 q 239 173 222 205 q 282 117 256 141 q 345 79 309 93 q 429 64 381 64 m 788 387 q 781 290 788 339 q 758 195 774 241 q 715 109 742 149 q 649 39 688 68 q 554 -8 609 9 q 429 -26 500 -26 q 303 -8 357 -26 q 209 39 248 9 q 142 109 169 68 q 99 195 115 149 q 76 290 83 241 q 69 387 69 338 q 76 484 69 435 q 99 579 83 533 q 142 665 115 625 q 209 734 169 705 q 303 781 248 764 q 429 798 357 798 q 554 781 500 798 q 649 734 609 764 q 715 665 688 705 q 758 579 742 625 q 781 484 774 533 q 788 387 788 435 m 605 1009 q 563 890 605 934 q 430 847 522 847 q 350 859 383 847 q 294 892 316 871 q 262 944 273 914 q 252 1009 252 973 l 332 1009 q 358 945 332 968 q 430 922 385 922 q 500 945 475 922 q 526 1009 526 968 l 605 1009 z "},"Œ":{"ha":1531,"x_min":69,"x_max":1493,"o":"m 826 0 l 826 1071 l 1484 1071 l 1484 974 l 958 974 l 958 604 l 1417 604 l 1417 526 l 958 526 l 958 97 l 1493 97 l 1493 0 l 826 0 m 960 547 q 951 400 960 472 q 924 265 943 329 q 872 147 905 201 q 789 54 839 93 q 672 -7 740 15 q 514 -29 604 -29 q 355 -6 424 -29 q 238 57 287 16 q 156 153 189 98 q 104 275 123 209 q 77 413 85 340 q 69 562 69 486 q 98 783 69 685 q 183 949 127 881 q 322 1054 239 1018 q 514 1090 406 1090 q 707 1054 623 1090 q 846 947 790 1017 q 931 777 903 878 q 960 547 960 675 m 205 526 q 284 187 205 298 q 514 76 363 76 q 642 100 585 76 q 739 178 699 124 q 801 317 779 231 q 823 526 823 403 q 802 736 823 648 q 743 880 782 824 q 647 963 704 937 q 519 989 591 989 q 386 964 444 989 q 288 883 328 939 q 227 739 248 827 q 205 526 205 651 z "},"œ":{"ha":1373,"x_min":69,"x_max":1316,"o":"m 1202 463 q 1155 649 1202 584 q 1019 714 1107 714 q 929 696 968 714 q 861 644 889 677 q 815 565 832 611 q 795 463 799 518 l 1202 463 m 429 66 q 545 95 499 66 q 617 170 591 123 q 655 272 644 216 q 665 385 665 329 q 661 461 665 422 q 646 534 656 499 q 617 601 635 570 q 574 655 600 632 q 512 691 547 678 q 429 705 476 705 q 347 691 382 705 q 285 655 311 678 q 241 601 258 632 q 213 534 224 570 q 198 461 202 499 q 193 385 193 422 q 198 310 193 348 q 213 236 202 271 q 241 170 224 201 q 285 115 258 138 q 347 79 311 92 q 429 66 382 66 m 1279 68 q 1217 34 1252 49 q 1147 8 1183 18 q 1078 -8 1112 -3 q 1021 -14 1045 -14 q 908 0 957 -14 q 825 39 860 14 q 767 96 790 63 q 731 165 744 128 q 683 76 714 113 q 612 17 652 39 q 525 -17 572 -6 q 429 -27 478 -27 q 272 4 339 -27 q 159 91 204 35 q 92 221 114 146 q 69 385 69 296 q 75 478 69 430 q 97 571 81 526 q 139 658 113 617 q 205 730 165 699 q 300 779 245 761 q 429 798 355 798 q 616 750 540 798 q 726 602 692 703 q 830 755 763 703 q 1000 807 897 807 q 1134 785 1075 807 q 1233 719 1192 762 q 1294 611 1273 675 q 1316 464 1316 547 q 1314 422 1316 442 q 1310 385 1313 402 l 795 385 q 811 241 795 299 q 858 146 827 182 q 933 95 889 111 q 1032 79 977 79 q 1091 84 1064 79 q 1143 99 1118 89 q 1190 123 1167 109 q 1237 159 1213 138 l 1279 68 z "},"Ś":{"ha":857,"x_min":53,"x_max":795,"o":"m 795 283 q 775 170 795 225 q 711 70 756 114 q 592 -1 666 26 q 410 -28 518 -28 q 294 -16 350 -28 q 195 10 239 -4 q 100 49 144 27 l 113 151 q 199 113 153 130 q 288 87 237 98 q 391 75 338 75 q 494 84 445 75 q 579 115 543 92 q 637 176 616 137 q 659 277 659 216 q 647 347 659 316 q 613 403 635 378 q 559 447 591 428 q 488 479 528 465 l 296 547 q 206 586 250 564 q 128 641 162 609 q 74 715 94 673 q 53 812 53 758 q 79 941 53 888 q 151 1027 104 994 q 261 1076 197 1061 q 403 1092 326 1092 q 498 1085 452 1092 q 584 1065 543 1078 q 661 1038 625 1053 q 726 1006 696 1023 l 705 907 q 648 936 680 922 q 579 962 616 951 q 503 981 543 974 q 423 989 463 989 q 316 979 360 989 q 243 949 271 970 q 202 897 215 929 q 189 821 189 865 q 319 669 189 714 l 532 595 q 632 549 585 576 q 716 484 680 522 q 774 396 753 446 q 795 283 795 347 m 383 1181 l 491 1596 l 648 1534 l 422 1164 l 383 1181 z "},"ś":{"ha":673,"x_min":63,"x_max":627,"o":"m 229 396 q 164 426 195 408 q 111 469 134 444 q 76 526 89 494 q 63 597 63 557 q 85 690 63 650 q 144 755 107 730 q 227 794 180 781 q 324 807 274 807 q 411 798 369 807 q 489 777 454 789 q 551 749 525 764 q 591 724 578 734 l 549 638 q 453 692 508 670 q 333 714 397 714 q 263 705 293 714 q 212 681 233 696 q 182 646 192 665 q 172 604 172 626 q 201 542 172 566 q 283 500 231 518 l 397 460 q 491 420 449 441 q 564 370 534 398 q 611 304 594 341 q 627 220 627 268 q 613 136 627 178 q 565 60 598 94 q 479 6 532 27 q 349 -14 427 -14 q 251 -5 296 -14 q 171 18 206 5 q 110 46 136 31 q 70 71 84 60 l 113 157 q 153 131 127 144 q 209 106 178 117 q 273 87 240 94 q 337 79 307 79 q 390 85 359 79 q 447 104 420 90 q 492 144 473 119 q 511 208 511 169 q 501 255 511 235 q 474 292 492 276 q 433 320 457 308 q 381 342 410 332 l 229 396 m 305 886 l 413 1301 l 570 1239 l 344 869 l 305 886 z "},"Ŝ":{"ha":857,"x_min":53,"x_max":795,"o":"m 795 283 q 775 170 795 225 q 711 70 756 114 q 592 -1 666 26 q 410 -28 518 -28 q 294 -16 350 -28 q 195 10 239 -4 q 100 49 144 27 l 113 151 q 199 113 153 130 q 288 87 237 98 q 391 75 338 75 q 494 84 445 75 q 579 115 543 92 q 637 176 616 137 q 659 277 659 216 q 647 347 659 316 q 613 403 635 378 q 559 447 591 428 q 488 479 528 465 l 296 547 q 206 586 250 564 q 128 641 162 609 q 74 715 94 673 q 53 812 53 758 q 79 941 53 888 q 151 1027 104 994 q 261 1076 197 1061 q 403 1092 326 1092 q 498 1085 452 1092 q 584 1065 543 1078 q 661 1038 625 1053 q 726 1006 696 1023 l 705 907 q 648 936 680 922 q 579 962 616 951 q 503 981 543 974 q 423 989 463 989 q 316 979 360 989 q 243 949 271 970 q 202 897 215 929 q 189 821 189 865 q 319 669 189 714 l 532 595 q 632 549 585 576 q 716 484 680 522 q 774 396 753 446 q 795 283 795 347 m 457 1545 l 655 1205 l 568 1152 l 425 1408 l 281 1152 l 194 1205 l 392 1545 l 457 1545 z "},"Š":{"ha":857,"x_min":53,"x_max":795,"o":"m 795 283 q 775 170 795 225 q 711 70 756 114 q 592 -1 666 26 q 410 -28 518 -28 q 294 -16 350 -28 q 195 10 239 -4 q 100 49 144 27 l 113 151 q 199 113 153 130 q 288 87 237 98 q 391 75 338 75 q 494 84 445 75 q 579 115 543 92 q 637 176 616 137 q 659 277 659 216 q 647 347 659 316 q 613 403 635 378 q 559 447 591 428 q 488 479 528 465 l 296 547 q 206 586 250 564 q 128 641 162 609 q 74 715 94 673 q 53 812 53 758 q 79 941 53 888 q 151 1027 104 994 q 261 1076 197 1061 q 403 1092 326 1092 q 498 1085 452 1092 q 584 1065 543 1078 q 661 1038 625 1053 q 726 1006 696 1023 l 705 907 q 648 936 680 922 q 579 962 616 951 q 503 981 543 974 q 423 989 463 989 q 316 979 360 989 q 243 949 271 970 q 202 897 215 929 q 189 821 189 865 q 319 669 189 714 l 532 595 q 632 549 585 576 q 716 484 680 522 q 774 396 753 446 q 795 283 795 347 m 392 1137 l 194 1476 l 281 1529 l 425 1274 l 568 1529 l 655 1476 l 457 1137 l 392 1137 z "},"š":{"ha":690,"x_min":64,"x_max":628,"o":"m 230 396 q 165 426 195 408 q 112 469 134 444 q 77 526 90 494 q 64 597 64 557 q 86 690 64 650 q 144 755 108 730 q 228 794 181 781 q 325 807 275 807 q 412 798 370 807 q 490 777 454 789 q 552 749 526 764 q 592 724 578 734 l 550 638 q 453 692 509 670 q 334 714 398 714 q 263 705 294 714 q 213 681 233 696 q 182 646 193 665 q 172 604 172 626 q 202 542 172 566 q 283 500 231 518 l 397 460 q 492 420 450 441 q 565 370 534 398 q 611 304 595 341 q 628 220 628 268 q 613 136 628 178 q 566 60 599 94 q 480 6 533 27 q 350 -14 427 -14 q 252 -5 297 -14 q 172 18 207 5 q 111 46 136 31 q 71 71 85 60 l 113 157 q 154 131 128 144 q 210 106 179 117 q 274 87 241 94 q 338 79 307 79 q 390 85 360 79 q 447 104 420 90 q 493 144 474 119 q 511 208 511 169 q 502 255 511 235 q 475 292 492 276 q 434 320 458 308 q 382 342 410 332 l 230 396 m 299 848 l 101 1188 l 188 1241 l 332 985 l 475 1241 l 562 1188 l 364 848 l 299 848 z "},"Ũ":{"ha":1040,"x_min":91,"x_max":943,"o":"m 517 75 q 659 98 602 75 q 750 170 716 121 q 797 296 783 218 q 811 482 811 373 l 811 1071 l 943 1071 l 943 485 q 919 269 943 364 q 846 108 896 174 q 715 7 795 42 q 523 -28 635 -28 q 320 7 402 -28 q 186 108 237 42 q 113 269 136 174 q 91 485 91 364 l 91 1071 l 222 1071 l 222 482 q 239 296 222 373 q 292 170 256 218 q 384 98 328 121 q 517 75 439 75 m 645 1168 q 572 1180 607 1168 q 506 1208 536 1193 q 449 1236 475 1223 q 406 1249 424 1249 q 375 1232 385 1249 q 366 1171 366 1215 l 260 1171 q 396 1347 260 1347 q 467 1333 435 1347 q 533 1300 499 1320 q 582 1274 559 1285 q 629 1262 606 1262 q 669 1337 669 1262 l 775 1337 q 766 1267 775 1299 q 740 1214 757 1236 q 699 1180 723 1192 q 645 1168 675 1168 z "},"ũ":{"ha":842,"x_min":91,"x_max":746,"o":"m 220 300 q 230 199 220 241 q 261 131 241 157 q 310 92 281 104 q 377 79 339 79 q 439 85 409 79 q 498 103 469 90 q 556 136 527 116 q 617 186 585 156 l 617 793 l 746 793 l 746 0 l 650 0 l 632 119 q 588 75 613 98 q 530 32 562 52 q 460 -1 498 12 q 376 -14 421 -14 q 255 4 308 -14 q 165 60 202 22 q 110 157 129 98 q 91 300 91 216 l 91 793 l 220 793 l 220 300 m 547 873 q 473 885 509 873 q 407 913 438 898 q 351 941 376 928 q 307 954 326 954 q 277 937 287 954 q 267 876 267 920 l 161 876 q 298 1052 161 1052 q 369 1038 336 1052 q 435 1005 401 1025 q 484 979 460 990 q 531 967 507 967 q 571 1042 571 967 l 677 1042 q 668 972 677 1004 q 642 919 659 941 q 601 885 625 897 q 547 873 576 873 z "},"Ŭ":{"ha":1040,"x_min":91,"x_max":943,"o":"m 517 75 q 659 98 602 75 q 750 170 716 121 q 797 296 783 218 q 811 482 811 373 l 811 1071 l 943 1071 l 943 485 q 919 269 943 364 q 846 108 896 174 q 715 7 795 42 q 523 -28 635 -28 q 320 7 402 -28 q 186 108 237 42 q 113 269 136 174 q 91 485 91 364 l 91 1071 l 222 1071 l 222 482 q 239 296 222 373 q 292 170 256 218 q 384 98 328 121 q 517 75 439 75 m 693 1304 q 651 1185 693 1229 q 518 1142 610 1142 q 438 1154 471 1142 q 382 1187 404 1166 q 351 1239 361 1209 q 340 1304 340 1268 l 420 1304 q 447 1240 420 1263 q 518 1217 473 1217 q 588 1240 563 1217 q 614 1304 614 1263 l 693 1304 z "},"ŭ":{"ha":842,"x_min":91,"x_max":746,"o":"m 220 300 q 230 199 220 241 q 261 131 241 157 q 310 92 281 104 q 377 79 339 79 q 439 85 409 79 q 498 103 469 90 q 556 136 527 116 q 617 186 585 156 l 617 793 l 746 793 l 746 0 l 650 0 l 632 119 q 588 75 613 98 q 530 32 562 52 q 460 -1 498 12 q 376 -14 421 -14 q 255 4 308 -14 q 165 60 202 22 q 110 157 129 98 q 91 300 91 216 l 91 793 l 220 793 l 220 300 m 595 1009 q 553 890 595 934 q 420 847 511 847 q 339 859 373 847 q 284 892 306 871 q 252 944 262 914 q 242 1009 242 973 l 321 1009 q 348 945 321 968 q 420 922 375 922 q 490 945 465 922 q 515 1009 515 968 l 595 1009 z "},"Ů":{"ha":1040,"x_min":91,"x_max":943,"o":"m 517 75 q 659 98 602 75 q 750 170 716 121 q 797 296 783 218 q 811 482 811 373 l 811 1071 l 943 1071 l 943 485 q 919 269 943 364 q 846 108 896 174 q 715 7 795 42 q 523 -28 635 -28 q 320 7 402 -28 q 186 108 237 42 q 113 269 136 174 q 91 485 91 364 l 91 1071 l 222 1071 l 222 482 q 239 296 222 373 q 292 170 256 218 q 384 98 328 121 q 517 75 439 75 m 420 1306 q 427 1267 420 1285 q 447 1235 434 1249 q 478 1213 460 1221 q 517 1205 496 1205 q 557 1213 539 1205 q 588 1235 575 1221 q 609 1267 602 1249 q 616 1306 616 1285 q 609 1345 616 1327 q 588 1378 602 1364 q 557 1399 575 1392 q 517 1407 539 1407 q 478 1399 496 1407 q 447 1378 460 1392 q 427 1345 434 1364 q 420 1306 420 1327 m 518 1469 q 584 1456 553 1469 q 636 1422 614 1444 q 670 1370 658 1400 q 682 1305 682 1340 q 670 1242 682 1272 q 636 1191 658 1213 q 584 1156 614 1168 q 518 1143 553 1143 q 452 1156 482 1143 q 400 1191 422 1168 q 366 1242 378 1213 q 353 1305 353 1272 q 366 1370 353 1340 q 400 1422 378 1400 q 452 1456 422 1444 q 518 1469 482 1469 z "},"ů":{"ha":842,"x_min":91,"x_max":746,"o":"m 220 300 q 230 199 220 241 q 261 131 241 157 q 310 92 281 104 q 377 79 339 79 q 439 85 409 79 q 498 103 469 90 q 556 136 527 116 q 617 186 585 156 l 617 793 l 746 793 l 746 0 l 650 0 l 632 119 q 588 75 613 98 q 530 32 562 52 q 460 -1 498 12 q 376 -14 421 -14 q 255 4 308 -14 q 165 60 202 22 q 110 157 129 98 q 91 300 91 216 l 91 793 l 220 793 l 220 300 m 321 1011 q 329 972 321 990 q 349 940 336 954 q 380 918 362 926 q 419 910 397 910 q 459 918 441 910 q 490 940 477 926 q 511 972 503 954 q 518 1011 518 990 q 511 1050 518 1032 q 490 1083 503 1069 q 459 1104 477 1097 q 419 1112 441 1112 q 380 1104 397 1112 q 349 1083 362 1097 q 329 1050 336 1069 q 321 1011 321 1032 m 420 1174 q 485 1161 455 1174 q 537 1127 515 1149 q 572 1075 559 1105 q 584 1010 584 1045 q 572 947 584 977 q 537 896 559 918 q 485 861 515 873 q 420 848 455 848 q 354 861 384 848 q 301 896 323 873 q 267 947 279 918 q 255 1010 255 977 q 267 1075 255 1045 q 301 1127 279 1105 q 354 1161 323 1149 q 420 1174 384 1174 z "},"Ŷ":{"ha":894,"x_min":33,"x_max":859,"o":"m 729 1071 l 859 1071 l 510 329 l 510 0 l 381 0 l 381 329 l 33 1071 l 166 1071 l 449 459 l 729 1071 m 479 1545 l 677 1205 l 590 1152 l 446 1408 l 302 1152 l 216 1205 l 414 1545 l 479 1545 z "},"ŷ":{"ha":762,"x_min":31,"x_max":731,"o":"m 31 793 l 154 793 l 395 169 l 599 793 l 731 793 l 435 -25 q 393 -118 416 -77 q 346 -188 370 -158 q 297 -239 321 -218 q 250 -273 273 -260 q 140 -311 196 -306 l 106 -227 q 180 -201 146 -217 q 243 -157 215 -185 q 295 -87 272 -130 q 336 16 319 -45 l 31 793 m 414 1250 l 612 910 l 525 857 l 381 1113 l 237 857 l 151 910 l 349 1250 l 414 1250 z "},"Ÿ":{"ha":894,"x_min":33,"x_max":859,"o":"m 729 1071 l 859 1071 l 510 329 l 510 0 l 381 0 l 381 329 l 33 1071 l 166 1071 l 449 459 l 729 1071 m 204 1241 q 210 1271 204 1257 q 225 1296 215 1285 q 249 1313 235 1306 q 280 1319 263 1320 q 311 1313 297 1319 q 335 1296 325 1306 q 351 1271 345 1285 q 356 1241 356 1257 q 351 1211 356 1225 q 335 1186 345 1197 q 311 1169 325 1175 q 280 1163 297 1163 q 249 1169 263 1163 q 225 1186 235 1175 q 210 1211 215 1197 q 204 1241 204 1225 m 536 1241 q 541 1271 536 1257 q 557 1296 547 1285 q 581 1313 567 1306 q 612 1319 595 1320 q 643 1313 629 1319 q 667 1296 656 1306 q 682 1271 677 1285 q 688 1241 688 1257 q 682 1211 688 1225 q 667 1186 677 1197 q 643 1169 656 1175 q 612 1163 629 1163 q 581 1169 595 1163 q 557 1186 567 1175 q 541 1211 547 1197 q 536 1241 536 1225 z "},"Ź":{"ha":844,"x_min":76,"x_max":776,"o":"m 774 962 l 210 97 l 776 97 l 776 0 l 76 0 l 76 122 l 638 974 l 76 974 l 76 1071 l 774 1071 l 774 962 m 385 1181 l 493 1596 l 650 1534 l 424 1164 l 385 1181 z "},"Ž":{"ha":844,"x_min":76,"x_max":776,"o":"m 774 962 l 210 97 l 776 97 l 776 0 l 76 0 l 76 122 l 638 974 l 76 974 l 76 1071 l 774 1071 l 774 962 m 394 1137 l 196 1476 l 283 1529 l 427 1274 l 570 1529 l 657 1476 l 459 1137 l 394 1137 z "},"ž":{"ha":694,"x_min":70,"x_max":614,"o":"m 90 702 l 90 793 l 614 793 l 614 681 l 189 92 l 614 92 l 614 0 l 70 0 l 70 113 l 503 702 l 90 702 m 330 834 l 132 1174 l 219 1227 l 363 971 l 507 1227 l 593 1174 l 395 834 l 330 834 z "},"ƒ":{"ha":507,"x_min":-118,"x_max":644,"o":"m 476 1028 q 414 1011 436 1028 q 379 958 391 995 q 361 863 367 922 q 349 720 355 804 l 557 720 l 550 649 l 342 649 l 298 146 q 271 2 290 61 q 222 -95 252 -58 q 151 -149 193 -132 q 57 -166 110 -166 q -12 -158 20 -166 q -68 -139 -44 -149 q -118 -112 -95 -127 l -68 -27 q -28 -48 -48 -39 q 10 -63 -10 -56 q 50 -69 31 -69 q 93 -63 73 -69 q 126 -41 112 -56 q 150 1 140 -25 q 162 66 159 27 l 213 649 l 55 649 l 62 720 l 220 720 q 246 908 230 831 q 290 1034 262 985 q 361 1103 318 1082 q 469 1125 404 1125 q 538 1117 506 1125 q 594 1098 570 1108 q 644 1071 621 1086 l 599 989 q 556 1008 578 1000 q 516 1022 538 1016 q 476 1028 495 1028 z "},"Ǎ":{"ha":989,"x_min":43,"x_max":946,"o":"m 596 1071 l 946 0 l 811 0 l 728 260 l 261 260 l 178 0 l 43 0 l 393 1071 l 596 1071 m 279 329 l 709 329 l 494 987 l 279 329 m 462 1137 l 264 1476 l 351 1529 l 494 1274 l 638 1529 l 725 1476 l 527 1137 l 462 1137 z "},"ǎ":{"ha":814,"x_min":68,"x_max":723,"o":"m 414 714 q 350 709 383 714 q 283 693 316 703 q 219 667 250 682 q 163 632 189 652 l 117 722 q 189 759 156 743 q 257 785 222 774 q 329 802 291 796 q 414 807 366 807 q 577 785 516 807 q 671 715 639 762 q 713 596 703 669 q 723 423 723 524 l 723 0 l 628 0 l 609 121 q 490 18 559 50 q 334 -14 420 -14 q 224 2 273 -14 q 140 48 175 18 q 87 125 106 79 q 68 233 68 172 q 91 338 68 292 q 151 418 113 385 q 239 468 189 450 q 345 485 290 485 q 447 479 401 485 q 525 468 492 474 q 576 456 558 461 l 594 451 q 591 571 594 521 q 572 653 589 621 q 518 699 555 684 q 414 714 481 714 m 366 79 q 483 106 428 79 q 594 184 538 132 l 594 386 q 538 393 566 390 q 488 398 515 395 q 437 400 460 400 q 345 395 388 400 q 269 373 301 390 q 217 324 236 356 q 198 239 198 292 q 210 161 198 192 q 244 112 222 130 q 297 86 267 94 q 366 79 328 79 m 363 842 l 165 1181 l 252 1234 l 396 979 l 540 1234 l 627 1181 l 429 842 l 363 842 z "},"Ǐ":{"ha":530,"x_min":37,"x_max":498,"o":"m 205 76 l 205 991 l 66 991 l 66 1071 l 469 1071 l 469 991 l 329 991 l 329 76 l 469 76 l 469 0 l 66 0 l 66 76 l 205 76 m 235 1137 l 37 1476 l 124 1529 l 268 1274 l 412 1529 l 498 1476 l 300 1137 l 235 1137 z "},"Ǒ":{"ha":1028,"x_min":69,"x_max":960,"o":"m 960 547 q 951 400 960 472 q 924 265 943 329 q 872 147 905 201 q 789 54 839 93 q 672 -7 740 15 q 514 -29 604 -29 q 355 -6 424 -29 q 238 57 287 16 q 156 153 189 98 q 104 275 123 209 q 77 413 85 340 q 69 562 69 486 q 98 783 69 685 q 183 949 127 881 q 322 1054 239 1018 q 514 1090 406 1090 q 707 1054 623 1090 q 846 947 790 1017 q 931 777 903 878 q 960 547 960 675 m 205 526 q 284 187 205 298 q 514 76 363 76 q 642 100 585 76 q 739 178 699 124 q 801 317 779 231 q 823 526 823 403 q 802 736 823 648 q 743 880 782 824 q 647 963 704 937 q 519 989 591 989 q 386 964 444 989 q 288 883 328 939 q 227 739 248 827 q 205 526 205 651 m 481 1137 l 283 1476 l 370 1529 l 514 1274 l 658 1529 l 745 1476 l 547 1137 l 481 1137 z "},"ǒ":{"ha":857,"x_min":69,"x_max":788,"o":"m 429 64 q 514 78 478 64 q 577 116 551 92 q 620 172 603 140 q 647 240 637 204 q 661 313 657 275 q 665 385 665 350 q 661 456 665 419 q 647 529 657 493 q 620 596 637 564 q 577 652 603 628 q 514 690 551 676 q 429 704 477 704 q 345 690 381 704 q 282 651 309 675 q 239 595 256 627 q 212 528 222 564 q 197 456 201 493 q 193 385 193 418 q 197 313 193 350 q 212 240 201 276 q 239 173 222 205 q 282 117 256 141 q 345 79 309 93 q 429 64 381 64 m 788 387 q 781 290 788 339 q 758 195 774 241 q 715 109 742 149 q 649 39 688 68 q 554 -8 609 9 q 429 -26 500 -26 q 303 -8 357 -26 q 209 39 248 9 q 142 109 169 68 q 99 195 115 149 q 76 290 83 241 q 69 387 69 338 q 76 484 69 435 q 99 579 83 533 q 142 665 115 625 q 209 734 169 705 q 303 781 248 764 q 429 798 357 798 q 554 781 500 798 q 649 734 609 764 q 715 665 688 705 q 758 579 742 625 q 781 484 774 533 q 788 387 788 435 m 397 842 l 199 1181 l 286 1234 l 429 979 l 573 1234 l 660 1181 l 462 842 l 397 842 z "},"Ǔ":{"ha":1040,"x_min":91,"x_max":943,"o":"m 517 75 q 659 98 602 75 q 750 170 716 121 q 797 296 783 218 q 811 482 811 373 l 811 1071 l 943 1071 l 943 485 q 919 269 943 364 q 846 108 896 174 q 715 7 795 42 q 523 -28 635 -28 q 320 7 402 -28 q 186 108 237 42 q 113 269 136 174 q 91 485 91 364 l 91 1071 l 222 1071 l 222 482 q 239 296 222 373 q 292 170 256 218 q 384 98 328 121 q 517 75 439 75 m 484 1137 l 286 1476 l 373 1529 l 517 1274 l 661 1529 l 747 1476 l 549 1137 l 484 1137 z "},"ǔ":{"ha":842,"x_min":91,"x_max":746,"o":"m 220 300 q 230 199 220 241 q 261 131 241 157 q 310 92 281 104 q 377 79 339 79 q 439 85 409 79 q 498 103 469 90 q 556 136 527 116 q 617 186 585 156 l 617 793 l 746 793 l 746 0 l 650 0 l 632 119 q 588 75 613 98 q 530 32 562 52 q 460 -1 498 12 q 376 -14 421 -14 q 255 4 308 -14 q 165 60 202 22 q 110 157 129 98 q 91 300 91 216 l 91 793 l 220 793 l 220 300 m 387 842 l 189 1181 l 275 1234 l 419 979 l 563 1234 l 650 1181 l 452 842 l 387 842 z "},"ǧ":{"ha":852,"x_min":92,"x_max":805,"o":"m 389 -188 q 513 -184 458 -188 q 606 -167 568 -181 q 663 -124 644 -153 q 683 -45 683 -95 q 664 26 683 0 q 611 66 646 52 q 526 83 576 79 q 414 87 476 87 q 349 86 383 87 q 278 86 315 86 q 250 62 264 75 q 224 32 235 48 q 206 -3 213 16 q 199 -43 199 -22 q 208 -111 199 -83 q 240 -156 218 -138 q 298 -180 262 -173 q 389 -188 334 -188 m 427 399 q 494 418 464 408 q 544 447 524 428 q 576 499 565 467 q 587 583 587 531 q 576 647 587 621 q 544 688 566 673 q 489 711 522 704 q 412 718 456 718 q 343 711 376 718 q 286 689 310 705 q 247 645 261 673 q 232 573 232 616 q 242 512 232 541 q 270 458 253 483 q 307 416 286 434 q 349 387 328 397 l 427 399 m 644 695 q 684 644 669 669 q 699 583 699 618 q 685 485 699 529 q 642 409 671 441 q 567 354 613 376 q 456 320 522 332 l 219 277 l 232 176 l 429 176 q 593 165 524 176 q 707 127 663 154 q 772 58 751 101 q 793 -47 793 16 q 763 -169 793 -121 q 678 -242 732 -216 q 548 -279 623 -269 q 381 -290 472 -290 q 265 -277 318 -290 q 173 -237 212 -264 q 113 -168 134 -210 q 92 -64 92 -125 q 103 -5 92 -31 q 133 42 115 22 q 175 75 151 62 q 222 96 198 89 q 179 112 197 102 q 151 142 162 123 q 132 192 139 161 q 121 269 125 222 q 121 279 121 271 q 137 321 121 305 q 174 346 153 337 q 219 360 196 355 q 256 368 242 364 q 207 394 231 375 q 164 441 183 413 q 134 504 146 469 q 123 579 123 539 q 142 674 123 632 q 199 746 162 716 q 291 791 237 775 q 415 807 346 807 q 517 795 470 807 q 598 755 564 784 q 641 776 624 768 q 676 788 658 784 q 719 794 694 793 q 785 795 744 795 l 805 795 l 805 695 l 644 695 m 416 842 l 218 1181 l 305 1234 l 449 979 l 593 1234 l 680 1181 l 481 842 l 416 842 z "},"ǵ":{"ha":852,"x_min":92,"x_max":805,"o":"m 389 -188 q 513 -184 458 -188 q 606 -167 568 -181 q 663 -124 644 -153 q 683 -45 683 -95 q 664 26 683 0 q 611 66 646 52 q 526 83 576 79 q 414 87 476 87 q 349 86 383 87 q 278 86 315 86 q 250 62 264 75 q 224 32 235 48 q 206 -3 213 16 q 199 -43 199 -22 q 208 -111 199 -83 q 240 -156 218 -138 q 298 -180 262 -173 q 389 -188 334 -188 m 427 399 q 494 418 464 408 q 544 447 524 428 q 576 499 565 467 q 587 583 587 531 q 576 647 587 621 q 544 688 566 673 q 489 711 522 704 q 412 718 456 718 q 343 711 376 718 q 286 689 310 705 q 247 645 261 673 q 232 573 232 616 q 242 512 232 541 q 270 458 253 483 q 307 416 286 434 q 349 387 328 397 l 427 399 m 644 695 q 684 644 669 669 q 699 583 699 618 q 685 485 699 529 q 642 409 671 441 q 567 354 613 376 q 456 320 522 332 l 219 277 l 232 176 l 429 176 q 593 165 524 176 q 707 127 663 154 q 772 58 751 101 q 793 -47 793 16 q 763 -169 793 -121 q 678 -242 732 -216 q 548 -279 623 -269 q 381 -290 472 -290 q 265 -277 318 -290 q 173 -237 212 -264 q 113 -168 134 -210 q 92 -64 92 -125 q 103 -5 92 -31 q 133 42 115 22 q 175 75 151 62 q 222 96 198 89 q 179 112 197 102 q 151 142 162 123 q 132 192 139 161 q 121 269 125 222 q 121 279 121 271 q 137 321 121 305 q 174 346 153 337 q 219 360 196 355 q 256 368 242 364 q 207 394 231 375 q 164 441 183 413 q 134 504 146 469 q 123 579 123 539 q 142 674 123 632 q 199 746 162 716 q 291 791 237 775 q 415 807 346 807 q 517 795 470 807 q 598 755 564 784 q 641 776 624 768 q 676 788 658 784 q 719 794 694 793 q 785 795 744 795 l 805 795 l 805 695 l 644 695 m 408 886 l 515 1301 l 673 1239 l 446 869 l 408 886 z "},"ˆ":{"ha":968,"x_min":254,"x_max":715,"o":"m 517 450 l 715 110 l 628 57 l 484 313 l 340 57 l 254 110 l 452 450 l 517 450 z "},"ˇ":{"ha":968,"x_min":254,"x_max":715,"o":"m 452 41 l 254 381 l 340 434 l 484 178 l 628 434 l 715 381 l 517 41 l 452 41 z "},"˘":{"ha":529,"x_min":83,"x_max":436,"o":"m 436 209 q 394 90 436 134 q 261 47 353 47 q 181 59 214 47 q 125 92 147 71 q 94 143 104 114 q 83 209 83 173 l 163 209 q 190 145 163 168 q 261 121 216 121 q 331 145 306 121 q 357 209 357 168 l 436 209 z "},"˚":{"ha":1158,"x_min":414,"x_max":743,"o":"m 481 211 q 488 172 481 190 q 508 139 495 153 q 539 118 522 125 q 578 110 557 110 q 618 118 600 110 q 649 139 636 125 q 670 172 663 153 q 677 211 677 190 q 670 250 677 232 q 649 282 663 269 q 618 304 636 296 q 578 312 600 312 q 539 304 557 312 q 508 282 522 296 q 488 250 495 269 q 481 211 481 232 m 579 374 q 645 361 614 374 q 697 327 675 349 q 731 275 719 304 q 743 210 743 245 q 731 147 743 176 q 697 95 719 117 q 645 61 675 73 q 579 48 614 48 q 513 61 543 48 q 461 95 483 73 q 427 147 439 117 q 414 210 414 176 q 427 275 414 245 q 461 327 439 304 q 513 361 483 349 q 579 374 543 374 z "},"˜":{"ha":1158,"x_min":319,"x_max":835,"o":"m 705 73 q 631 85 667 73 q 565 113 596 98 q 509 141 534 128 q 465 153 484 153 q 435 137 445 153 q 425 75 425 120 l 319 75 q 456 252 319 252 q 527 238 494 252 q 593 205 559 224 q 642 178 618 190 q 689 167 665 167 q 729 242 729 167 l 835 242 q 826 172 835 203 q 800 119 817 141 q 759 85 783 97 q 705 73 734 73 z "},"́":{"ha":744,"x_min":332,"x_max":597,"o":"m 332 1129 l 439 1544 l 597 1482 l 370 1112 l 332 1129 z "},"̆":{"ha":529,"x_min":83,"x_max":436,"o":"m 436 209 q 394 90 436 134 q 261 47 353 47 q 181 59 214 47 q 125 92 147 71 q 94 143 104 114 q 83 209 83 173 l 163 209 q 190 145 163 168 q 261 121 216 121 q 331 145 306 121 q 357 209 357 168 l 436 209 z "},"Ѐ":{"ha":808,"x_min":104,"x_max":770,"o":"m 104 0 l 104 1071 l 762 1071 l 762 974 l 235 974 l 235 604 l 695 604 l 695 526 l 235 526 l 235 97 l 770 97 l 770 0 l 104 0 m 235 1533 l 399 1593 l 503 1174 l 458 1156 l 235 1533 z "},"Ё":{"ha":808,"x_min":104,"x_max":770,"o":"m 104 0 l 104 1071 l 762 1071 l 762 974 l 235 974 l 235 604 l 695 604 l 695 526 l 235 526 l 235 97 l 770 97 l 770 0 l 104 0 m 195 1241 q 201 1271 195 1257 q 216 1296 206 1285 q 240 1313 227 1306 q 271 1319 254 1320 q 302 1313 288 1319 q 326 1296 316 1306 q 342 1271 336 1285 q 347 1241 347 1257 q 342 1211 347 1225 q 326 1186 336 1197 q 302 1169 316 1175 q 271 1163 288 1163 q 240 1169 254 1163 q 216 1186 227 1175 q 201 1211 206 1197 q 195 1241 195 1225 m 527 1241 q 532 1271 527 1257 q 548 1296 538 1285 q 572 1313 558 1306 q 603 1319 586 1320 q 634 1313 620 1319 q 658 1296 648 1306 q 673 1271 668 1285 q 679 1241 679 1257 q 673 1211 679 1225 q 658 1186 668 1197 q 634 1169 648 1175 q 603 1163 620 1163 q 572 1169 586 1163 q 548 1186 558 1175 q 532 1211 538 1197 q 527 1241 527 1225 z "},"Ђ":{"ha":1096,"x_min":35,"x_max":1017,"o":"m 604 -66 q 723 -53 671 -64 q 811 -13 775 -42 q 866 68 847 16 q 885 203 885 120 l 885 493 q 848 658 885 606 q 734 710 810 710 q 652 699 692 710 q 578 672 612 688 q 517 637 544 656 q 475 602 491 618 l 475 0 l 344 0 l 344 974 l 35 974 l 35 1071 l 786 1071 l 786 974 l 475 974 l 475 694 q 539 752 507 730 q 603 786 570 774 q 670 803 635 798 q 741 807 704 807 q 1017 493 1017 807 l 1017 183 q 990 38 1017 101 q 911 -69 964 -26 q 782 -135 859 -113 q 604 -157 705 -157 l 604 -66 z "},"Ѓ":{"ha":847,"x_min":104,"x_max":800,"o":"m 235 974 l 235 0 l 104 0 l 104 1071 l 800 1071 l 800 974 l 235 974 m 320 1181 l 428 1596 l 585 1534 l 359 1164 l 320 1181 z "},"Є":{"ha":886,"x_min":70,"x_max":823,"o":"m 70 520 q 185 948 70 804 q 531 1092 301 1092 q 581 1090 556 1092 q 636 1082 606 1088 q 707 1065 667 1076 q 804 1038 747 1055 l 773 939 q 696 964 730 954 q 634 979 663 973 q 582 987 606 985 q 534 989 557 989 q 400 966 459 989 q 299 894 340 944 q 234 764 257 844 q 207 570 210 684 l 680 570 l 680 492 l 207 492 q 231 312 211 390 q 287 181 250 234 q 379 102 324 129 q 511 75 435 75 q 649 94 583 75 q 785 148 715 113 l 823 54 q 761 25 796 40 q 685 -1 725 11 q 603 -20 646 -13 q 520 -28 561 -28 q 323 9 408 -28 q 182 117 239 46 q 98 289 126 187 q 70 520 70 391 z "},"Ѕ":{"ha":857,"x_min":53,"x_max":795,"o":"m 795 283 q 775 170 795 225 q 711 70 756 114 q 592 -1 666 26 q 410 -28 518 -28 q 294 -16 350 -28 q 195 10 239 -4 q 100 49 144 27 l 113 151 q 199 113 153 130 q 288 87 237 98 q 391 75 338 75 q 494 84 445 75 q 579 115 543 92 q 637 176 616 137 q 659 277 659 216 q 647 347 659 316 q 613 403 635 378 q 559 447 591 428 q 488 479 528 465 l 296 547 q 206 586 250 564 q 128 641 162 609 q 74 715 94 673 q 53 812 53 758 q 79 941 53 888 q 151 1027 104 994 q 261 1076 197 1061 q 403 1092 326 1092 q 498 1085 452 1092 q 584 1065 543 1078 q 661 1038 625 1053 q 726 1006 696 1023 l 705 907 q 648 936 680 922 q 579 962 616 951 q 503 981 543 974 q 423 989 463 989 q 316 979 360 989 q 243 949 271 970 q 202 897 215 929 q 189 821 189 865 q 319 669 189 714 l 532 595 q 632 549 585 576 q 716 484 680 522 q 774 396 753 446 q 795 283 795 347 z "},"І":{"ha":535,"x_min":60,"x_max":463,"o":"m 199 76 l 199 991 l 60 991 l 60 1071 l 463 1071 l 463 991 l 323 991 l 323 76 l 463 76 l 463 0 l 60 0 l 60 76 l 199 76 z "},"Ї":{"ha":530,"x_min":26,"x_max":510,"o":"m 205 76 l 205 991 l 66 991 l 66 1071 l 469 1071 l 469 991 l 329 991 l 329 76 l 469 76 l 469 0 l 66 0 l 66 76 l 205 76 m 26 1241 q 32 1271 26 1257 q 47 1296 37 1285 q 72 1313 58 1306 q 102 1319 85 1320 q 133 1313 119 1319 q 157 1296 147 1306 q 173 1271 168 1285 q 178 1241 178 1257 q 173 1211 178 1225 q 157 1186 168 1197 q 133 1169 147 1175 q 102 1163 119 1163 q 72 1169 85 1163 q 47 1186 58 1175 q 32 1211 37 1197 q 26 1241 26 1225 m 358 1241 q 363 1271 358 1257 q 379 1296 369 1285 q 403 1313 389 1306 q 434 1319 417 1320 q 465 1313 451 1319 q 489 1296 479 1306 q 505 1271 499 1285 q 510 1241 510 1257 q 505 1211 510 1225 q 489 1186 499 1197 q 465 1169 479 1175 q 434 1163 451 1163 q 403 1169 417 1163 q 379 1186 389 1175 q 363 1211 369 1197 q 358 1241 358 1225 z "},"Ј":{"ha":490,"x_min":34,"x_max":385,"o":"m 34 24 q 153 60 109 37 q 219 119 197 83 q 249 205 242 155 q 255 325 255 256 l 255 1071 l 385 1071 l 385 349 q 375 194 385 265 q 331 70 364 123 q 235 -18 298 16 q 68 -61 172 -52 l 34 24 z "},"Љ":{"ha":1822,"x_min":55,"x_max":1758,"o":"m 1635 333 q 1615 434 1635 395 q 1551 497 1596 474 q 1436 530 1507 521 q 1261 539 1364 539 l 1153 539 l 1153 97 l 1292 97 q 1430 104 1373 97 q 1525 125 1487 111 q 1585 160 1563 140 q 1618 207 1607 180 q 1632 264 1629 233 q 1635 333 1635 296 m 1021 0 l 1021 974 l 509 974 l 486 571 l 469 302 q 437 156 464 216 q 360 58 410 96 q 233 3 309 20 q 55 -14 157 -14 l 58 83 q 176 98 128 87 q 255 130 224 109 q 303 181 286 151 q 328 253 319 212 q 340 349 337 295 q 347 472 343 404 l 380 1072 l 1153 1072 l 1153 637 l 1261 637 q 1494 617 1399 637 q 1648 556 1589 596 q 1732 457 1706 516 q 1758 320 1758 397 q 1728 165 1758 227 q 1639 66 1698 103 q 1491 15 1579 30 q 1284 0 1402 0 l 1021 0 z "},"Њ":{"ha":1600,"x_min":104,"x_max":1537,"o":"m 1413 333 q 1394 434 1413 395 q 1330 497 1374 474 q 1214 530 1285 521 q 1040 539 1143 539 l 931 539 l 931 97 l 1070 97 q 1208 104 1151 97 q 1303 125 1265 111 q 1363 160 1341 140 q 1396 207 1385 180 q 1410 264 1407 233 q 1413 333 1413 296 m 800 518 l 235 518 l 235 0 l 104 0 l 104 1071 l 235 1071 l 235 596 l 800 596 l 800 1071 l 931 1071 l 931 637 l 1040 637 q 1272 617 1177 637 q 1426 556 1367 596 q 1511 457 1485 516 q 1537 320 1537 397 q 1507 165 1537 227 q 1417 66 1476 103 q 1269 15 1358 30 q 1062 0 1180 0 l 800 0 l 800 518 z "},"Ћ":{"ha":1120,"x_min":45,"x_max":1026,"o":"m 487 974 l 487 672 q 556 739 524 712 q 620 780 589 765 q 682 801 650 795 q 751 807 714 807 q 857 793 813 807 q 932 754 901 779 q 981 694 962 729 q 1009 616 1000 659 q 1023 524 1019 573 q 1026 422 1026 475 l 1026 0 l 897 0 l 897 422 q 891 553 897 498 q 868 644 885 608 q 821 697 851 680 q 741 714 790 714 q 658 702 698 714 q 584 673 618 690 q 524 636 550 656 q 487 604 500 618 l 487 0 l 355 0 l 355 974 l 45 974 l 45 1071 l 796 1071 l 796 974 l 487 974 z "},"Ќ":{"ha":932,"x_min":104,"x_max":895,"o":"m 235 0 l 104 0 l 104 1071 l 235 1071 l 235 579 l 387 579 l 719 1071 l 850 1071 l 610 713 q 564 646 584 675 q 527 596 545 617 q 491 563 509 576 q 450 541 473 549 q 497 517 475 534 q 539 476 519 500 q 580 426 560 453 q 620 371 600 398 l 895 0 l 758 0 l 381 507 l 235 507 l 235 0 m 367 1181 l 475 1596 l 632 1534 l 406 1164 l 367 1181 z "},"Ѝ":{"ha":1058,"x_min":104,"x_max":954,"o":"m 213 1388 l 377 1449 l 481 1029 l 435 1012 l 213 1388 m 214 1071 l 214 224 l 776 1071 l 954 1071 l 954 0 l 844 0 l 844 972 l 214 50 l 214 0 l 104 0 l 104 1071 l 214 1071 z "},"Ў":{"ha":758,"x_min":26,"x_max":726,"o":"m 594 1071 l 726 1071 l 435 295 l 435 136 q 370 -28 435 24 q 172 -81 306 -81 l 137 4 q 214 7 178 5 q 276 23 250 10 q 317 63 302 36 q 332 140 332 90 l 332 294 l 26 1071 l 149 1071 l 383 416 l 594 1071 m 552 1304 q 510 1185 552 1229 q 377 1142 469 1142 q 297 1154 330 1142 q 241 1187 263 1166 q 210 1239 220 1209 q 199 1304 199 1268 l 279 1304 q 306 1240 279 1263 q 377 1217 332 1217 q 447 1240 422 1217 q 473 1304 473 1263 l 552 1304 z "},"Џ":{"ha":1036,"x_min":104,"x_max":931,"o":"m 104 1071 l 235 1071 l 235 97 l 800 97 l 800 1071 l 931 1071 l 931 0 l 585 0 l 585 -283 l 469 -283 l 469 0 l 104 0 l 104 1071 z "},"А":{"ha":989,"x_min":43,"x_max":946,"o":"m 596 1071 l 946 0 l 811 0 l 728 260 l 261 260 l 178 0 l 43 0 l 393 1071 l 596 1071 m 279 329 l 709 329 l 494 987 l 279 329 z "},"Б":{"ha":910,"x_min":104,"x_max":848,"o":"m 236 97 l 381 97 q 558 105 491 97 q 663 139 626 114 q 712 211 699 165 q 724 332 724 257 q 708 416 724 381 q 664 473 692 450 q 599 510 636 496 q 521 529 562 523 q 436 537 479 536 q 351 539 392 539 l 236 539 l 236 97 m 848 316 q 823 174 848 233 q 742 75 798 114 q 595 18 686 37 q 373 0 505 0 l 104 0 l 104 1071 l 756 1071 l 756 974 l 236 974 l 236 637 l 351 637 q 582 618 487 637 q 735 558 676 598 q 821 458 795 518 q 848 316 848 397 z "},"В":{"ha":924,"x_min":104,"x_max":863,"o":"m 349 1071 q 441 1069 391 1071 q 543 1060 492 1067 q 641 1037 593 1053 q 726 995 689 1021 q 785 927 763 968 q 808 828 808 886 q 792 712 808 756 q 747 642 777 668 q 677 604 718 616 q 587 585 637 592 q 647 575 616 581 q 709 557 679 570 q 768 524 740 545 q 817 471 796 503 q 851 393 838 439 q 863 286 863 348 q 848 175 863 221 q 804 97 833 129 q 733 46 775 66 q 639 17 692 27 q 523 3 586 7 q 389 0 460 0 l 104 0 l 104 1071 l 349 1071 m 389 97 q 556 109 489 97 q 665 147 624 121 q 723 213 705 173 q 740 310 740 254 q 721 416 740 373 q 661 485 701 459 q 559 522 621 511 q 414 533 498 533 l 235 533 l 235 97 l 389 97 m 235 621 l 411 621 q 550 631 495 621 q 638 666 606 642 q 683 729 670 690 q 696 822 696 767 q 677 891 696 863 q 617 939 659 920 q 511 965 576 957 q 351 974 445 974 l 235 974 l 235 621 z "},"Г":{"ha":847,"x_min":104,"x_max":800,"o":"m 235 974 l 235 0 l 104 0 l 104 1071 l 800 1071 l 800 974 l 235 974 z "},"Д":{"ha":1149,"x_min":51,"x_max":1044,"o":"m 844 64 l 844 974 l 385 974 l 385 725 q 381 557 385 642 q 365 390 378 473 q 326 225 352 307 q 253 64 299 143 l 844 64 m 98 64 q 159 164 134 114 q 201 267 184 214 q 229 379 218 320 q 244 504 239 437 q 251 645 250 570 q 253 808 253 720 l 253 1059 l 976 1059 l 976 64 l 1044 64 l 1044 -264 l 919 -264 l 919 -15 l 182 -15 l 182 -264 l 51 -264 l 51 64 l 98 64 z "},"Е":{"ha":838,"x_min":104,"x_max":770,"o":"m 104 0 l 104 1071 l 762 1071 l 762 974 l 235 974 l 235 604 l 695 604 l 695 526 l 235 526 l 235 97 l 770 97 l 770 0 l 104 0 z "},"Ж":{"ha":1404,"x_min":37,"x_max":1367,"o":"m 637 507 l 511 507 l 176 0 l 37 0 l 302 387 q 340 443 323 417 q 376 488 358 468 q 412 521 393 507 q 455 541 431 534 q 409 565 429 549 q 371 602 389 581 q 336 651 353 624 q 300 711 319 679 l 83 1071 l 214 1071 l 505 579 l 637 579 l 637 1071 l 768 1071 l 768 579 l 899 579 l 1190 1071 l 1335 1071 l 1105 713 q 1068 654 1085 682 q 1033 604 1050 627 q 995 566 1015 582 q 949 541 975 549 q 991 522 972 534 q 1028 489 1010 509 q 1064 445 1046 470 q 1104 388 1082 419 l 1367 0 l 1230 0 l 893 507 l 768 507 l 768 0 l 637 0 l 637 507 z "},"З":{"ha":703,"x_min":47,"x_max":640,"o":"m 377 545 q 490 514 441 538 q 572 453 539 490 q 623 368 606 416 q 640 266 640 320 q 613 144 640 198 q 543 51 587 90 q 441 -8 498 13 q 323 -28 385 -28 q 255 -25 288 -28 q 189 -14 222 -22 q 120 6 155 -7 q 47 37 85 18 l 84 127 q 138 106 107 115 q 201 90 168 96 q 265 79 233 83 q 321 75 296 75 q 403 88 370 75 q 458 120 436 100 q 492 163 479 140 q 510 210 504 187 q 516 250 515 232 q 517 277 517 269 q 497 370 517 330 q 440 439 477 411 q 349 481 402 467 q 228 496 295 496 l 182 496 l 182 593 l 228 593 q 434 653 366 593 q 501 816 501 712 q 490 886 501 854 q 456 941 479 918 q 396 976 433 964 q 309 989 360 989 q 203 976 258 989 q 104 942 149 964 l 70 1037 q 120 1057 91 1047 q 181 1075 149 1067 q 246 1087 213 1082 q 309 1092 279 1092 q 427 1073 372 1092 q 524 1018 482 1053 q 589 931 565 982 q 613 818 613 881 q 377 545 613 582 z "},"И":{"ha":1058,"x_min":104,"x_max":954,"o":"m 214 1071 l 214 224 l 776 1071 l 954 1071 l 954 0 l 844 0 l 844 972 l 214 50 l 214 0 l 104 0 l 104 1071 l 214 1071 z "},"Й":{"ha":1058,"x_min":104,"x_max":954,"o":"m 214 1071 l 214 224 l 776 1071 l 954 1071 l 954 0 l 844 0 l 844 972 l 214 50 l 214 0 l 104 0 l 104 1071 l 214 1071 m 705 1304 q 663 1185 705 1229 q 530 1142 621 1142 q 449 1154 483 1142 q 394 1187 416 1166 q 362 1239 372 1209 q 352 1304 352 1268 l 431 1304 q 458 1240 431 1263 q 530 1217 485 1217 q 600 1240 574 1217 q 625 1304 625 1263 l 705 1304 z "},"К":{"ha":932,"x_min":104,"x_max":895,"o":"m 235 0 l 104 0 l 104 1071 l 235 1071 l 235 579 l 387 579 l 719 1071 l 850 1071 l 610 713 q 564 646 584 675 q 527 596 545 617 q 491 563 509 576 q 450 541 473 549 q 497 517 475 534 q 539 476 519 500 q 580 426 560 453 q 620 371 600 398 l 895 0 l 758 0 l 381 507 l 235 507 l 235 0 z "},"Л":{"ha":1257,"x_min":55,"x_max":1153,"o":"m 1153 0 l 1021 0 l 1021 974 l 509 974 l 479 470 q 468 319 475 387 q 445 197 460 251 q 402 104 429 144 q 330 38 375 64 q 217 -1 284 12 q 55 -14 150 -14 l 58 83 q 164 94 120 86 q 240 118 209 102 q 290 162 271 135 q 320 232 309 190 q 337 333 331 275 q 347 472 342 392 l 380 1071 l 1153 1071 l 1153 0 z "},"М":{"ha":1300,"x_min":104,"x_max":1196,"o":"m 235 989 l 235 0 l 104 0 l 104 1071 l 328 1071 l 650 141 l 972 1071 l 1196 1071 l 1196 0 l 1064 0 l 1064 989 l 716 0 l 583 0 l 235 989 z "},"Н":{"ha":1036,"x_min":104,"x_max":931,"o":"m 800 518 l 235 518 l 235 0 l 104 0 l 104 1071 l 235 1071 l 235 596 l 800 596 l 800 1071 l 931 1071 l 931 0 l 800 0 l 800 518 z "},"О":{"ha":1028,"x_min":69,"x_max":960,"o":"m 960 547 q 951 400 960 472 q 924 265 943 329 q 872 147 905 201 q 789 54 839 93 q 672 -7 740 15 q 514 -29 604 -29 q 355 -6 424 -29 q 238 57 287 16 q 156 153 189 98 q 104 275 123 209 q 77 413 85 340 q 69 562 69 486 q 98 783 69 685 q 183 949 127 881 q 322 1054 239 1018 q 514 1090 406 1090 q 707 1054 623 1090 q 846 947 790 1017 q 931 777 903 878 q 960 547 960 675 m 205 526 q 284 187 205 298 q 514 76 363 76 q 642 100 585 76 q 739 178 699 124 q 801 317 779 231 q 823 526 823 403 q 802 736 823 648 q 743 880 782 824 q 647 963 704 937 q 519 989 591 989 q 386 964 444 989 q 288 883 328 939 q 227 739 248 827 q 205 526 205 651 z "},"П":{"ha":1036,"x_min":104,"x_max":931,"o":"m 931 0 l 800 0 l 800 974 l 235 974 l 235 0 l 104 0 l 104 1071 l 931 1071 l 931 0 z "},"Р":{"ha":916,"x_min":104,"x_max":848,"o":"m 848 754 q 821 613 848 673 q 736 513 795 553 q 582 453 677 473 q 351 433 487 433 l 235 433 l 235 0 l 104 0 l 104 1071 l 373 1071 q 485 1066 428 1071 q 594 1049 541 1061 q 693 1014 647 1036 q 773 957 739 992 q 828 872 808 922 q 848 754 848 822 m 338 532 q 512 544 441 532 q 628 581 584 555 q 692 645 672 606 q 712 738 712 684 q 686 866 712 819 q 614 937 660 913 q 505 967 568 961 q 369 974 442 974 l 235 974 l 235 532 l 338 532 z "},"С":{"ha":869,"x_min":66,"x_max":819,"o":"m 203 521 q 221 333 203 416 q 279 193 240 250 q 378 104 317 135 q 522 74 438 74 q 622 85 574 74 q 705 111 669 97 q 781 148 747 127 l 819 54 q 731 13 779 31 q 636 -15 690 -3 q 521 -28 583 -28 q 319 10 404 -28 q 177 119 233 48 q 94 291 121 190 q 66 520 66 393 q 76 648 66 582 q 107 778 85 714 q 164 899 129 842 q 250 999 199 956 q 369 1067 301 1042 q 526 1092 437 1092 q 635 1083 585 1092 q 722 1065 686 1075 q 800 1038 765 1053 l 770 939 q 702 964 739 953 q 626 981 669 973 q 531 989 583 989 q 382 954 444 989 q 280 856 319 918 q 221 708 240 793 q 203 521 203 622 z "},"Т":{"ha":831,"x_min":36,"x_max":787,"o":"m 478 974 l 478 0 l 347 0 l 347 974 l 36 974 l 36 1071 l 787 1071 l 787 974 l 478 974 z "},"У":{"ha":758,"x_min":26,"x_max":726,"o":"m 594 1071 l 726 1071 l 435 295 l 435 136 q 370 -28 435 24 q 172 -81 306 -81 l 137 4 q 214 7 178 5 q 276 23 250 10 q 317 63 302 36 q 332 140 332 90 l 332 294 l 26 1071 l 149 1071 l 383 416 l 594 1071 z "},"Ф":{"ha":1023,"x_min":70,"x_max":954,"o":"m 570 0 l 441 0 l 441 104 q 70 533 70 136 q 441 962 70 930 l 441 1071 l 570 1071 l 570 963 q 735 926 663 960 q 855 836 806 893 q 928 702 903 779 q 954 534 954 625 q 931 368 954 444 q 861 236 908 292 q 742 144 814 179 q 570 103 669 110 l 570 0 m 441 859 q 203 534 203 827 q 263 307 203 389 q 441 207 323 224 l 441 859 m 570 205 q 759 300 697 219 q 820 534 820 382 q 570 861 820 833 l 570 205 z "},"Х":{"ha":897,"x_min":37,"x_max":859,"o":"m 725 1071 l 858 1071 l 522 529 l 859 0 l 711 0 l 448 425 l 185 0 l 37 0 l 374 529 l 39 1071 l 172 1071 l 448 626 l 725 1071 z "},"Ц":{"ha":1108,"x_min":104,"x_max":1004,"o":"m 104 1071 l 235 1071 l 235 97 l 800 97 l 800 1071 l 931 1071 l 931 0 l 1004 0 l 1004 -283 l 887 -283 l 887 0 l 104 0 l 104 1071 z "},"Ч":{"ha":858,"x_min":80,"x_max":753,"o":"m 622 400 q 551 332 583 358 q 487 290 518 305 q 424 269 456 275 q 356 264 393 264 q 240 282 291 264 q 153 339 189 300 q 99 436 117 377 q 80 578 80 496 l 80 1071 l 212 1071 l 212 578 q 221 479 212 520 q 250 412 231 438 q 298 373 269 385 q 368 361 328 361 q 447 372 408 361 q 520 399 486 382 q 580 434 553 415 q 622 469 606 452 l 622 1071 l 753 1071 l 753 0 l 622 0 l 622 400 z "},"Ш":{"ha":1569,"x_min":104,"x_max":1464,"o":"m 850 97 l 1333 97 l 1333 1071 l 1464 1071 l 1464 0 l 104 0 l 104 1071 l 235 1071 l 235 97 l 718 97 l 718 1071 l 850 1071 l 850 97 z "},"Щ":{"ha":1641,"x_min":104,"x_max":1537,"o":"m 850 97 l 1333 97 l 1333 1071 l 1464 1071 l 1464 5 l 1537 5 l 1537 -278 l 1420 -278 l 1420 0 l 104 0 l 104 1071 l 235 1071 l 235 97 l 718 97 l 718 1071 l 850 1071 l 850 97 z "},"Ъ":{"ha":1067,"x_min":33,"x_max":1003,"o":"m 391 97 l 536 97 q 695 105 630 97 q 801 139 760 114 q 861 211 842 165 q 880 332 880 257 q 863 416 880 381 q 819 473 847 450 q 754 510 791 496 q 676 529 718 523 q 591 537 635 536 q 506 539 547 539 l 391 539 l 391 97 m 391 637 l 506 637 q 737 618 642 637 q 891 558 831 598 q 977 458 950 518 q 1003 316 1003 397 q 978 174 1003 233 q 898 75 954 114 q 751 18 842 37 q 528 0 660 0 l 259 0 l 259 974 l 33 974 l 33 1071 l 391 1071 l 391 637 z "},"Ы":{"ha":1265,"x_min":102,"x_max":1160,"o":"m 1160 0 l 1029 0 l 1029 1071 l 1160 1095 l 1160 0 m 846 316 q 821 174 846 233 q 740 75 796 114 q 593 18 684 37 q 371 0 503 0 l 102 0 l 102 1071 l 233 1071 l 233 637 l 349 637 q 579 618 485 637 q 733 558 674 598 q 819 458 793 518 q 846 316 846 397 m 233 97 l 379 97 q 541 105 475 97 q 647 139 607 114 q 705 211 687 165 q 722 332 722 257 q 706 416 722 381 q 662 473 690 450 q 597 510 634 496 q 519 529 560 523 q 434 537 477 536 q 349 539 390 539 l 233 539 l 233 97 z "},"Ь":{"ha":909,"x_min":102,"x_max":846,"o":"m 846 316 q 821 174 846 233 q 740 75 796 114 q 593 18 684 37 q 371 0 503 0 l 102 0 l 102 1071 l 233 1071 l 233 637 l 349 637 q 579 618 485 637 q 733 558 674 598 q 819 458 793 518 q 846 316 846 397 m 233 97 l 379 97 q 541 105 475 97 q 647 139 607 114 q 705 211 687 165 q 722 332 722 257 q 706 416 722 381 q 662 473 690 450 q 597 510 634 496 q 519 529 560 523 q 434 537 477 536 q 349 539 390 539 l 233 539 l 233 97 z "},"Э":{"ha":873,"x_min":50,"x_max":803,"o":"m 803 520 q 775 289 803 391 q 690 117 747 187 q 550 9 634 46 q 353 -28 465 -28 q 234 -15 289 -28 q 138 13 180 -3 q 50 54 90 31 l 88 148 q 164 111 121 127 q 253 86 201 98 q 370 75 304 75 q 470 92 427 75 q 546 138 513 109 q 600 207 578 168 q 636 292 622 246 q 657 386 650 337 q 666 482 664 434 l 275 482 l 275 573 l 666 573 q 641 758 662 680 q 579 888 619 836 q 478 964 538 939 q 336 989 418 989 q 240 981 283 989 q 165 964 197 973 q 100 939 128 953 l 69 1038 q 152 1065 108 1053 q 239 1083 190 1075 q 341 1092 288 1092 q 687 948 572 1092 q 803 520 803 804 z "},"Ю":{"ha":1346,"x_min":104,"x_max":1276,"o":"m 389 582 q 418 794 389 700 q 503 955 448 888 q 639 1056 559 1021 q 822 1092 720 1092 q 1037 1053 950 1092 q 1177 942 1124 1014 q 1253 767 1230 869 q 1276 539 1276 665 q 1246 284 1276 391 q 1159 108 1216 178 q 1019 5 1101 39 q 831 -28 936 -28 q 648 6 730 -28 q 508 107 566 40 q 419 273 450 174 q 388 504 388 372 l 235 504 l 235 0 l 104 0 l 104 1071 l 235 1071 l 235 582 l 389 582 m 1141 551 q 1135 665 1141 610 q 1116 768 1130 720 q 1080 857 1103 817 q 1022 927 1057 898 q 939 972 987 956 q 828 989 891 989 q 694 960 751 989 q 600 876 637 930 q 543 741 562 821 q 524 560 524 661 q 529 426 524 490 q 545 309 533 363 q 578 212 557 255 q 634 138 600 168 q 717 92 668 108 q 833 75 766 75 q 1065 192 989 75 q 1141 551 1141 308 z "},"Я":{"ha":939,"x_min":87,"x_max":835,"o":"m 374 541 q 260 558 311 541 q 171 608 208 576 q 114 686 134 640 q 94 787 94 731 q 124 924 94 869 q 216 1011 155 979 q 368 1057 277 1044 q 580 1071 458 1071 l 835 1071 l 835 0 l 703 0 l 703 497 l 581 497 q 420 488 488 497 q 307 454 352 478 q 240 387 262 429 q 218 279 218 345 l 218 0 l 87 0 l 87 269 q 107 385 87 336 q 166 465 128 433 q 256 515 203 496 q 374 541 309 533 m 703 585 l 703 974 l 580 974 q 435 969 503 974 q 317 944 368 964 q 238 888 267 925 q 209 785 209 850 q 226 710 209 742 q 273 656 243 678 q 340 620 302 634 q 419 598 378 606 q 502 587 460 590 q 581 585 544 585 l 703 585 z "},"а":{"ha":808,"x_min":75,"x_max":730,"o":"m 420 714 q 356 709 390 714 q 290 693 323 703 q 226 667 257 682 q 170 632 195 652 l 124 722 q 196 759 163 743 q 263 785 229 774 q 335 802 298 796 q 420 807 373 807 q 584 785 523 807 q 678 715 646 762 q 720 596 710 669 q 730 423 730 524 l 730 0 l 635 0 l 616 121 q 496 18 566 50 q 341 -14 427 -14 q 231 2 280 -14 q 147 48 182 18 q 94 125 113 79 q 75 233 75 172 q 98 338 75 292 q 158 418 120 385 q 246 468 196 450 q 352 485 296 485 q 453 479 408 485 q 532 468 499 474 q 583 456 565 461 l 601 451 q 598 571 601 521 q 578 653 595 621 q 525 699 562 684 q 420 714 488 714 m 373 79 q 490 106 435 79 q 601 184 545 132 l 601 386 q 545 393 572 390 q 494 398 522 395 q 444 400 467 400 q 351 395 395 400 q 275 373 308 390 q 224 324 243 356 q 205 239 205 292 q 217 161 205 192 q 251 112 229 130 q 304 86 273 94 q 373 79 335 79 z "},"б":{"ha":800,"x_min":71,"x_max":736,"o":"m 191 414 q 193 342 191 380 q 204 267 196 304 q 225 195 212 229 q 263 136 239 161 q 321 95 287 110 q 405 79 356 79 q 502 99 462 79 q 568 158 542 119 q 605 251 593 196 q 617 378 617 307 q 602 504 617 452 q 560 588 587 555 q 494 635 533 621 q 408 650 456 650 q 312 631 353 650 q 244 579 271 612 q 204 504 218 547 q 191 414 191 461 m 401 -14 q 257 17 319 -14 q 154 106 195 48 q 92 247 113 163 q 71 433 71 330 q 94 692 71 583 q 161 873 117 801 q 270 980 205 945 q 418 1015 334 1015 l 510 1015 q 547 1017 533 1015 q 568 1026 561 1020 q 578 1043 576 1033 q 581 1070 581 1054 l 684 1070 q 675 1005 684 1034 q 646 957 666 977 q 592 928 625 938 q 509 918 558 918 l 462 918 q 361 907 408 918 q 276 863 313 896 q 214 770 239 829 q 180 613 189 710 q 217 660 193 637 q 274 701 241 683 q 344 730 306 719 q 422 741 382 741 q 556 717 498 741 q 654 646 614 693 q 715 531 694 600 q 736 372 736 462 q 715 222 736 292 q 652 99 694 152 q 547 17 610 47 q 401 -14 484 -14 z "},"в":{"ha":777,"x_min":98,"x_max":715,"o":"m 330 78 q 447 86 398 78 q 526 111 495 94 q 572 155 557 127 q 587 220 587 182 q 565 308 587 275 q 507 356 543 340 q 424 377 471 373 q 327 382 376 382 q 276 381 301 382 q 227 381 251 381 l 227 78 l 330 78 m 227 452 q 371 453 307 452 q 480 467 435 454 q 550 507 526 479 q 574 590 574 536 q 561 644 574 621 q 518 683 547 667 q 442 707 489 699 q 328 715 395 715 l 227 715 l 227 452 m 98 792 l 351 792 q 509 778 444 792 q 616 738 574 764 q 676 674 657 711 q 695 591 695 637 q 685 524 695 555 q 652 471 674 494 q 594 434 629 448 q 507 416 558 420 q 589 400 551 413 q 655 364 627 388 q 700 306 684 340 q 715 222 715 271 q 628 56 715 113 q 354 0 541 0 l 98 0 l 98 792 z "},"г":{"ha":690,"x_min":98,"x_max":624,"o":"m 98 0 l 98 793 l 624 793 l 624 703 l 227 703 l 227 0 l 98 0 z "},"д":{"ha":979,"x_min":54,"x_max":915,"o":"m 54 67 l 130 67 q 187 143 166 102 q 213 232 208 184 q 245 512 229 373 q 277 793 261 652 l 774 793 l 774 74 l 915 74 l 915 -257 l 790 -257 l 790 0 l 183 0 l 183 -257 l 54 -257 l 54 67 m 645 703 l 393 703 l 340 311 q 331 248 335 278 q 322 188 328 218 q 307 129 316 159 q 283 67 298 99 l 645 77 l 645 703 z "},"е":{"ha":776,"x_min":68,"x_max":718,"o":"m 682 68 q 620 34 654 49 q 550 8 585 18 q 481 -8 514 -3 q 424 -14 448 -14 q 268 16 334 -14 q 157 100 201 46 q 91 228 113 154 q 68 392 68 302 q 90 548 68 473 q 153 680 111 623 q 258 772 195 738 q 403 807 320 807 q 539 784 480 807 q 637 716 597 760 q 698 608 677 672 q 718 464 718 545 q 717 422 718 442 q 713 385 715 402 l 197 385 q 214 241 197 300 q 260 147 230 183 q 335 95 291 111 q 435 79 379 79 q 494 84 467 79 q 546 99 522 90 q 592 124 570 109 q 640 159 615 139 l 682 68 m 604 486 q 591 583 604 541 q 553 654 577 625 q 495 699 528 684 q 421 714 461 714 q 328 694 368 714 q 260 641 288 675 q 217 561 233 607 q 197 463 202 515 l 604 463 l 604 486 z "},"ж":{"ha":1106,"x_min":50,"x_max":1056,"o":"m 493 0 l 493 359 l 373 359 l 196 0 l 52 0 l 233 317 q 336 396 275 391 q 295 409 313 398 q 261 437 277 419 q 230 482 245 456 q 195 541 214 508 l 50 793 l 196 793 l 366 438 l 493 438 l 493 793 l 612 793 l 612 439 l 739 439 l 909 793 l 1056 793 l 911 541 q 876 482 891 508 q 844 437 860 456 q 811 409 829 419 q 769 396 793 398 q 872 317 831 391 l 1053 -5 l 899 -5 l 736 360 l 612 360 l 612 0 l 493 0 z "},"з":{"ha":675,"x_min":55,"x_max":612,"o":"m 153 457 q 235 457 195 457 q 312 461 275 457 q 381 473 349 465 q 435 497 412 481 q 471 539 458 513 q 484 604 484 565 q 466 663 484 641 q 420 696 448 685 q 356 712 391 708 q 288 715 321 715 q 223 711 257 715 q 161 701 189 707 q 96 688 127 695 l 71 774 q 145 791 106 783 q 219 802 178 797 q 302 807 260 807 q 417 797 364 807 q 509 763 471 787 q 570 703 548 740 q 592 612 592 665 q 550 474 592 522 q 432 408 507 426 q 502 387 469 401 q 559 347 534 372 q 597 287 583 322 q 612 207 612 252 q 592 112 612 153 q 534 43 572 71 q 443 1 496 16 q 323 -13 390 -13 q 226 -6 273 -13 q 140 7 178 0 q 55 28 95 16 l 81 114 q 163 95 122 103 q 239 82 199 87 q 317 76 280 76 q 385 82 353 76 q 440 104 416 89 q 479 144 464 119 q 496 208 494 170 q 474 292 496 261 q 409 337 452 322 q 301 355 366 352 q 153 359 237 359 l 153 457 z "},"и":{"ha":915,"x_min":98,"x_max":819,"o":"m 819 0 l 705 0 l 705 695 l 217 72 l 217 0 l 98 0 l 98 793 l 214 793 l 214 205 l 662 793 l 819 793 l 819 0 z "},"й":{"ha":915,"x_min":98,"x_max":819,"o":"m 647 152 q 605 33 647 77 q 472 -10 564 -10 q 392 2 425 -10 q 336 35 358 14 q 304 86 315 57 q 294 152 294 116 l 374 152 q 400 88 374 111 q 472 64 427 64 q 542 88 517 64 q 568 152 568 111 l 647 152 m 819 0 l 705 0 l 705 695 l 217 72 l 217 0 l 98 0 l 98 793 l 214 793 l 214 205 l 662 793 l 819 793 l 819 0 z "},"к":{"ha":807,"x_min":98,"x_max":751,"o":"m 227 793 l 227 435 l 315 435 l 597 793 l 751 793 l 552 557 q 516 512 536 538 q 470 460 495 485 q 416 416 445 435 q 355 396 387 397 q 390 386 371 393 q 427 368 408 378 q 463 345 446 358 q 492 317 479 332 l 747 0 l 597 0 l 308 360 l 227 360 l 227 0 l 98 0 l 98 793 l 227 793 z "},"л":{"ha":932,"x_min":53,"x_max":837,"o":"m 837 0 l 708 0 l 708 703 l 353 703 l 338 387 q 317 208 332 283 q 271 83 302 132 q 187 10 239 34 q 53 -14 135 -14 l 53 79 q 118 95 90 79 q 166 139 146 111 q 196 209 185 168 q 209 302 206 250 l 233 793 l 837 793 l 837 0 z "},"м":{"ha":1076,"x_min":98,"x_max":981,"o":"m 981 793 l 981 0 l 870 0 l 870 719 l 608 0 l 475 0 l 208 719 l 208 0 l 98 0 l 98 793 l 287 793 l 541 107 l 791 793 l 981 793 z "},"н":{"ha":890,"x_min":98,"x_max":794,"o":"m 227 465 l 665 465 l 665 793 l 794 793 l 794 0 l 665 0 l 665 387 l 227 387 l 227 0 l 98 0 l 98 793 l 227 793 l 227 465 z "},"о":{"ha":857,"x_min":69,"x_max":788,"o":"m 429 64 q 514 78 478 64 q 577 116 551 92 q 620 172 603 140 q 647 240 637 204 q 661 313 657 275 q 665 385 665 350 q 661 456 665 419 q 647 529 657 493 q 620 596 637 564 q 577 652 603 628 q 514 690 551 676 q 429 704 477 704 q 345 690 381 704 q 282 651 309 675 q 239 595 256 627 q 212 528 222 564 q 197 456 201 493 q 193 385 193 418 q 197 313 193 350 q 212 240 201 276 q 239 173 222 205 q 282 117 256 141 q 345 79 309 93 q 429 64 381 64 m 788 387 q 781 290 788 339 q 758 195 774 241 q 715 109 742 149 q 649 39 688 68 q 554 -8 609 9 q 429 -26 500 -26 q 303 -8 357 -26 q 209 39 248 9 q 142 109 169 68 q 99 195 115 149 q 76 290 83 241 q 69 387 69 338 q 76 484 69 435 q 99 579 83 533 q 142 665 115 625 q 209 734 169 705 q 303 781 248 764 q 429 798 357 798 q 554 781 500 798 q 649 734 609 764 q 715 665 688 705 q 758 579 742 625 q 781 484 774 533 q 788 387 788 435 z "},"п":{"ha":889,"x_min":98,"x_max":793,"o":"m 793 0 l 664 0 l 664 703 l 227 703 l 227 0 l 98 0 l 98 793 l 793 793 l 793 0 z "},"р":{"ha":857,"x_min":98,"x_max":788,"o":"m 474 714 q 408 706 442 714 q 341 683 374 697 q 278 648 308 668 q 227 604 249 627 l 227 193 q 273 150 245 170 q 332 113 300 129 q 397 89 363 98 q 460 79 430 79 q 559 104 519 79 q 622 171 598 129 q 655 267 645 212 q 665 380 665 321 q 650 532 665 469 q 610 635 635 595 q 550 695 585 676 q 474 714 515 714 m 465 -14 q 397 -4 431 -14 q 332 23 363 6 q 274 63 301 40 q 227 111 247 85 l 227 -315 l 98 -330 l 98 793 l 193 793 l 216 659 q 267 716 239 689 q 328 763 296 743 q 393 795 359 783 q 462 807 427 807 q 593 785 533 807 q 696 714 653 763 q 764 587 739 665 q 788 398 788 509 q 780 301 788 350 q 756 206 772 252 q 714 120 740 160 q 652 51 688 80 q 570 4 616 21 q 465 -14 524 -14 z "},"с":{"ha":731,"x_min":68,"x_max":678,"o":"m 413 -14 q 272 13 336 -14 q 164 92 209 40 q 94 219 119 144 q 68 393 68 295 q 91 552 68 477 q 158 684 114 627 q 267 774 202 741 q 415 807 332 807 q 557 785 490 807 q 678 724 623 763 l 640 634 q 598 666 623 651 q 546 691 574 680 q 489 708 518 702 q 433 714 459 714 q 310 681 357 707 q 239 612 264 655 q 205 513 214 570 q 197 388 197 456 q 213 253 197 311 q 256 157 228 195 q 324 99 284 118 q 413 79 363 79 q 485 85 454 79 q 543 102 517 91 q 593 130 570 113 q 640 166 616 146 l 678 75 q 627 43 654 59 q 567 15 600 27 q 495 -6 534 2 q 413 -14 457 -14 z "},"т":{"ha":778,"x_min":47,"x_max":714,"o":"m 714 703 l 438 703 l 438 0 l 309 0 l 309 703 l 47 703 l 47 793 l 714 793 l 714 703 z "},"у":{"ha":762,"x_min":31,"x_max":731,"o":"m 31 793 l 154 793 l 395 169 l 599 793 l 731 793 l 435 -25 q 393 -118 416 -77 q 346 -188 370 -158 q 297 -239 321 -218 q 250 -273 273 -260 q 140 -311 196 -306 l 106 -227 q 180 -201 146 -217 q 243 -157 215 -185 q 295 -87 272 -130 q 336 16 319 -45 l 31 793 z "},"ф":{"ha":924,"x_min":68,"x_max":855,"o":"m 408 808 l 516 808 l 516 730 q 655 706 592 730 q 762 637 718 682 q 831 531 806 593 q 855 391 855 468 q 829 253 855 315 q 758 149 804 192 q 650 82 712 105 q 516 58 588 58 l 516 -14 l 408 -14 l 408 58 q 270 82 332 58 q 163 150 208 106 q 93 256 118 194 q 68 394 68 318 q 94 533 68 471 q 164 638 119 595 q 271 706 209 682 q 408 730 334 730 l 408 808 m 408 635 q 314 619 354 635 q 246 571 273 602 q 205 495 219 540 q 192 395 192 450 q 246 214 192 275 q 408 153 300 153 l 408 635 m 516 153 q 675 213 618 153 q 732 395 732 273 q 719 492 732 448 q 679 568 705 536 q 612 618 652 600 q 516 635 571 635 l 516 153 z "},"х":{"ha":777,"x_min":50,"x_max":726,"o":"m 196 0 l 52 0 l 329 396 l 50 793 l 196 793 l 387 476 l 584 793 l 726 793 l 451 396 l 721 0 l 583 0 l 391 323 l 196 0 z "},"ц":{"ha":931,"x_min":98,"x_max":836,"o":"m 98 793 l 227 793 l 227 77 l 626 77 l 626 793 l 755 793 l 755 54 l 836 54 l 836 -256 l 719 -256 l 719 0 l 98 0 l 98 793 z "},"ч":{"ha":835,"x_min":71,"x_max":740,"o":"m 611 389 q 540 320 572 347 q 476 278 507 294 q 413 258 445 263 q 345 252 382 252 q 229 271 280 252 q 143 329 178 290 q 89 427 108 368 q 71 566 71 486 l 71 793 l 199 793 l 199 566 q 238 401 199 453 q 357 349 277 349 q 436 360 397 349 q 509 387 475 371 q 569 422 543 404 q 611 457 595 441 l 611 793 l 740 793 l 740 0 l 611 0 l 611 389 z "},"ш":{"ha":1160,"x_min":98,"x_max":1064,"o":"m 98 793 l 227 793 l 227 78 l 522 78 l 522 793 l 648 793 l 648 78 l 937 78 l 937 793 l 1064 793 l 1064 0 l 98 0 l 98 793 z "},"щ":{"ha":1232,"x_min":98,"x_max":1136,"o":"m 1136 -204 l 1007 -204 l 1007 0 l 98 0 l 98 793 l 227 793 l 227 80 l 520 80 l 520 793 l 646 793 l 646 80 l 932 80 l 932 793 l 1059 793 l 1059 81 l 1136 81 l 1136 -204 z "},"ъ":{"ha":966,"x_min":46,"x_max":905,"o":"m 274 0 l 274 703 l 46 703 l 46 793 l 404 793 l 404 528 q 643 512 547 528 q 798 464 739 496 q 881 382 856 432 q 905 264 905 332 q 887 162 905 205 q 839 91 869 120 q 766 43 808 61 q 675 16 724 26 q 574 3 627 6 q 469 0 522 0 l 274 0 m 770 267 q 764 324 770 299 q 744 367 759 349 q 703 397 729 385 q 637 417 677 410 q 538 428 596 425 q 404 431 481 431 l 404 97 l 443 97 q 509 98 473 97 q 582 104 545 99 q 652 119 618 109 q 712 148 686 130 q 754 196 738 167 q 770 267 770 224 z "},"ы":{"ha":1118,"x_min":98,"x_max":1022,"o":"m 899 0 l 899 793 l 1022 793 l 1022 0 l 899 0 m 593 267 q 588 324 593 299 q 568 367 583 349 q 527 397 553 385 q 460 417 501 410 q 362 428 420 425 q 227 431 304 431 l 227 97 q 361 99 304 97 q 458 108 418 102 q 525 126 499 115 q 567 157 551 138 q 588 203 582 176 q 593 267 593 230 m 98 0 l 98 793 l 227 793 l 227 528 q 466 512 370 528 q 621 464 562 496 q 704 382 680 432 q 729 264 729 332 q 711 167 729 208 q 662 96 693 125 q 589 48 631 66 q 499 19 547 29 q 398 4 450 8 q 293 0 345 0 l 98 0 z "},"ь":{"ha":790,"x_min":98,"x_max":729,"o":"m 593 267 q 588 324 593 299 q 568 367 583 349 q 527 397 553 385 q 460 417 501 410 q 362 428 420 425 q 227 431 304 431 l 227 97 q 361 99 304 97 q 458 108 418 102 q 525 126 499 115 q 567 157 551 138 q 588 203 582 176 q 593 267 593 230 m 98 0 l 98 793 l 227 793 l 227 528 q 466 512 370 528 q 621 464 562 496 q 704 382 680 432 q 729 264 729 332 q 711 167 729 208 q 662 96 693 125 q 589 48 631 66 q 499 19 547 29 q 398 4 450 8 q 293 0 345 0 l 98 0 z "},"э":{"ha":734,"x_min":58,"x_max":666,"o":"m 330 -14 q 232 -5 275 -14 q 156 15 189 3 q 99 41 123 26 q 58 67 75 55 l 96 158 q 134 129 112 143 q 184 104 156 115 q 246 86 212 93 q 319 79 280 79 q 408 98 368 79 q 476 153 448 117 q 520 243 505 189 q 538 366 536 296 l 264 366 l 264 444 l 536 444 q 516 557 532 507 q 473 642 500 607 q 408 695 446 677 q 323 714 370 714 q 266 710 296 714 q 205 696 235 705 q 147 671 176 686 q 96 635 119 656 l 58 726 q 99 753 75 739 q 155 779 122 767 q 231 799 187 791 q 331 807 274 807 q 465 778 404 807 q 571 695 526 749 q 641 565 616 642 q 666 393 666 489 q 642 223 666 298 q 573 95 617 147 q 467 14 528 42 q 330 -14 405 -14 z "},"ю":{"ha":1165,"x_min":98,"x_max":1097,"o":"m 736 79 q 913 161 854 79 q 972 395 972 243 q 960 517 972 459 q 918 619 947 575 q 842 688 888 663 q 730 714 796 714 q 624 688 667 714 q 553 618 581 662 q 513 516 526 574 q 500 395 500 458 q 560 162 500 244 q 736 79 619 79 m 1097 402 q 1072 228 1097 305 q 1001 97 1046 151 q 890 15 955 43 q 745 -14 825 -14 q 597 11 663 -14 q 484 82 531 35 q 410 201 437 130 q 378 367 382 273 l 227 367 l 227 0 l 98 0 l 98 793 l 227 793 l 227 445 l 378 445 q 411 589 385 523 q 481 704 437 655 q 588 780 526 752 q 728 807 650 807 q 895 775 825 807 q 1010 687 965 743 q 1076 558 1055 631 q 1097 402 1097 484 z "},"я":{"ha":784,"x_min":58,"x_max":689,"o":"m 689 793 l 689 0 l 559 0 l 559 264 q 456 267 504 264 q 367 273 408 269 l 231 0 l 80 0 l 259 294 q 176 329 213 307 q 112 381 138 351 q 72 450 86 411 q 58 538 58 490 q 82 642 58 595 q 158 723 107 689 q 288 774 210 756 q 474 793 367 793 l 689 793 m 190 538 q 207 452 190 486 q 265 397 223 417 q 379 368 307 376 q 559 359 450 359 l 559 697 l 475 697 q 355 689 408 697 q 265 663 302 682 q 209 614 229 645 q 190 538 190 584 z "},"ѐ":{"ha":776,"x_min":68,"x_max":718,"o":"m 158 1266 l 322 1326 l 426 907 l 380 890 l 158 1266 m 682 68 q 620 34 654 49 q 550 8 585 18 q 481 -8 514 -3 q 424 -14 448 -14 q 268 16 334 -14 q 157 100 201 46 q 91 228 113 154 q 68 392 68 302 q 90 548 68 473 q 153 680 111 623 q 258 772 195 738 q 403 807 320 807 q 539 784 480 807 q 637 716 597 760 q 698 608 677 672 q 718 464 718 545 q 717 422 718 442 q 713 385 715 402 l 197 385 q 214 241 197 300 q 260 147 230 183 q 335 95 291 111 q 435 79 379 79 q 543 100 492 79 q 640 159 595 120 l 682 68 m 604 486 q 591 583 604 541 q 553 654 577 625 q 495 699 528 684 q 421 714 461 714 q 328 694 368 714 q 260 641 288 675 q 217 561 233 607 q 197 463 202 515 l 604 463 l 604 486 z "},"ё":{"ha":776,"x_min":68,"x_max":718,"o":"m 682 68 q 620 34 654 49 q 550 8 585 18 q 481 -8 514 -3 q 424 -14 448 -14 q 268 16 334 -14 q 157 100 201 46 q 91 228 113 154 q 68 392 68 302 q 90 548 68 473 q 153 680 111 623 q 258 772 195 738 q 403 807 320 807 q 539 784 480 807 q 637 716 597 760 q 698 608 677 672 q 718 464 718 545 q 717 422 718 442 q 713 385 715 402 l 197 385 q 214 241 197 300 q 260 147 230 183 q 335 95 291 111 q 435 79 379 79 q 494 84 467 79 q 546 99 522 90 q 592 124 570 109 q 640 159 615 139 l 682 68 m 604 486 q 591 583 604 541 q 553 654 577 625 q 495 699 528 684 q 421 714 461 714 q 328 694 368 714 q 260 641 288 675 q 217 561 233 607 q 197 463 202 515 l 604 463 l 604 486 m 152 946 q 157 976 152 962 q 173 1001 163 990 q 197 1018 183 1011 q 228 1024 211 1025 q 259 1018 245 1024 q 283 1001 273 1011 q 298 976 293 990 q 304 946 304 962 q 298 916 304 930 q 283 891 293 902 q 259 874 273 880 q 228 868 245 868 q 197 874 211 868 q 173 891 183 880 q 157 916 163 902 q 152 946 152 930 m 484 946 q 489 976 484 962 q 505 1001 494 990 q 529 1018 515 1011 q 559 1024 543 1025 q 590 1018 576 1024 q 614 1001 604 1011 q 630 976 625 990 q 635 946 635 962 q 630 916 635 930 q 614 891 625 902 q 590 874 604 880 q 559 868 576 868 q 529 874 543 868 q 505 891 515 880 q 489 916 494 902 q 484 946 484 930 z "},"ђ":{"ha":893,"x_min":22,"x_max":799,"o":"m 258 937 l 711 937 l 711 858 l 258 858 l 258 671 q 329 739 296 712 q 392 780 361 765 q 455 801 423 795 q 524 807 486 807 q 648 786 595 807 q 733 724 700 764 q 783 626 767 684 q 799 494 799 568 l 799 203 q 797 83 799 138 q 785 -15 794 29 q 756 -93 775 -59 q 706 -154 738 -127 q 625 -199 673 -180 q 509 -231 577 -218 l 477 -134 q 553 -121 522 -130 q 605 -97 584 -113 q 638 -56 626 -81 q 657 4 651 -32 q 666 89 664 40 q 668 203 668 138 l 668 493 q 661 581 668 540 q 636 651 654 621 q 589 697 618 680 q 517 714 560 714 q 434 703 474 714 q 360 674 394 691 q 300 638 326 658 q 258 602 273 618 l 258 0 l 129 0 l 129 858 l 22 858 l 22 936 l 129 936 l 129 1071 l 258 1096 l 258 937 z "},"ѓ":{"ha":690,"x_min":98,"x_max":624,"o":"m 98 0 l 98 793 l 624 793 l 624 703 l 227 703 l 227 0 l 98 0 m 229 886 l 337 1301 l 494 1239 l 268 869 l 229 886 z "},"є":{"ha":746,"x_min":68,"x_max":677,"o":"m 442 81 q 523 93 487 81 q 585 120 559 105 q 639 159 615 138 l 677 69 q 613 28 650 45 q 535 -1 581 12 q 429 -14 489 -14 q 289 14 354 -14 q 174 94 223 41 q 97 222 125 146 q 68 393 68 298 q 97 588 68 509 q 174 716 125 667 q 289 787 223 765 q 429 808 354 808 q 535 795 489 808 q 613 767 581 783 q 677 726 650 749 l 639 635 q 585 675 615 657 q 523 702 559 690 q 442 714 487 714 q 333 696 379 714 q 258 645 288 679 q 214 560 229 610 q 198 444 199 509 l 471 444 l 471 366 l 197 366 q 213 243 198 296 q 258 154 228 190 q 334 99 288 117 q 442 81 380 81 z "},"ѕ":{"ha":690,"x_min":64,"x_max":628,"o":"m 230 396 q 165 426 195 408 q 112 469 134 444 q 77 526 90 494 q 64 597 64 557 q 86 690 64 650 q 144 755 108 730 q 228 794 181 781 q 325 807 275 807 q 412 798 370 807 q 490 777 454 789 q 552 749 526 764 q 592 724 578 734 l 550 638 q 453 692 509 670 q 334 714 398 714 q 263 705 294 714 q 213 681 233 696 q 182 646 193 665 q 172 604 172 626 q 202 542 172 566 q 283 500 231 518 l 397 460 q 492 420 450 441 q 565 370 534 398 q 611 304 595 341 q 628 220 628 268 q 613 136 628 178 q 566 60 599 94 q 480 6 533 27 q 350 -14 427 -14 q 252 -5 297 -14 q 172 18 207 5 q 111 46 136 31 q 71 71 85 60 l 113 157 q 154 131 128 144 q 210 106 179 117 q 274 87 241 94 q 338 79 307 79 q 390 85 360 79 q 447 104 420 90 q 493 144 474 119 q 511 208 511 169 q 502 255 511 235 q 475 292 492 276 q 434 320 458 308 q 382 342 410 332 l 230 396 z "},"і":{"ha":325,"x_min":102,"x_max":252,"o":"m 114 0 l 114 793 l 237 793 l 237 0 l 114 0 m 102 991 q 108 1022 102 1008 q 124 1046 114 1036 q 148 1063 134 1057 q 177 1069 161 1069 q 207 1063 193 1069 q 231 1046 220 1057 q 246 1021 241 1035 q 252 991 252 1006 q 246 961 252 975 q 230 937 240 947 q 206 920 220 926 q 177 913 193 913 q 147 920 161 913 q 123 937 134 926 q 108 962 113 948 q 102 991 102 976 z "},"ї":{"ha":473,"x_min":-7,"x_max":477,"o":"m -7 1017 q -1 1047 -7 1033 q 14 1072 4 1061 q 38 1089 24 1082 q 69 1095 52 1096 q 100 1089 86 1095 q 124 1072 114 1082 q 140 1047 134 1061 q 145 1017 145 1033 q 140 987 145 1002 q 124 962 134 973 q 100 945 114 951 q 69 939 86 939 q 38 945 52 939 q 14 962 24 951 q -1 987 4 973 q -7 1017 -7 1002 m 325 1017 q 330 1047 325 1033 q 346 1072 336 1061 q 370 1089 356 1082 q 401 1095 384 1096 q 432 1089 418 1095 q 456 1072 446 1082 q 471 1047 466 1061 q 477 1017 477 1033 q 471 987 477 1002 q 456 962 466 973 q 432 945 446 951 q 401 939 418 939 q 370 945 384 939 q 346 962 356 951 q 330 987 336 973 q 325 1017 325 1002 m 195 0 l 195 793 l 318 793 l 318 0 l 195 0 z "},"ј":{"ha":370,"x_min":13,"x_max":279,"o":"m 130 991 q 136 1022 130 1008 q 152 1046 142 1036 q 176 1063 162 1057 q 205 1069 189 1069 q 235 1063 221 1069 q 258 1046 248 1057 q 274 1021 269 1035 q 279 991 279 1006 q 274 961 279 975 q 258 937 268 947 q 234 920 248 926 q 205 913 220 913 q 175 920 189 913 q 151 937 161 926 q 136 962 141 948 q 130 991 130 976 m 13 -175 q 83 -113 58 -146 q 122 -38 109 -79 q 137 53 134 3 q 140 161 140 102 l 140 231 l 140 793 l 269 793 l 269 104 q 254 -25 269 35 q 210 -132 239 -85 q 139 -209 180 -178 q 45 -253 98 -240 l 13 -175 z "},"љ":{"ha":1436,"x_min":56,"x_max":1374,"o":"m 873 793 l 873 528 q 1112 512 1015 528 q 1266 464 1208 496 q 1349 382 1324 432 q 1374 264 1374 332 q 1348 145 1374 195 q 1264 63 1322 96 q 1116 16 1207 31 q 896 0 1025 0 l 742 0 l 742 703 l 380 703 l 380 387 q 369 212 380 287 q 321 86 357 136 q 223 12 286 37 q 56 -14 159 -14 q 57 35 56 11 q 57 83 57 59 q 145 96 109 84 q 206 133 182 107 q 240 199 229 158 q 251 302 251 241 l 251 793 l 873 793 m 1242 264 q 1224 349 1242 316 q 1165 399 1207 381 q 1052 424 1122 418 q 873 431 981 431 l 873 97 l 896 97 q 1050 99 985 97 q 1158 117 1116 102 q 1221 167 1200 133 q 1242 264 1242 201 z "},"њ":{"ha":1333,"x_min":98,"x_max":1271,"o":"m 1139 264 q 1126 343 1139 311 q 1074 395 1113 376 q 961 422 1034 414 q 769 431 888 431 l 769 97 q 910 100 850 97 q 1010 112 969 104 q 1076 132 1051 119 q 1115 163 1101 144 q 1134 207 1129 182 q 1139 264 1139 231 m 228 465 l 640 465 l 640 793 l 769 793 q 769 660 769 726 q 770 528 770 594 q 1008 512 912 528 q 1163 464 1105 496 q 1246 382 1221 432 q 1271 264 1271 332 q 1246 145 1271 195 q 1165 63 1222 96 q 1012 16 1107 31 q 774 0 916 0 l 640 0 l 640 387 l 228 387 l 228 0 l 98 0 l 98 793 l 228 793 l 228 465 z "},"ћ":{"ha":894,"x_min":22,"x_max":800,"o":"m 259 936 l 711 936 l 711 858 l 259 858 l 259 671 q 330 739 298 712 q 394 780 363 765 q 456 801 425 795 q 525 807 488 807 q 641 788 590 807 q 727 731 692 770 q 781 634 762 693 q 800 493 800 574 l 800 0 l 671 0 l 671 493 q 632 661 671 608 q 514 714 594 714 q 430 702 470 714 q 356 672 389 690 q 297 636 322 655 q 259 602 272 616 l 259 0 l 130 0 l 130 858 l 22 858 l 22 936 l 130 936 l 130 1071 l 259 1096 l 259 936 z "},"ќ":{"ha":807,"x_min":98,"x_max":751,"o":"m 227 793 l 227 435 l 315 435 l 597 793 l 751 793 l 552 557 q 516 512 536 538 q 470 460 495 485 q 416 416 445 435 q 355 396 387 397 q 390 386 371 393 q 427 368 408 378 q 463 345 446 358 q 492 317 479 332 l 747 0 l 597 0 l 308 360 l 227 360 l 227 0 l 98 0 l 98 793 l 227 793 m 342 913 l 450 1327 l 608 1265 l 381 895 l 342 913 z "},"ѝ":{"ha":915,"x_min":98,"x_max":819,"o":"m 151 1103 l 315 1164 l 419 745 l 374 727 l 151 1103 m 819 0 l 705 0 l 705 695 l 217 72 l 217 0 l 98 0 l 98 793 l 214 793 l 214 205 l 662 793 l 819 793 l 819 0 z "},"ў":{"ha":762,"x_min":31,"x_max":731,"o":"m 31 793 l 154 793 l 395 169 l 599 793 l 731 793 l 435 -25 q 393 -129 415 -79 q 337 -219 370 -180 q 257 -283 304 -258 q 140 -311 210 -309 l 106 -227 q 195 -202 159 -218 q 256 -158 231 -186 q 300 -88 281 -130 q 336 16 319 -45 l 31 793 m 557 1052 q 515 933 557 977 q 382 890 473 890 q 301 902 335 890 q 246 935 268 913 q 214 986 224 957 q 204 1052 204 1016 l 283 1052 q 310 988 283 1011 q 382 964 337 964 q 452 988 427 964 q 477 1052 477 1011 l 557 1052 z "},"џ":{"ha":900,"x_min":95,"x_max":804,"o":"m 95 793 l 227 793 l 227 78 l 673 78 l 673 793 l 804 793 l 804 0 l 523 0 l 523 -283 l 406 -283 l 406 0 l 95 0 l 95 793 z "},"Ẁ":{"ha":1330,"x_min":37,"x_max":1287,"o":"m 755 1071 l 954 92 l 1160 1071 l 1287 1071 l 1053 -4 l 838 -4 l 665 991 l 463 0 l 272 0 l 37 1071 l 163 1071 l 370 92 l 569 1071 l 755 1071 m 460 1533 l 625 1593 l 728 1174 l 683 1156 l 460 1533 z "},"ẽ":{"ha":776,"x_min":68,"x_max":718,"o":"m 682 68 q 620 34 654 49 q 550 8 585 18 q 481 -8 514 -3 q 424 -14 448 -14 q 268 16 334 -14 q 157 100 201 46 q 91 228 113 154 q 68 392 68 302 q 90 548 68 473 q 153 680 111 623 q 258 772 195 738 q 403 807 320 807 q 539 784 480 807 q 637 716 597 760 q 698 608 677 672 q 718 464 718 545 q 717 422 718 442 q 713 385 715 402 l 197 385 q 214 241 197 300 q 260 147 230 183 q 335 95 291 111 q 435 79 379 79 q 494 84 467 79 q 546 99 522 90 q 592 124 570 109 q 640 159 615 139 l 682 68 m 604 486 q 591 583 604 541 q 553 654 577 625 q 495 699 528 684 q 421 714 461 714 q 328 694 368 714 q 260 641 288 675 q 217 561 233 607 q 197 463 202 515 l 604 463 l 604 486 m 522 873 q 448 885 484 873 q 382 913 413 898 q 326 941 351 928 q 282 954 300 954 q 252 937 262 954 q 242 876 242 920 l 136 876 q 273 1052 136 1052 q 343 1038 311 1052 q 410 1005 376 1025 q 459 979 435 990 q 506 967 482 967 q 546 1042 546 967 l 652 1042 q 643 972 652 1004 q 616 919 633 941 q 575 885 600 897 q 522 873 551 873 z "},"Ỳ":{"ha":894,"x_min":33,"x_max":859,"o":"m 729 1071 l 859 1071 l 510 329 l 510 0 l 381 0 l 381 329 l 33 1071 l 166 1071 l 449 459 l 729 1071 m 244 1533 l 408 1593 l 512 1174 l 467 1156 l 244 1533 z "},"ỳ":{"ha":762,"x_min":31,"x_max":731,"o":"m 31 793 l 154 793 l 395 169 l 599 793 l 731 793 l 435 -25 q 393 -118 416 -77 q 346 -188 370 -158 q 297 -239 321 -218 q 250 -273 273 -260 q 140 -311 196 -306 l 106 -227 q 180 -201 146 -217 q 243 -157 215 -185 q 295 -87 272 -130 q 336 16 319 -45 l 31 793 m 179 1238 l 343 1298 l 447 879 l 401 861 l 179 1238 z "},"Ỹ":{"ha":894,"x_min":33,"x_max":859,"o":"m 729 1071 l 859 1071 l 510 329 l 510 0 l 381 0 l 381 329 l 33 1071 l 166 1071 l 449 459 l 729 1071 m 574 1168 q 500 1180 536 1168 q 434 1208 465 1193 q 378 1236 404 1223 q 334 1249 353 1249 q 304 1232 314 1249 q 294 1171 294 1215 l 189 1171 q 325 1347 189 1347 q 396 1333 363 1347 q 462 1300 428 1320 q 511 1274 488 1285 q 558 1262 534 1262 q 598 1337 598 1262 l 704 1337 q 695 1267 704 1299 q 669 1214 686 1236 q 628 1180 652 1192 q 574 1168 604 1168 z "},"ỹ":{"ha":762,"x_min":31,"x_max":731,"o":"m 31 793 l 154 793 l 395 169 l 599 793 l 731 793 l 435 -25 q 393 -118 416 -77 q 346 -188 370 -158 q 297 -239 321 -218 q 250 -273 273 -260 q 140 -311 196 -306 l 106 -227 q 180 -201 146 -217 q 243 -157 215 -185 q 295 -87 272 -130 q 336 16 319 -45 l 31 793 m 509 873 q 435 885 471 873 q 369 913 400 898 q 313 941 338 928 q 269 954 288 954 q 239 937 249 954 q 229 876 229 920 l 123 876 q 260 1052 123 1052 q 331 1038 298 1052 q 397 1005 363 1025 q 446 979 422 990 q 493 967 469 967 q 533 1042 533 967 l 639 1042 q 630 972 639 1004 q 604 919 621 941 q 563 885 587 897 q 509 873 538 873 z "},"–":{"ha":858,"x_min":245,"x_max":564,"o":"m 245 474 l 564 474 l 564 376 l 245 376 l 245 474 z "},"—":{"ha":858,"x_min":86,"x_max":724,"o":"m 86 474 l 724 474 l 724 376 l 86 376 l 86 474 z "},"‘":{"ha":347,"x_min":76,"x_max":253,"o":"m 253 741 l 76 741 l 76 910 q 116 1039 76 988 q 231 1112 155 1090 l 252 1048 q 210 1029 227 1039 q 182 1007 193 1019 q 168 978 172 994 q 164 940 164 962 l 253 940 l 253 741 z "},"’":{"ha":347,"x_min":76,"x_max":253,"o":"m 76 1071 l 253 1071 l 253 902 q 213 773 253 824 q 98 701 174 722 l 77 764 q 119 783 102 773 q 146 805 136 793 q 161 834 157 818 q 165 872 165 850 l 76 872 l 76 1071 z "},"‚":{"ha":439,"x_min":165,"x_max":342,"o":"m 165 199 l 342 199 l 342 30 q 303 -99 342 -48 q 187 -172 263 -150 l 166 -108 q 209 -89 192 -99 q 236 -67 226 -79 q 250 -38 246 -54 q 254 0 254 -22 l 165 0 l 165 199 z "},"“":{"ha":637,"x_min":96,"x_max":536,"o":"m 536 721 l 359 721 l 359 890 q 399 1019 359 968 q 515 1091 439 1069 l 536 1027 q 493 1009 510 1019 q 466 986 476 999 q 452 958 456 974 q 448 920 448 941 l 536 920 l 536 721 m 273 721 l 96 721 l 96 890 q 135 1019 96 968 q 251 1091 175 1069 l 272 1027 q 229 1009 246 1019 q 202 986 212 999 q 188 958 192 974 q 184 920 184 941 l 273 920 l 273 721 z "},"”":{"ha":564,"x_min":76,"x_max":517,"o":"m 76 1071 l 253 1071 l 253 902 q 213 773 253 824 q 98 701 174 722 l 77 764 q 119 783 102 773 q 146 805 136 793 q 161 834 157 818 q 165 872 165 850 l 76 872 l 76 1071 m 340 1071 l 517 1071 l 517 902 q 477 773 517 824 q 361 701 437 722 l 340 764 q 383 783 366 773 q 410 805 400 793 q 425 834 420 818 q 429 872 429 850 l 340 872 l 340 1071 z "},"„":{"ha":754,"x_min":197,"x_max":637,"o":"m 197 199 l 374 199 l 374 30 q 334 -99 374 -48 q 218 -172 294 -150 l 197 -108 q 240 -89 223 -99 q 267 -67 257 -79 q 281 -38 277 -54 q 286 0 286 -22 l 197 0 l 197 199 m 460 199 l 637 199 l 637 30 q 598 -99 637 -48 q 482 -172 558 -150 l 461 -108 q 504 -89 487 -99 q 531 -67 521 -79 q 545 -38 541 -54 q 549 0 549 -22 l 460 0 l 460 199 z "},"†":{"ha":726,"x_min":76,"x_max":655,"o":"m 304 692 l 76 692 l 76 787 l 303 787 l 303 996 l 434 996 l 434 787 l 655 787 l 655 692 l 433 692 l 433 0 l 304 0 l 304 692 z "},"‡":{"ha":839,"x_min":137,"x_max":716,"o":"m 137 301 l 364 301 l 364 692 l 137 692 l 137 787 l 364 787 l 364 996 l 495 996 l 495 787 l 716 787 l 716 692 l 494 692 l 494 301 l 715 301 l 715 207 l 494 207 l 494 0 l 364 0 l 364 207 l 137 207 l 137 301 z "},"•":{"ha":923,"x_min":204,"x_max":676,"o":"m 440 243 q 347 260 390 243 q 272 309 304 278 q 222 380 241 339 q 204 469 204 422 q 222 558 204 517 q 272 631 241 600 q 347 680 304 662 q 440 697 390 697 q 533 680 490 697 q 608 631 576 662 q 658 558 640 600 q 676 469 676 517 q 658 380 676 422 q 608 309 640 339 q 533 260 576 278 q 440 243 490 243 z "},"…":{"ha":1054,"x_min":91,"x_max":968,"o":"m 968 199 l 968 0 l 791 0 l 791 199 l 968 199 m 622 199 l 622 0 l 445 0 l 445 199 l 622 199 m 268 199 l 268 0 l 91 0 l 91 199 l 268 199 z "},"‰":{"ha":1158,"x_min":0,"x_max":0,"o":""},"‹":{"ha":521,"x_min":54,"x_max":467,"o":"m 54 452 l 467 711 l 467 571 l 163 391 l 467 208 l 467 67 l 54 326 l 54 452 z "},"›":{"ha":521,"x_min":54,"x_max":467,"o":"m 54 67 l 54 208 l 357 391 l 54 571 l 54 711 l 467 452 l 467 326 l 54 67 z "},"€":{"ha":788,"x_min":33,"x_max":735,"o":"m 509 472 l 509 389 l 252 389 q 282 245 260 305 q 337 148 304 186 q 412 93 370 111 q 505 76 455 76 q 587 83 550 76 q 650 100 624 90 q 705 124 680 111 l 735 26 q 671 -1 707 12 q 598 -19 641 -11 q 503 -28 556 -28 q 350 5 417 -28 q 234 94 283 37 q 157 227 186 151 q 117 389 127 302 l 33 389 l 33 472 l 112 472 q 113 504 113 488 q 115 535 114 519 l 33 535 l 33 618 l 125 618 q 171 761 140 694 q 250 876 202 827 q 360 953 297 925 q 503 981 424 981 q 598 973 556 981 q 671 955 641 964 q 735 928 707 943 l 705 833 q 650 857 680 846 q 587 873 624 865 q 505 880 550 880 q 419 865 459 880 q 347 819 379 850 q 293 738 315 787 q 259 618 270 688 l 548 618 l 548 535 l 248 535 l 248 472 l 509 472 z "},"№":{"ha":1953,"x_min":104,"x_max":1884,"o":"m 810 0 l 235 952 l 235 0 l 104 0 l 104 1071 l 281 1071 l 847 125 l 847 1071 l 979 1071 l 979 0 l 810 0 m 1525 64 q 1610 78 1574 64 q 1673 116 1647 92 q 1716 172 1699 140 q 1743 240 1733 204 q 1757 313 1753 275 q 1761 385 1761 350 q 1757 456 1761 419 q 1743 529 1753 493 q 1716 596 1733 564 q 1673 652 1699 628 q 1610 690 1647 676 q 1525 704 1573 704 q 1441 690 1477 704 q 1378 651 1404 675 q 1335 595 1352 627 q 1308 528 1318 564 q 1293 456 1297 493 q 1289 385 1289 418 q 1293 313 1289 350 q 1308 240 1297 276 q 1335 173 1318 205 q 1378 117 1352 141 q 1441 79 1404 93 q 1525 64 1477 64 m 1884 387 q 1877 290 1884 339 q 1854 195 1870 241 q 1811 109 1838 149 q 1745 39 1784 68 q 1650 -8 1705 9 q 1525 -26 1596 -26 q 1399 -8 1453 -26 q 1304 39 1344 9 q 1238 109 1265 68 q 1195 195 1211 149 q 1172 290 1179 241 q 1165 387 1165 338 q 1172 484 1165 435 q 1195 579 1179 533 q 1238 665 1211 625 q 1304 734 1265 705 q 1399 781 1344 764 q 1525 798 1453 798 q 1650 781 1596 798 q 1745 734 1705 764 q 1811 665 1784 705 q 1854 579 1838 625 q 1877 484 1870 533 q 1884 387 1884 435 z "},"™":{"ha":1108,"x_min":49,"x_max":1059,"o":"m 586 873 l 586 423 l 499 423 l 499 958 l 654 958 l 779 514 l 904 958 l 1059 958 l 1059 423 l 973 423 l 973 873 l 840 423 l 719 423 l 586 873 m 283 888 l 283 423 l 191 423 l 191 888 l 49 888 l 49 958 l 425 958 l 425 888 l 283 888 z "},"ﬀ":{"ha":1080,"x_min":19,"x_max":1064,"o":"m 899 1028 q 845 1017 865 1028 q 814 980 825 1006 q 802 907 804 953 q 799 793 799 862 l 1035 793 l 1035 722 l 799 722 l 799 0 l 670 0 l 670 722 l 321 722 l 321 0 l 192 0 l 192 722 l 19 722 l 19 793 l 192 793 q 204 947 192 884 q 243 1049 217 1010 q 310 1107 269 1089 q 406 1125 350 1125 q 476 1117 443 1125 q 533 1098 509 1108 q 586 1071 562 1086 l 543 986 q 501 1007 523 998 q 461 1021 483 1015 q 421 1028 440 1028 q 367 1017 387 1028 q 336 980 347 1006 q 323 907 326 953 q 321 793 321 862 l 670 793 q 683 947 670 884 q 721 1049 695 1010 q 788 1107 747 1089 q 884 1125 828 1125 q 954 1117 921 1125 q 1011 1098 987 1108 q 1064 1071 1040 1086 l 1021 986 q 979 1007 1001 998 q 940 1021 961 1015 q 899 1028 918 1028 z "},"ﬁ":{"ha":927,"x_min":19,"x_max":819,"o":"m 669 991 q 675 1021 669 1007 q 690 1046 680 1036 q 714 1063 701 1057 q 744 1069 728 1069 q 774 1063 760 1069 q 798 1046 787 1057 q 813 1021 808 1036 q 819 991 819 1007 q 813 962 819 976 q 798 937 808 947 q 774 920 788 926 q 744 913 760 913 q 714 920 728 913 q 690 937 700 926 q 675 962 680 947 q 669 991 669 976 m 681 0 l 681 722 l 321 722 l 321 0 l 192 0 l 192 722 l 19 722 l 19 793 l 192 793 q 206 947 192 884 q 248 1049 220 1010 q 317 1107 275 1089 q 416 1125 359 1125 q 483 1116 452 1125 q 535 1097 513 1107 q 583 1069 562 1084 l 541 984 q 498 1006 520 996 q 458 1021 480 1014 q 416 1028 436 1028 q 378 1022 395 1028 q 348 1000 360 1015 q 328 958 335 984 q 321 892 321 932 l 321 793 l 804 793 l 804 0 l 681 0 z "},"ﬂ":{"ha":906,"x_min":19,"x_max":797,"o":"m 557 793 l 557 722 l 321 722 l 321 0 l 192 0 l 192 722 l 19 722 l 19 793 l 192 793 q 206 947 192 884 q 254 1049 220 1010 q 348 1107 289 1089 q 496 1125 406 1125 q 620 1116 569 1125 q 703 1085 670 1106 q 755 1032 736 1065 q 784 953 774 999 q 795 847 793 907 q 797 711 797 787 l 797 0 l 668 0 l 668 781 q 668 822 668 801 q 669 865 669 844 q 664 944 669 913 q 643 995 660 976 q 591 1021 625 1013 q 496 1028 557 1028 q 410 1022 444 1028 q 356 1000 376 1015 q 329 958 336 984 q 321 892 321 932 l 321 793 l 557 793 z "},"ﬃ":{"ha":1409,"x_min":19,"x_max":1300,"o":"m 1151 991 q 1156 1021 1151 1007 q 1172 1046 1162 1036 q 1196 1063 1182 1057 q 1225 1069 1209 1069 q 1255 1063 1242 1069 q 1279 1046 1269 1057 q 1295 1021 1289 1036 q 1300 991 1300 1007 q 1295 962 1300 976 q 1279 937 1289 947 q 1256 920 1270 926 q 1225 913 1242 913 q 1195 920 1209 913 q 1172 937 1181 926 q 1156 962 1162 947 q 1151 991 1151 976 m 892 1028 q 837 1017 857 1028 q 807 980 817 1006 q 794 907 797 953 q 791 793 791 862 l 1286 793 l 1286 0 l 1162 0 l 1162 722 l 791 722 l 791 0 l 663 0 l 663 722 l 321 722 l 321 0 l 192 0 l 192 722 l 19 722 l 19 793 l 192 793 q 204 947 192 884 q 243 1049 217 1010 q 310 1107 269 1089 q 406 1125 350 1125 q 476 1117 443 1125 q 533 1098 509 1108 q 586 1071 562 1086 l 543 986 q 501 1007 523 998 q 461 1021 483 1015 q 421 1028 440 1028 q 367 1017 387 1028 q 336 980 347 1006 q 323 907 326 953 q 321 793 321 862 l 663 793 q 675 947 663 884 q 714 1049 688 1010 q 780 1107 740 1089 q 876 1125 821 1125 q 946 1117 913 1125 q 1004 1098 979 1108 q 1057 1071 1032 1086 l 1014 986 q 972 1007 994 998 q 932 1021 954 1015 q 892 1028 911 1028 z "},"ﬄ":{"ha":1344,"x_min":19,"x_max":1235,"o":"m 935 1125 q 1086 1108 1028 1125 q 1178 1054 1145 1091 q 1223 957 1211 1017 q 1235 812 1235 898 l 1235 0 l 1106 0 l 1106 794 q 1106 830 1106 812 q 1107 868 1107 849 q 1102 946 1107 915 q 1081 995 1098 977 q 1029 1021 1063 1013 q 935 1028 994 1028 q 837 1020 872 1028 q 785 990 802 1011 q 763 933 767 969 q 759 842 759 897 l 759 793 l 995 793 l 995 722 l 759 722 l 759 0 l 630 0 l 630 722 l 321 722 l 321 0 l 192 0 l 192 722 l 19 722 l 19 793 l 192 793 q 204 947 192 884 q 243 1049 217 1010 q 310 1107 269 1089 q 406 1125 350 1125 q 476 1117 443 1125 q 533 1098 509 1108 q 586 1071 562 1086 l 543 986 q 501 1007 523 998 q 461 1021 483 1015 q 421 1028 440 1028 q 367 1017 387 1028 q 336 980 347 1006 q 323 907 326 953 q 321 793 321 862 l 630 793 q 644 947 630 884 q 692 1049 658 1010 q 786 1107 727 1089 q 935 1125 844 1125 z "}}}
